<svg xmlns="http://www.w3.org/2000/svg" xmlns:xlink="http://www.w3.org/1999/xlink" width="698" zoomAndPan="magnify" viewBox="0 0 523.5 121.500001" height="162" preserveAspectRatio="xMidYMid meet" version="1.0"><defs><clipPath id="f221459a93"><path d="M 0.824219 0 L 521.699219 0 L 521.699219 121.003906 L 0.824219 121.003906 Z M 0.824219 0 " clip-rule="nonzero"/></clipPath><clipPath id="6dbda0dde2"><path d="M 461.152344 0 L 0.824219 0 L 0.824219 121.003906 L 461.152344 121.003906 L 521.65625 60.5 Z M 461.152344 0 " clip-rule="nonzero"/></clipPath><clipPath id="e4e0d80a59"><path d="M 290.839844 8.136719 L 309.636719 8.136719 L 309.636719 26.933594 L 290.839844 26.933594 Z M 290.839844 8.136719 " clip-rule="nonzero"/></clipPath><clipPath id="0a17e25fd5"><path d="M 300.238281 8.136719 C 295.046875 8.136719 290.839844 12.34375 290.839844 17.535156 C 290.839844 22.726562 295.046875 26.933594 300.238281 26.933594 C 305.425781 26.933594 309.636719 22.726562 309.636719 17.535156 C 309.636719 12.34375 305.425781 8.136719 300.238281 8.136719 Z M 300.238281 8.136719 " clip-rule="nonzero"/></clipPath></defs><g clip-path="url(#f221459a93)"><g clip-path="url(#6dbda0dde2)"><path fill="#fd654e" d="M 0.824219 0 L 521.699219 0 L 521.699219 121.003906 L 0.824219 121.003906 Z M 0.824219 0 " fill-opacity="1" fill-rule="nonzero"/></g></g><g clip-path="url(#e4e0d80a59)"><g clip-path="url(#0a17e25fd5)"><path fill="#fd654e" d="M 290.839844 8.136719 L 309.636719 8.136719 L 309.636719 26.933594 L 290.839844 26.933594 Z M 290.839844 8.136719 " fill-opacity="1" fill-rule="nonzero"/></g></g></svg>