<svg xmlns="http://www.w3.org/2000/svg" xmlns:xlink="http://www.w3.org/1999/xlink" width="599" zoomAndPan="magnify" viewBox="0 0 449.25 611.999987" height="816" preserveAspectRatio="xMidYMid meet" version="1.0"><defs><filter x="0%" y="0%" width="100%" height="100%" id="0a92706201"><feColorMatrix values="0 0 0 0 1 0 0 0 0 1 0 0 0 0 1 0 0 0 1 0" color-interpolation-filters="sRGB"/></filter><mask id="0d156388f6"><g filter="url(#0a92706201)"><rect x="-44.925" width="539.1" fill="#000000" y="-61.199999" height="734.399984" fill-opacity="0.2"/></g></mask><clipPath id="8df1382d7f"><path d="M 111 0.527344 L 126.96875 0.527344 L 126.96875 18.496094 L 111 18.496094 Z M 111 0.527344 " clip-rule="nonzero"/></clipPath><clipPath id="3b3ab78bec"><path d="M 0.21875 0.527344 L 16 0.527344 L 16 18.496094 L 0.21875 18.496094 Z M 0.21875 0.527344 " clip-rule="nonzero"/></clipPath><clipPath id="19e686def7"><rect x="0" width="127" y="0" height="19"/></clipPath><clipPath id="8372f24375"><path d="M 180 405 L 325 405 L 325 610.742188 L 180 610.742188 Z M 180 405 " clip-rule="nonzero"/></clipPath><clipPath id="16cd7a7b47"><path d="M 264.960938 40.378906 L 296.25 40.378906 L 296.25 71.667969 L 264.960938 71.667969 Z M 264.960938 40.378906 " clip-rule="nonzero"/></clipPath><clipPath id="9c05db3dd2"><path d="M 280.605469 40.378906 C 271.964844 40.378906 264.960938 47.382812 264.960938 56.023438 C 264.960938 64.664062 271.964844 71.667969 280.605469 71.667969 C 289.246094 71.667969 296.25 64.664062 296.25 56.023438 C 296.25 47.382812 289.246094 40.378906 280.605469 40.378906 Z M 280.605469 40.378906 " clip-rule="nonzero"/></clipPath></defs><path fill="#ffe3cb" d="M 64.386719 221.21875 C 64.386719 221.21875 50.898438 215.058594 42.679688 223.277344 C 34.460938 231.496094 33.574219 252.121094 36.5 263.527344 C 39.425781 274.933594 53.902344 291.859375 70.980469 289.078125 C 70.980469 289.078125 75.390625 311.953125 95.140625 334.800781 C 114.890625 357.652344 158.945312 385.191406 219.679688 385.191406 C 219.679688 385.191406 269.84375 387.125 308.476562 364.378906 C 347.109375 341.632812 358.6875 320.671875 368.332031 288.558594 C 368.332031 288.558594 381.492188 293.144531 392.285156 280.433594 C 403.078125 267.726562 405.839844 252.671875 404.773438 240.636719 C 403.710938 228.601562 391.964844 211.484375 374.585938 221.148438 C 374.585938 221.148438 354.433594 199.949219 351.390625 173.109375 C 351.390625 173.109375 271.5 130.371094 231.785156 122.433594 L 219.425781 119.4375 C 219.425781 119.4375 143.25 139.300781 86.746094 175.464844 C 86.746094 175.464844 88.191406 195.160156 64.386719 221.21875 Z M 64.386719 221.21875 " fill-opacity="1" fill-rule="nonzero"/><path fill="#ffafa4" d="M 87.488281 185.261719 C 87.488281 185.261719 148.6875 150.242188 190.808594 138.960938 C 208.839844 134.128906 209.609375 133.722656 215.476562 136.53125 L 219.921875 139.972656 L 227.808594 132.488281 C 227.808594 132.488281 314.984375 154.832031 354.050781 186.882812 L 350.554688 173.316406 C 350.554688 173.316406 275.644531 128.378906 233.773438 122.324219 L 220.582031 118.414062 C 220.582031 118.414062 135.992188 141.390625 88.558594 175.484375 Z M 87.488281 185.261719 " fill-opacity="1" fill-rule="nonzero"/><path fill="#8f5037" d="M 34.992188 243.867188 C 34.992188 243.867188 17.847656 240.894531 11.941406 231.792969 C 6.039062 222.695312 6.953125 209.6875 8.832031 202.886719 C 10.714844 196.09375 17.375 180.703125 7.917969 163.375 C 7.917969 163.375 30.628906 167.339844 41.574219 185.324219 C 41.574219 185.324219 36.914062 142.976562 55.476562 113.984375 C 55.476562 113.984375 64.210938 45.214844 144.285156 23.921875 L 151.558594 22.320312 C 151.558594 22.320312 179.472656 6.5 221.027344 6.5 C 262.582031 6.5 287.507812 23.214844 287.507812 23.214844 C 287.507812 23.214844 290.726562 21.722656 298.5625 23.65625 C 306.398438 25.589844 375.660156 48.867188 386.878906 113.28125 C 386.878906 113.28125 403.785156 148.351562 399.890625 184.785156 C 399.890625 184.785156 414.191406 165.597656 434.367188 164.039062 C 434.367188 164.039062 427.457031 175.777344 429.835938 189.167969 C 432.21875 202.554688 447.757812 235.992188 406.316406 243.222656 C 406.316406 243.222656 405.027344 223.074219 393.023438 219.996094 L 395.652344 203.632812 C 395.652344 203.632812 300.207031 135.445312 232.035156 121.878906 C 232.035156 121.878906 230.5625 133.199219 219.710938 141.71875 C 219.710938 141.71875 210.1875 133.066406 208.253906 123.003906 C 208.253906 123.003906 98.390625 151.660156 44.835938 205.210938 C 44.835938 205.210938 43.882812 212.4375 48.058594 219.257812 C 48.058594 219.261719 34.992188 225.429688 34.992188 243.867188 Z M 34.992188 243.867188 " fill-opacity="1" fill-rule="nonzero"/><path fill="#1e0202" d="M 44.539062 204.515625 C 44.539062 204.515625 43.511719 213.125 47.59375 220.054688 C 47.59375 220.054688 56.746094 216.171875 63.96875 221.582031 C 63.96875 221.582031 77.386719 214.605469 88.808594 175.785156 C 88.808594 175.785156 55.675781 193.378906 44.539062 204.515625 Z M 44.539062 204.515625 " fill-opacity="1" fill-rule="nonzero"/><path fill="#1e0202" d="M 350.796875 175.066406 C 350.796875 175.066406 354.703125 198.660156 374.777344 221.613281 C 374.777344 221.613281 383.835938 215 392.898438 220.898438 C 392.898438 220.898438 395.988281 210.839844 395.558594 203.84375 C 395.566406 203.84375 358.613281 179.792969 350.796875 175.066406 Z M 350.796875 175.066406 " fill-opacity="1" fill-rule="nonzero"/><path fill="#ffafa4" d="M 199.390625 383.746094 C 199.390625 383.746094 199.414062 391.300781 206.632812 394.507812 C 213.847656 397.71875 220.917969 403.285156 220.917969 407.886719 C 220.917969 407.886719 221.046875 398.792969 230.171875 394.914062 C 239.292969 391.03125 240.535156 384.449219 240.535156 384.449219 C 240.535156 384.449219 206.796875 384.449219 199.390625 383.746094 Z M 199.390625 383.746094 " fill-opacity="1" fill-rule="nonzero"/><path fill="#693724" d="M 26.230469 172.558594 C 26.230469 172.558594 34.957031 184.476562 34.957031 192.421875 C 34.957031 200.363281 36.476562 214.089844 42.929688 222.207031 L 46.542969 220.101562 C 46.542969 220.101562 41.726562 206.90625 45.1875 202.351562 L 41.726562 185.050781 C 41.726562 185.046875 30.757812 174.351562 26.230469 172.558594 Z M 26.230469 172.558594 " fill-opacity="1" fill-rule="nonzero"/><path fill="#592e1d" d="M 13.894531 187.003906 C 13.894531 187.003906 12.691406 209.125 15.851562 216.789062 C 19.007812 224.453125 29.125 233.195312 38.417969 231.382812 L 36.160156 243.71875 C 36.160156 243.71875 20.667969 241.980469 16.902344 237.402344 C 13.140625 232.820312 6.402344 222.898438 6.972656 213.03125 C 7.546875 203.167969 13.894531 192.089844 13.894531 187.003906 Z M 13.894531 187.003906 " fill-opacity="1" fill-rule="nonzero"/><path fill="#693724" d="M 140.636719 24.621094 C 140.636719 24.621094 82.769531 51.210938 87.9375 85.488281 C 90.078125 99.683594 184.980469 84.324219 266.328125 133.183594 L 217.582031 119.746094 C 217.582031 119.746094 198.1875 119.667969 172.523438 117.375 C 146.863281 115.085938 84.066406 120.09375 76.5 125.191406 C 60.460938 135.992188 60.863281 158.453125 68.703125 156.898438 C 88.136719 153.054688 143.824219 127.484375 195.972656 125.808594 C 195.972656 125.808594 81.832031 165.628906 46.039062 204.597656 C 46.039062 204.597656 30.261719 158.070312 55.789062 113.6875 C 55.792969 113.683594 63.46875 45.09375 140.636719 24.621094 Z M 140.636719 24.621094 " fill-opacity="1" fill-rule="nonzero"/><path fill="#693724" d="M 304.703125 123.890625 C 304.703125 123.890625 343.261719 114.375 381.210938 114.375 C 381.210938 114.375 326.214844 103.726562 289.855469 110.191406 C 289.855469 110.191406 297.363281 117.339844 304.703125 123.890625 Z M 304.703125 123.890625 " fill-opacity="1" fill-rule="nonzero"/><path fill="#693724" d="M 266.285156 88.179688 C 266.285156 88.179688 288.585938 98.367188 315.230469 99.472656 C 341.875 100.582031 358.613281 106.207031 373.921875 112.097656 C 373.921875 112.097656 313.238281 100.738281 289.097656 109.882812 Z M 266.285156 88.179688 " fill-opacity="1" fill-rule="nonzero"/><path fill="#ffffff" d="M 135.007812 28.277344 C 135.007812 28.277344 208.964844 40.804688 368.851562 181.554688 C 368.851562 181.554688 267.828125 86.753906 216.441406 53.855469 C 165.054688 20.953125 144.324219 18.960938 135.007812 28.277344 Z M 135.007812 28.277344 " fill-opacity="0.741" fill-rule="nonzero"/><path fill="#ffffff" d="M 156.234375 23.59375 C 156.234375 23.59375 227.351562 3.785156 275.15625 25.824219 C 275.15625 25.824219 356.5625 39.859375 378.191406 112.222656 C 378.191406 112.222656 396.566406 150.222656 396.566406 198.375 C 396.566406 198.375 407.703125 155.195312 387.378906 112.722656 C 387.378906 112.722656 370.972656 42.289062 298.25 25.082031 L 288 24.816406 C 288 24.816406 255.445312 0.542969 195.457031 9.992188 C 140.277344 18.679688 151.472656 22.695312 151.472656 22.695312 Z M 156.234375 23.59375 " fill-opacity="0.8" fill-rule="nonzero"/><path fill="#ffffff" d="M 406.632812 180.277344 C 406.632812 180.277344 419.335938 171.339844 419.335938 178.535156 C 419.335938 185.726562 421.480469 201.039062 426.554688 209.910156 C 431.632812 218.785156 428.601562 229.609375 423.816406 237.804688 C 423.816406 237.804688 440.835938 222.328125 434.777344 207.421875 C 428.71875 192.511719 425.199219 178.339844 434.777344 163.839844 C 434.777344 163.84375 419.53125 163.046875 406.632812 180.277344 Z M 406.632812 180.277344 " fill-opacity="0.678" fill-rule="nonzero"/><path fill="#693724" d="M 396.175781 202.941406 C 396.175781 202.941406 408.003906 233.824219 428.054688 233.824219 C 428.054688 233.824219 417.539062 243.285156 405.140625 244.28125 C 405.140625 244.28125 403.722656 220.894531 392.6875 220.125 Z M 396.175781 202.941406 " fill-opacity="1" fill-rule="nonzero"/><path fill="#a86b52" d="M 407.855469 452.308594 C 395.917969 474.3125 367.269531 480.722656 351.871094 480.21875 C 336.472656 479.707031 314.980469 471.230469 314.980469 471.230469 C 319.109375 501.765625 320.683594 562.820312 321.015625 577.820312 C 321.066406 580.003906 321.085938 581.210938 321.085938 581.210938 C 321.085938 581.210938 293.164062 590.613281 261.566406 597.355469 C 229.964844 604.101562 184.957031 607.984375 184.957031 607.984375 L 183.113281 593.078125 C 160.511719 594.605469 114.289062 582.121094 114.289062 582.121094 C 111.503906 558.792969 120.808594 471.78125 120.808594 471.78125 C 109.867188 476.640625 87.828125 482.789062 68.078125 478.277344 C 48.328125 473.765625 37.976562 462.746094 31.382812 446.597656 C 24.789062 430.453125 28.027344 412.152344 34.136719 394.300781 C 40.246094 376.449219 64.871094 346.902344 64.871094 346.902344 C 66.984375 348.816406 69.714844 350.769531 72.8125 352.695312 C 89.328125 362.957031 116.351562 372.535156 116.351562 372.535156 L 114.984375 384.453125 C 123.417969 380.28125 164.808594 377.320312 164.808594 377.320312 C 174.707031 381.199219 198.949219 383.125 198.949219 383.125 C 203.5 391.523438 215.304688 396.367188 215.304688 396.367188 L 220.738281 407.335938 L 226.691406 395.742188 C 234.898438 391.980469 239.222656 384.355469 239.222656 384.355469 C 252.550781 383.417969 279.121094 376.3125 279.121094 376.3125 C 289.644531 376.3125 326.183594 383.945312 326.183594 383.945312 L 324.859375 371.976562 C 354.84375 364.148438 375.09375 347.621094 375.09375 347.621094 C 375.09375 347.621094 395.917969 370.046875 406.273438 395.191406 C 416.625 420.339844 416.164062 437.003906 407.855469 452.308594 Z M 407.855469 452.308594 " fill-opacity="1" fill-rule="nonzero"/><path fill="#69321a" d="M 286.652344 378.464844 C 286.761719 379.753906 300.472656 528.957031 300.472656 584.257812 C 300.472656 585.25 300.84375 586.15625 301.453125 586.847656 C 302.890625 586.253906 304.320312 585.648438 305.742188 585.019531 C 306.585938 584.660156 307.472656 584.472656 308.324219 584.484375 C 308.328125 584.410156 308.335938 584.335938 308.335938 584.257812 C 308.335938 529.355469 294.699219 384.96875 294.320312 380.433594 C 292.132812 379.539062 286.546875 377.1875 286.652344 378.464844 Z M 286.652344 378.464844 " fill-opacity="1" fill-rule="nonzero"/><path fill="#69321a" d="M 272.804688 380.074219 C 270.09375 379.167969 267.964844 382.21875 265.253906 381.316406 C 267.207031 403.546875 279.777344 542.25 279.996094 594.171875 C 282.628906 593.449219 285.25 592.671875 287.84375 591.835938 C 287.332031 540.429688 275.371094 409.5 272.804688 380.074219 Z M 272.804688 380.074219 " fill-opacity="1" fill-rule="nonzero"/><path fill="#69321a" d="M 249.421875 393.78125 C 247.109375 395.847656 244.695312 397.832031 242.164062 399.625 C 244.621094 424.15625 256.449219 544.753906 257.433594 598.765625 C 260.042969 598.019531 262.652344 597.265625 265.253906 596.46875 C 263.851562 534.902344 249.695312 395.894531 249.546875 394.421875 C 249.523438 394.203125 249.476562 393.988281 249.421875 393.78125 Z M 249.421875 393.78125 " fill-opacity="1" fill-rule="nonzero"/><path fill="#69321a" d="M 221.425781 407.535156 C 223.144531 425.816406 234.503906 548.445312 235.171875 602.703125 C 237.78125 602.308594 240.398438 601.960938 243.023438 601.667969 C 242.21875 545.941406 230.699219 422.128906 229.195312 406.191406 C 226.707031 406.933594 224.121094 407.410156 221.425781 407.535156 Z M 221.425781 407.535156 " fill-opacity="1" fill-rule="nonzero"/><path fill="#69321a" d="M 207.550781 414.191406 C 205.023438 415.203125 202.5 416.210938 199.972656 417.222656 C 203.613281 450.226562 215.027344 557.226562 215.617188 606.027344 C 217.296875 605.816406 218.972656 605.605469 220.648438 605.394531 C 221.585938 605.1875 222.519531 604.984375 223.460938 604.792969 C 222.691406 553.933594 210.882812 444.25 207.550781 414.191406 Z M 207.550781 414.191406 " fill-opacity="1" fill-rule="nonzero"/><path fill="#69321a" d="M 188.253906 423.480469 C 182.6875 433.6875 181.316406 445.601562 184.402344 456.820312 C 184.832031 458.386719 184.484375 459.707031 183.722656 460.683594 C 187.679688 505.886719 192.925781 571.230469 193.765625 608.777344 C 196.378906 608.441406 198.992188 608.105469 201.609375 607.78125 C 200.402344 557.242188 191.550781 458.820312 188.253906 423.480469 Z M 188.253906 423.480469 " fill-opacity="1" fill-rule="nonzero"/><path fill="#69321a" d="M 171.15625 379.90625 C 169.101562 410.367188 161.25 536.867188 160.351562 591.453125 C 160.648438 591.472656 160.945312 591.519531 161.234375 591.601562 C 163.539062 592.261719 165.855469 592.769531 168.191406 593.140625 C 168.949219 539.671875 177.261719 412.347656 179.347656 381.363281 C 177.96875 382.039062 171.984375 380.804688 171.15625 379.90625 Z M 171.15625 379.90625 " fill-opacity="1" fill-rule="nonzero"/><path fill="#69321a" d="M 188.253906 389.695312 C 187.652344 398.789062 186.816406 411.589844 185.875 426.519531 C 188.65625 424.800781 191.390625 423.015625 194.09375 421.171875 C 194.652344 412.367188 195.164062 404.445312 195.605469 397.777344 C 192.703125 395.503906 190.203125 392.777344 188.253906 389.695312 Z M 188.253906 389.695312 " fill-opacity="1" fill-rule="nonzero"/><path fill="#69321a" d="M 153.089844 378.875 C 151.152344 404.621094 142.285156 538.476562 141.949219 590.136719 C 144.570312 590.320312 147.191406 590.5 149.8125 590.683594 C 150.109375 536.683594 160.03125 394.144531 161.191406 378.875 C 158.46875 379.757812 155.765625 377.859375 153.089844 378.875 Z M 153.089844 378.875 " fill-opacity="1" fill-rule="nonzero"/><path fill="#69321a" d="M 134.367188 400.84375 C 132.34375 427.871094 124.554688 534.554688 124.066406 585.578125 C 124.515625 585.757812 124.96875 585.941406 125.417969 586.109375 C 127.527344 586.890625 129.699219 587.515625 131.914062 587.917969 C 132.195312 534.546875 140.632812 395.761719 141.839844 379.902344 C 140.386719 378.644531 136.488281 394.8125 134.367188 400.84375 Z M 134.367188 400.84375 " fill-opacity="1" fill-rule="nonzero"/><path stroke-linecap="round" transform="matrix(0.357458, 0, 0, 0.357462, 4.360994, 4.053146)" fill="none" stroke-linejoin="round" d="M 411.538029 292.430837 C 252.77833 424.121124 116.508131 559.985809 116.508131 559.985809 C 116.508131 559.985809 308.401049 393.993324 605.321464 322.285444 " stroke="#1e0202" stroke-width="14" stroke-opacity="1" stroke-miterlimit="10"/><path stroke-linecap="round" transform="matrix(0.357458, 0, 0, 0.357462, 4.360994, 4.053146)" fill="none" stroke-linejoin="round" d="M 800.667581 291.534762 C 886.057744 285.677489 973.61162 290.310854 1068.891481 307.718756 C 1068.891481 307.718756 1031.71496 116.144413 829.844921 56.402417 C 782.614785 42.4149 698.962149 82.694578 605.168474 145.758609 " stroke="#1e0202" stroke-width="14" stroke-opacity="1" stroke-miterlimit="10"/><path fill="#ffffff" d="M 325.363281 70.398438 C 325.847656 70.78125 326.308594 71.1875 326.746094 71.613281 C 327.183594 72.039062 327.585938 72.480469 327.957031 72.933594 C 328.324219 73.386719 328.65625 73.84375 328.945312 74.304688 C 329.238281 74.765625 329.480469 75.222656 329.683594 75.675781 C 329.882812 76.128906 330.03125 76.566406 330.132812 76.992188 C 330.234375 77.417969 330.28125 77.824219 330.28125 78.207031 C 330.277344 78.589844 330.226562 78.945312 330.121094 79.269531 C 330.019531 79.597656 329.863281 79.886719 329.660156 80.144531 C 329.460938 80.398438 329.210938 80.617188 328.917969 80.792969 C 328.625 80.96875 328.292969 81.101562 327.917969 81.191406 C 327.546875 81.28125 327.140625 81.324219 326.703125 81.324219 C 326.265625 81.324219 325.800781 81.277344 325.316406 81.1875 C 324.832031 81.097656 324.328125 80.964844 323.8125 80.785156 C 323.296875 80.609375 322.777344 80.394531 322.25 80.136719 C 321.726562 79.878906 321.207031 79.585938 320.691406 79.261719 C 320.175781 78.933594 319.675781 78.578125 319.191406 78.195312 C 318.707031 77.8125 318.246094 77.40625 317.808594 76.980469 C 317.375 76.550781 316.96875 76.113281 316.601562 75.660156 C 316.230469 75.207031 315.898438 74.75 315.609375 74.289062 C 315.316406 73.828125 315.074219 73.371094 314.875 72.917969 C 314.675781 72.464844 314.523438 72.027344 314.421875 71.601562 C 314.320312 71.175781 314.273438 70.769531 314.273438 70.386719 C 314.277344 70.003906 314.328125 69.648438 314.433594 69.320312 C 314.539062 68.996094 314.691406 68.707031 314.894531 68.449219 C 315.097656 68.195312 315.34375 67.976562 315.636719 67.800781 C 315.929688 67.625 316.265625 67.492188 316.636719 67.402344 C 317.007812 67.3125 317.414062 67.269531 317.851562 67.269531 C 318.289062 67.269531 318.753906 67.316406 319.238281 67.40625 C 319.726562 67.496094 320.226562 67.628906 320.742188 67.808594 C 321.257812 67.984375 321.777344 68.199219 322.304688 68.457031 C 322.828125 68.714844 323.347656 69.007812 323.863281 69.332031 C 324.378906 69.660156 324.878906 70.015625 325.363281 70.398438 Z M 325.363281 70.398438 " fill-opacity="1" fill-rule="nonzero"/><path fill="#ffffff" d="M 132.898438 64.683594 C 133.054688 64.941406 133.167969 65.226562 133.238281 65.535156 C 133.308594 65.84375 133.332031 66.167969 133.308594 66.511719 C 133.285156 66.855469 133.21875 67.210938 133.105469 67.578125 C 132.992188 67.941406 132.835938 68.3125 132.636719 68.6875 C 132.4375 69.0625 132.195312 69.433594 131.917969 69.800781 C 131.640625 70.167969 131.328125 70.527344 130.980469 70.875 C 130.632812 71.222656 130.257812 71.550781 129.855469 71.867188 C 129.453125 72.179688 129.035156 72.472656 128.59375 72.738281 C 128.152344 73.007812 127.699219 73.246094 127.234375 73.460938 C 126.769531 73.671875 126.304688 73.851562 125.835938 74 C 125.367188 74.148438 124.90625 74.261719 124.453125 74.339844 C 123.996094 74.417969 123.558594 74.460938 123.132812 74.464844 C 122.710938 74.472656 122.308594 74.441406 121.933594 74.371094 C 121.554688 74.304688 121.210938 74.203125 120.894531 74.0625 C 120.578125 73.925781 120.300781 73.753906 120.058594 73.550781 C 119.816406 73.347656 119.617188 73.117188 119.457031 72.855469 C 119.300781 72.59375 119.1875 72.308594 119.117188 72.003906 C 119.046875 71.695312 119.023438 71.367188 119.046875 71.023438 C 119.066406 70.679688 119.136719 70.328125 119.25 69.960938 C 119.363281 69.59375 119.519531 69.226562 119.71875 68.851562 C 119.917969 68.476562 120.15625 68.105469 120.4375 67.738281 C 120.714844 67.371094 121.027344 67.011719 121.375 66.664062 C 121.722656 66.316406 122.097656 65.984375 122.5 65.671875 C 122.898438 65.359375 123.320312 65.066406 123.761719 64.796875 C 124.203125 64.53125 124.65625 64.289062 125.121094 64.078125 C 125.582031 63.863281 126.050781 63.683594 126.519531 63.535156 C 126.984375 63.390625 127.449219 63.277344 127.902344 63.199219 C 128.359375 63.117188 128.796875 63.078125 129.222656 63.070312 C 129.644531 63.066406 130.046875 63.097656 130.421875 63.164062 C 130.800781 63.234375 131.144531 63.335938 131.460938 63.472656 C 131.777344 63.613281 132.054688 63.78125 132.296875 63.988281 C 132.539062 64.191406 132.738281 64.421875 132.898438 64.683594 Z M 132.898438 64.683594 " fill-opacity="1" fill-rule="nonzero"/><path fill="#ffafa4" d="M 70.074219 287.464844 C 70.074219 287.464844 103.5625 374.117188 216.964844 375.003906 C 335.246094 375.003906 358.355469 303.554688 370.328125 286.625 C 370.328125 286.625 355.125 332.402344 325.792969 352.773438 C 296.457031 373.148438 269.957031 383.640625 218.015625 383.640625 C 166.078125 383.640625 132.554688 364.851562 121.085938 357.90625 C 109.617188 350.957031 72.660156 315.742188 70.074219 287.464844 Z M 70.074219 287.464844 " fill-opacity="1" fill-rule="nonzero"/><path fill="#ffafa4" d="M 375.40625 241.191406 C 375.40625 241.191406 387.25 232.957031 391.058594 244.9375 C 394.3125 255.171875 389.644531 262.5 384.886719 265.222656 C 380.128906 267.941406 373.199219 264.339844 373.199219 264.339844 C 373.199219 264.339844 376.351562 245.828125 375.40625 241.191406 Z M 375.40625 241.191406 " fill-opacity="1" fill-rule="nonzero"/><path fill="#ffafa4" d="M 62.976562 241.191406 C 62.976562 241.191406 51.132812 232.957031 47.324219 244.9375 C 44.070312 255.171875 48.738281 262.5 53.496094 265.222656 C 58.253906 267.941406 65.183594 264.339844 65.183594 264.339844 C 65.183594 264.339844 62.03125 245.828125 62.976562 241.191406 Z M 62.976562 241.191406 " fill-opacity="1" fill-rule="nonzero"/><path stroke-linecap="round" transform="matrix(0.357458, 0, 0, 0.357462, 4.360994, 4.053146)" fill="none" stroke-linejoin="round" d="M 602.185173 1126.666016 C 602.185173 1126.666016 621.560238 1096.887904 622.784157 1096.3743 C 641.05551 1088.517249 658.671192 1070.409971 663.184391 1064.39971 " stroke="#1e0202" stroke-width="14" stroke-opacity="1" stroke-miterlimit="10"/><path stroke-linecap="round" transform="matrix(0.357458, 0, 0, 0.357462, 4.360994, 4.053146)" fill="none" stroke-linejoin="round" d="M 604.436309 1126.666016 C 604.436309 1126.666016 591.333825 1098.144595 589.33403 1097.521713 C 566.505767 1090.298472 550.813385 1071.010997 541.196883 1062.203233 " stroke="#1e0202" stroke-width="14" stroke-opacity="1" stroke-miterlimit="10"/><path stroke-linecap="round" transform="matrix(0.357458, 0, 0, 0.357462, 4.360994, 4.053146)" fill="none" stroke-linejoin="round" d="M 601.944761 1129.485375 C 601.944761 1129.485375 665.107692 1133.277303 703.890606 1062.389005 " stroke="#1e0202" stroke-width="14" stroke-opacity="1" stroke-miterlimit="10"/><path stroke-linecap="round" transform="matrix(0.357458, 0, 0, 0.357462, 4.360994, 4.053146)" fill="none" stroke-linejoin="round" d="M 604.665794 1129.485375 C 604.665794 1129.485375 531.492959 1130.676499 502.730877 1062.389005 " stroke="#1e0202" stroke-width="14" stroke-opacity="1" stroke-miterlimit="10"/><path stroke-linecap="round" transform="matrix(0.357458, 0, 0, 0.357462, 4.360994, 4.053146)" fill="none" stroke-linejoin="round" d="M 1036.741767 607.248318 C 1037.932902 622.514381 1038.675996 638.501676 1038.763418 654.958864 C 1038.938264 682.813692 1037.244448 712.045417 1032.764033 741.539408 C 1030.064856 759.340709 1026.338461 777.240359 1021.377221 794.997949 C 1021.224231 795.555264 1021.082169 796.123507 1020.896395 796.658967 C 1018.874745 803.87128 1016.612681 811.061738 1014.153917 818.208485 C 1000.931227 856.521168 981.435955 893.631799 953.515317 927.016067 L 953.515317 927.026995 C 926.50169 959.340345 891.620016 988.145887 846.881428 1011.22529 C 685.619253 1094.396377 476.482198 1076.813631 342.965816 999.674661 C 292.774234 970.683347 255.925548 934.501575 229.239757 894.648079 C 208.334793 863.460287 193.691484 830.010452 183.736219 796.047013 C 183.473951 795.14001 183.222611 794.243934 182.938487 793.315076 C 177.944463 775.765113 174.174357 758.105873 171.431468 740.534055 C 166.874558 711.236764 165.158887 682.245449 165.366516 654.598248 C 165.486722 637.824155 166.295382 621.552739 167.595796 606.02441 " stroke="#1e0202" stroke-width="14" stroke-opacity="1" stroke-miterlimit="10"/><path stroke-linecap="round" transform="matrix(0.357458, 0, 0, 0.357462, 4.360994, 4.053146)" fill="none" stroke-linejoin="round" d="M 183.736219 796.047013 C 172.261985 800.855222 155.400323 798.068646 144.964233 792.484567 C 124.299683 781.469397 74.435936 741.43013 89.592854 653.265063 C 92.445021 636.578392 97.570179 624.776425 103.973895 616.60247 C 108.585445 610.712414 113.874521 606.712858 119.469576 604.13391 C 125.982571 601.128779 132.899895 600.025076 139.697013 600.134354 C 149.925474 600.254559 159.869811 603.06299 167.595796 606.035338 C 162.820328 663.242096 164.557855 730.644443 183.736219 796.047013 Z M 183.736219 796.047013 " stroke="#1e0202" stroke-width="14" stroke-opacity="1" stroke-miterlimit="10"/><path stroke-linecap="round" transform="matrix(0.357458, 0, 0, 0.357462, 4.360994, 4.053146)" fill="none" stroke-linejoin="round" d="M 1062.400342 792.484567 C 1051.253943 798.429262 1032.796816 801.20491 1021.377221 794.987021 C 1039.397233 730.393105 1041.156616 663.897761 1036.741767 607.23739 C 1044.78466 603.849788 1056.02941 600.254559 1067.645707 600.123426 C 1074.442825 600.025076 1081.371077 601.117851 1087.884071 604.122982 C 1093.468199 606.70193 1098.757275 610.712414 1103.379752 616.591542 C 1109.783468 624.765497 1114.886771 636.567464 1117.760793 653.254135 C 1132.906783 741.43013 1083.053965 781.469397 1062.400342 792.484567 Z M 1062.400342 792.484567 " stroke="#1e0202" stroke-width="14" stroke-opacity="1" stroke-miterlimit="10"/><path fill="#1e0202" d="M 183.242188 215.234375 C 187.285156 214.546875 188.128906 209.089844 184.546875 207.09375 C 177.945312 203.421875 159.074219 197.847656 147.269531 200.96875 C 132.300781 204.921875 120.785156 213.996094 120.785156 216.632812 C 120.785156 219.265625 127.375 217.289062 132.976562 213.996094 C 138.578125 210.707031 150.789062 207.675781 168.894531 211.363281 C 176.390625 212.890625 180.289062 215.738281 183.242188 215.234375 Z M 183.242188 215.234375 " fill-opacity="1" fill-rule="nonzero"/><path fill="#1e0202" d="M 258.417969 215.234375 C 254.378906 214.546875 253.53125 209.089844 257.113281 207.09375 C 263.714844 203.421875 282.589844 197.847656 294.390625 200.96875 C 309.359375 204.921875 320.875 213.996094 320.875 216.632812 C 320.875 219.265625 314.285156 217.289062 308.683594 213.996094 C 303.082031 210.703125 290.871094 207.675781 272.765625 211.363281 C 265.269531 212.890625 261.375 215.738281 258.417969 215.234375 Z M 258.417969 215.234375 " fill-opacity="1" fill-rule="nonzero"/><path fill="#1e0202" d="M 302.242188 252.609375 C 302.242188 253.460938 302.210938 254.308594 302.144531 255.152344 C 302.078125 256 301.980469 256.839844 301.851562 257.671875 C 301.722656 258.507812 301.5625 259.328125 301.371094 260.144531 C 301.175781 260.957031 300.953125 261.753906 300.699219 262.539062 C 300.445312 263.324219 300.160156 264.09375 299.847656 264.84375 C 299.535156 265.59375 299.195312 266.320312 298.828125 267.027344 C 298.457031 267.734375 298.0625 268.414062 297.640625 269.070312 C 297.222656 269.730469 296.777344 270.359375 296.304688 270.957031 C 295.835938 271.558594 295.347656 272.128906 294.832031 272.667969 C 294.320312 273.207031 293.789062 273.714844 293.234375 274.183594 C 292.683594 274.65625 292.117188 275.09375 291.53125 275.496094 C 290.945312 275.894531 290.34375 276.257812 289.730469 276.582031 C 289.121094 276.910156 288.496094 277.195312 287.859375 277.441406 C 287.226562 277.6875 286.582031 277.894531 285.929688 278.058594 C 285.28125 278.226562 284.625 278.351562 283.964844 278.433594 C 283.304688 278.515625 282.640625 278.558594 281.976562 278.558594 C 281.3125 278.558594 280.652344 278.515625 279.992188 278.433594 C 279.332031 278.351562 278.675781 278.226562 278.023438 278.058594 C 277.375 277.894531 276.730469 277.6875 276.09375 277.441406 C 275.460938 277.195312 274.835938 276.910156 274.222656 276.582031 C 273.609375 276.257812 273.011719 275.894531 272.425781 275.496094 C 271.839844 275.09375 271.269531 274.65625 270.71875 274.1875 C 270.167969 273.714844 269.636719 273.207031 269.121094 272.667969 C 268.609375 272.128906 268.117188 271.558594 267.648438 270.957031 C 267.179688 270.359375 266.734375 269.730469 266.3125 269.070312 C 265.890625 268.414062 265.496094 267.734375 265.128906 267.027344 C 264.757812 266.320312 264.417969 265.59375 264.105469 264.84375 C 263.792969 264.09375 263.507812 263.324219 263.253906 262.539062 C 263 261.753906 262.777344 260.957031 262.585938 260.144531 C 262.394531 259.328125 262.230469 258.507812 262.101562 257.671875 C 261.972656 256.839844 261.875 256 261.8125 255.152344 C 261.746094 254.308594 261.714844 253.460938 261.714844 252.609375 C 261.714844 251.761719 261.746094 250.914062 261.8125 250.066406 C 261.875 249.222656 261.972656 248.382812 262.101562 247.546875 C 262.230469 246.714844 262.394531 245.890625 262.585938 245.078125 C 262.777344 244.265625 263 243.464844 263.253906 242.679688 C 263.507812 241.894531 263.792969 241.128906 264.105469 240.378906 C 264.417969 239.628906 264.757812 238.902344 265.128906 238.195312 C 265.496094 237.488281 265.890625 236.804688 266.3125 236.148438 C 266.734375 235.492188 267.179688 234.863281 267.648438 234.261719 C 268.117188 233.660156 268.609375 233.089844 269.121094 232.550781 C 269.636719 232.011719 270.167969 231.507812 270.71875 231.035156 C 271.269531 230.5625 271.839844 230.125 272.425781 229.726562 C 273.011719 229.324219 273.609375 228.960938 274.222656 228.636719 C 274.835938 228.3125 275.460938 228.027344 276.09375 227.78125 C 276.730469 227.53125 277.375 227.328125 278.023438 227.160156 C 278.675781 226.996094 279.332031 226.871094 279.992188 226.789062 C 280.652344 226.703125 281.3125 226.664062 281.976562 226.664062 C 282.640625 226.664062 283.304688 226.703125 283.964844 226.789062 C 284.625 226.871094 285.28125 226.996094 285.929688 227.160156 C 286.582031 227.328125 287.226562 227.53125 287.859375 227.78125 C 288.496094 228.027344 289.121094 228.3125 289.730469 228.636719 C 290.34375 228.960938 290.945312 229.324219 291.53125 229.726562 C 292.117188 230.125 292.683594 230.5625 293.234375 231.035156 C 293.789062 231.507812 294.320312 232.011719 294.832031 232.550781 C 295.347656 233.089844 295.835938 233.660156 296.304688 234.261719 C 296.777344 234.863281 297.222656 235.492188 297.640625 236.148438 C 298.0625 236.804688 298.457031 237.488281 298.828125 238.195312 C 299.195312 238.902344 299.535156 239.628906 299.847656 240.378906 C 300.160156 241.128906 300.445312 241.894531 300.699219 242.679688 C 300.953125 243.464844 301.175781 244.265625 301.371094 245.078125 C 301.5625 245.890625 301.722656 246.714844 301.851562 247.546875 C 301.980469 248.382812 302.078125 249.222656 302.144531 250.066406 C 302.210938 250.914062 302.242188 251.761719 302.242188 252.609375 Z M 302.242188 252.609375 " fill-opacity="1" fill-rule="nonzero"/><path fill="#ffffff" d="M 297.296875 242.28125 C 297.296875 242.699219 297.261719 243.113281 297.195312 243.523438 C 297.125 243.933594 297.023438 244.328125 296.886719 244.714844 C 296.75 245.101562 296.582031 245.46875 296.386719 245.816406 C 296.1875 246.164062 295.960938 246.484375 295.710938 246.78125 C 295.460938 247.078125 295.1875 247.339844 294.890625 247.574219 C 294.59375 247.804688 294.28125 248 293.953125 248.160156 C 293.625 248.320312 293.285156 248.441406 292.9375 248.523438 C 292.585938 248.605469 292.234375 248.644531 291.878906 248.644531 C 291.523438 248.644531 291.171875 248.605469 290.820312 248.523438 C 290.472656 248.441406 290.132812 248.320312 289.804688 248.160156 C 289.476562 248 289.164062 247.804688 288.867188 247.574219 C 288.574219 247.339844 288.300781 247.078125 288.046875 246.78125 C 287.796875 246.484375 287.570312 246.164062 287.375 245.816406 C 287.175781 245.46875 287.007812 245.101562 286.871094 244.714844 C 286.738281 244.328125 286.632812 243.933594 286.5625 243.523438 C 286.496094 243.113281 286.460938 242.699219 286.460938 242.28125 C 286.460938 241.863281 286.496094 241.449219 286.5625 241.039062 C 286.632812 240.628906 286.738281 240.230469 286.871094 239.84375 C 287.007812 239.457031 287.175781 239.089844 287.375 238.742188 C 287.570312 238.394531 287.796875 238.074219 288.046875 237.777344 C 288.300781 237.484375 288.574219 237.21875 288.867188 236.988281 C 289.164062 236.753906 289.476562 236.558594 289.804688 236.398438 C 290.132812 236.238281 290.472656 236.117188 290.820312 236.035156 C 291.171875 235.953125 291.523438 235.914062 291.878906 235.914062 C 292.234375 235.914062 292.585938 235.953125 292.9375 236.035156 C 293.285156 236.117188 293.625 236.238281 293.953125 236.398438 C 294.28125 236.558594 294.59375 236.753906 294.890625 236.988281 C 295.1875 237.21875 295.460938 237.484375 295.710938 237.777344 C 295.960938 238.074219 296.1875 238.394531 296.386719 238.742188 C 296.582031 239.089844 296.75 239.457031 296.886719 239.84375 C 297.023438 240.230469 297.125 240.628906 297.195312 241.039062 C 297.261719 241.449219 297.296875 241.863281 297.296875 242.28125 Z M 297.296875 242.28125 " fill-opacity="1" fill-rule="nonzero"/><path fill="#f4a99d" d="M 238.039062 265.742188 C 238.039062 266.359375 237.929688 266.972656 237.710938 267.574219 C 237.488281 268.179688 237.164062 268.765625 236.734375 269.335938 C 236.304688 269.90625 235.777344 270.449219 235.152344 270.960938 C 234.527344 271.472656 233.816406 271.949219 233.019531 272.382812 C 232.222656 272.820312 231.359375 273.207031 230.421875 273.550781 C 229.488281 273.894531 228.5 274.183594 227.460938 274.417969 C 226.421875 274.65625 225.347656 274.832031 224.246094 274.953125 C 223.140625 275.074219 222.027344 275.132812 220.902344 275.132812 C 219.777344 275.132812 218.664062 275.074219 217.558594 274.953125 C 216.457031 274.832031 215.382812 274.65625 214.34375 274.417969 C 213.304688 274.183594 212.316406 273.894531 211.382812 273.550781 C 210.445312 273.207031 209.582031 272.820312 208.785156 272.382812 C 207.988281 271.949219 207.277344 271.472656 206.652344 270.960938 C 206.027344 270.449219 205.5 269.90625 205.070312 269.335938 C 204.640625 268.765625 204.3125 268.179688 204.09375 267.574219 C 203.875 266.972656 203.765625 266.359375 203.765625 265.742188 C 203.765625 265.128906 203.875 264.515625 204.09375 263.910156 C 204.3125 263.308594 204.640625 262.71875 205.070312 262.148438 C 205.5 261.582031 206.027344 261.039062 206.652344 260.527344 C 207.277344 260.015625 207.988281 259.539062 208.785156 259.101562 C 209.582031 258.667969 210.445312 258.277344 211.382812 257.9375 C 212.316406 257.59375 213.304688 257.304688 214.34375 257.066406 C 215.382812 256.832031 216.457031 256.652344 217.558594 256.535156 C 218.664062 256.414062 219.777344 256.351562 220.902344 256.351562 C 222.027344 256.351562 223.140625 256.414062 224.246094 256.535156 C 225.347656 256.652344 226.421875 256.832031 227.460938 257.066406 C 228.5 257.304688 229.488281 257.59375 230.421875 257.9375 C 231.359375 258.277344 232.222656 258.667969 233.019531 259.101562 C 233.816406 259.539062 234.527344 260.015625 235.152344 260.527344 C 235.777344 261.039062 236.304688 261.582031 236.734375 262.148438 C 237.164062 262.71875 237.488281 263.308594 237.710938 263.910156 C 237.929688 264.515625 238.039062 265.128906 238.039062 265.742188 Z M 238.039062 265.742188 " fill-opacity="1" fill-rule="nonzero"/><path fill="#ffafa4" d="M 341.859375 293.746094 C 341.859375 294.246094 341.820312 294.742188 341.746094 295.234375 C 341.671875 295.730469 341.558594 296.222656 341.410156 296.710938 C 341.257812 297.199219 341.074219 297.679688 340.851562 298.15625 C 340.628906 298.632812 340.367188 299.101562 340.074219 299.558594 C 339.78125 300.019531 339.453125 300.46875 339.09375 300.90625 C 338.730469 301.34375 338.335938 301.773438 337.910156 302.183594 C 337.484375 302.597656 337.027344 303 336.539062 303.382812 C 336.054688 303.765625 335.539062 304.136719 334.996094 304.488281 C 334.453125 304.839844 333.886719 305.171875 333.292969 305.488281 C 332.699219 305.804688 332.082031 306.097656 331.445312 306.375 C 330.808594 306.652344 330.148438 306.90625 329.472656 307.140625 C 328.796875 307.375 328.101562 307.589844 327.394531 307.78125 C 326.683594 307.96875 325.964844 308.136719 325.230469 308.28125 C 324.496094 308.425781 323.75 308.546875 323 308.644531 C 322.246094 308.742188 321.488281 308.8125 320.722656 308.863281 C 319.960938 308.910156 319.195312 308.9375 318.425781 308.9375 C 317.660156 308.9375 316.894531 308.910156 316.132812 308.863281 C 315.367188 308.8125 314.609375 308.742188 313.855469 308.644531 C 313.105469 308.546875 312.359375 308.425781 311.625 308.28125 C 310.890625 308.136719 310.167969 307.96875 309.460938 307.78125 C 308.75 307.589844 308.058594 307.375 307.382812 307.140625 C 306.707031 306.90625 306.046875 306.652344 305.410156 306.375 C 304.773438 306.097656 304.15625 305.804688 303.5625 305.488281 C 302.96875 305.171875 302.402344 304.839844 301.859375 304.488281 C 301.316406 304.136719 300.800781 303.765625 300.316406 303.382812 C 299.828125 303 299.371094 302.597656 298.945312 302.183594 C 298.519531 301.773438 298.125 301.34375 297.761719 300.90625 C 297.402344 300.46875 297.074219 300.019531 296.78125 299.558594 C 296.484375 299.101562 296.226562 298.632812 296.003906 298.15625 C 295.78125 297.679688 295.597656 297.199219 295.445312 296.710938 C 295.296875 296.222656 295.183594 295.730469 295.109375 295.234375 C 295.035156 294.742188 294.996094 294.246094 294.996094 293.746094 C 294.996094 293.25 295.035156 292.753906 295.109375 292.257812 C 295.183594 291.761719 295.296875 291.273438 295.445312 290.785156 C 295.597656 290.296875 295.78125 289.8125 296.003906 289.339844 C 296.226562 288.863281 296.484375 288.394531 296.78125 287.933594 C 297.074219 287.476562 297.402344 287.027344 297.761719 286.585938 C 298.125 286.148438 298.519531 285.722656 298.945312 285.308594 C 299.371094 284.894531 299.828125 284.496094 300.316406 284.113281 C 300.800781 283.726562 301.316406 283.359375 301.859375 283.007812 C 302.402344 282.65625 302.96875 282.320312 303.5625 282.007812 C 304.15625 281.691406 304.773438 281.394531 305.410156 281.117188 C 306.046875 280.84375 306.707031 280.585938 307.382812 280.351562 C 308.058594 280.117188 308.75 279.90625 309.460938 279.714844 C 310.167969 279.523438 310.890625 279.355469 311.625 279.210938 C 312.359375 279.066406 313.105469 278.949219 313.855469 278.851562 C 314.609375 278.753906 315.367188 278.679688 316.132812 278.632812 C 316.894531 278.582031 317.660156 278.558594 318.425781 278.558594 C 319.195312 278.558594 319.960938 278.582031 320.722656 278.632812 C 321.488281 278.679688 322.246094 278.753906 323 278.851562 C 323.75 278.949219 324.496094 279.066406 325.230469 279.210938 C 325.964844 279.355469 326.683594 279.523438 327.394531 279.714844 C 328.101562 279.90625 328.796875 280.117188 329.472656 280.351562 C 330.148438 280.585938 330.808594 280.84375 331.445312 281.117188 C 332.082031 281.394531 332.699219 281.691406 333.292969 282.007812 C 333.886719 282.320312 334.453125 282.65625 334.996094 283.007812 C 335.539062 283.359375 336.054688 283.726562 336.539062 284.113281 C 337.027344 284.496094 337.484375 284.894531 337.910156 285.308594 C 338.335938 285.722656 338.730469 286.148438 339.09375 286.585938 C 339.453125 287.027344 339.78125 287.476562 340.074219 287.933594 C 340.367188 288.394531 340.628906 288.863281 340.851562 289.339844 C 341.074219 289.8125 341.257812 290.296875 341.410156 290.785156 C 341.558594 291.273438 341.671875 291.761719 341.746094 292.257812 C 341.820312 292.753906 341.859375 293.25 341.859375 293.746094 Z M 341.859375 293.746094 " fill-opacity="1" fill-rule="nonzero"/><path fill="#1e0202" d="M 177.433594 252.609375 C 177.433594 253.460938 177.402344 254.308594 177.335938 255.152344 C 177.273438 256 177.175781 256.839844 177.046875 257.671875 C 176.917969 258.507812 176.753906 259.328125 176.5625 260.144531 C 176.371094 260.957031 176.148438 261.753906 175.894531 262.539062 C 175.640625 263.324219 175.355469 264.09375 175.042969 264.84375 C 174.730469 265.59375 174.390625 266.320312 174.019531 267.027344 C 173.652344 267.734375 173.257812 268.414062 172.835938 269.070312 C 172.414062 269.730469 171.96875 270.359375 171.5 270.957031 C 171.03125 271.558594 170.539062 272.128906 170.027344 272.667969 C 169.511719 273.207031 168.980469 273.714844 168.429688 274.183594 C 167.878906 274.65625 167.308594 275.09375 166.722656 275.496094 C 166.136719 275.894531 165.539062 276.257812 164.925781 276.582031 C 164.3125 276.910156 163.6875 277.195312 163.054688 277.441406 C 162.417969 277.6875 161.773438 277.894531 161.125 278.058594 C 160.472656 278.226562 159.816406 278.351562 159.15625 278.433594 C 158.496094 278.515625 157.835938 278.558594 157.171875 278.558594 C 156.507812 278.558594 155.84375 278.515625 155.183594 278.433594 C 154.523438 278.351562 153.867188 278.226562 153.21875 278.058594 C 152.566406 277.894531 151.921875 277.6875 151.289062 277.441406 C 150.652344 277.195312 150.027344 276.910156 149.417969 276.582031 C 148.804688 276.257812 148.203125 275.894531 147.617188 275.496094 C 147.03125 275.09375 146.464844 274.65625 145.914062 274.1875 C 145.359375 273.714844 144.828125 273.207031 144.316406 272.667969 C 143.800781 272.128906 143.3125 271.558594 142.84375 270.957031 C 142.371094 270.359375 141.925781 269.730469 141.507812 269.070312 C 141.085938 268.414062 140.691406 267.734375 140.320312 267.027344 C 139.953125 266.320312 139.613281 265.59375 139.300781 264.84375 C 138.988281 264.09375 138.703125 263.324219 138.449219 262.539062 C 138.195312 261.753906 137.972656 260.957031 137.777344 260.144531 C 137.585938 259.328125 137.425781 258.507812 137.296875 257.671875 C 137.167969 256.839844 137.070312 256 137.003906 255.152344 C 136.9375 254.308594 136.90625 253.460938 136.90625 252.609375 C 136.90625 251.761719 136.9375 250.914062 137.003906 250.066406 C 137.070312 249.222656 137.167969 248.382812 137.296875 247.546875 C 137.425781 246.714844 137.585938 245.890625 137.777344 245.078125 C 137.972656 244.265625 138.195312 243.464844 138.449219 242.679688 C 138.703125 241.894531 138.988281 241.128906 139.300781 240.378906 C 139.613281 239.628906 139.953125 238.902344 140.320312 238.195312 C 140.691406 237.488281 141.085938 236.804688 141.507812 236.148438 C 141.925781 235.492188 142.371094 234.863281 142.84375 234.261719 C 143.3125 233.660156 143.800781 233.089844 144.316406 232.550781 C 144.828125 232.011719 145.359375 231.507812 145.914062 231.035156 C 146.464844 230.5625 147.03125 230.125 147.617188 229.726562 C 148.203125 229.324219 148.804688 228.960938 149.417969 228.636719 C 150.027344 228.3125 150.652344 228.027344 151.289062 227.78125 C 151.921875 227.53125 152.566406 227.328125 153.21875 227.160156 C 153.867188 226.996094 154.523438 226.871094 155.183594 226.789062 C 155.84375 226.703125 156.507812 226.664062 157.171875 226.664062 C 157.835938 226.664062 158.496094 226.703125 159.15625 226.789062 C 159.816406 226.871094 160.472656 226.996094 161.125 227.160156 C 161.773438 227.328125 162.417969 227.53125 163.054688 227.78125 C 163.6875 228.027344 164.3125 228.3125 164.925781 228.636719 C 165.539062 228.960938 166.136719 229.324219 166.722656 229.726562 C 167.308594 230.125 167.878906 230.5625 168.429688 231.035156 C 168.980469 231.507812 169.511719 232.011719 170.027344 232.550781 C 170.539062 233.089844 171.03125 233.660156 171.5 234.261719 C 171.96875 234.863281 172.414062 235.492188 172.835938 236.148438 C 173.257812 236.804688 173.652344 237.488281 174.019531 238.195312 C 174.390625 238.902344 174.730469 239.628906 175.042969 240.378906 C 175.355469 241.128906 175.640625 241.894531 175.894531 242.679688 C 176.148438 243.464844 176.371094 244.265625 176.5625 245.078125 C 176.753906 245.890625 176.917969 246.714844 177.046875 247.546875 C 177.175781 248.382812 177.273438 249.222656 177.335938 250.066406 C 177.402344 250.914062 177.433594 251.761719 177.433594 252.609375 Z M 177.433594 252.609375 " fill-opacity="1" fill-rule="nonzero"/><path fill="#ffffff" d="M 152.6875 242.28125 C 152.6875 242.699219 152.652344 243.113281 152.585938 243.523438 C 152.515625 243.933594 152.410156 244.328125 152.277344 244.714844 C 152.140625 245.101562 151.972656 245.46875 151.773438 245.816406 C 151.578125 246.164062 151.351562 246.484375 151.101562 246.78125 C 150.847656 247.078125 150.574219 247.339844 150.28125 247.574219 C 149.984375 247.804688 149.671875 248 149.34375 248.160156 C 149.015625 248.320312 148.675781 248.441406 148.328125 248.523438 C 147.976562 248.605469 147.625 248.644531 147.269531 248.644531 C 146.914062 248.644531 146.5625 248.605469 146.210938 248.523438 C 145.863281 248.441406 145.523438 248.320312 145.195312 248.160156 C 144.867188 248 144.554688 247.804688 144.257812 247.574219 C 143.960938 247.339844 143.6875 247.078125 143.4375 246.78125 C 143.1875 246.484375 142.960938 246.164062 142.761719 245.816406 C 142.566406 245.46875 142.398438 245.101562 142.261719 244.714844 C 142.125 244.328125 142.023438 243.933594 141.953125 243.523438 C 141.886719 243.113281 141.851562 242.699219 141.851562 242.28125 C 141.851562 241.863281 141.886719 241.449219 141.953125 241.039062 C 142.023438 240.628906 142.125 240.230469 142.261719 239.84375 C 142.398438 239.457031 142.566406 239.089844 142.761719 238.742188 C 142.960938 238.394531 143.1875 238.074219 143.4375 237.777344 C 143.6875 237.484375 143.960938 237.21875 144.257812 236.988281 C 144.554688 236.753906 144.867188 236.558594 145.195312 236.398438 C 145.523438 236.238281 145.863281 236.117188 146.210938 236.035156 C 146.5625 235.953125 146.914062 235.914062 147.269531 235.914062 C 147.625 235.914062 147.976562 235.953125 148.328125 236.035156 C 148.675781 236.117188 149.015625 236.238281 149.34375 236.398438 C 149.671875 236.558594 149.984375 236.753906 150.28125 236.988281 C 150.574219 237.21875 150.847656 237.484375 151.101562 237.777344 C 151.351562 238.074219 151.578125 238.394531 151.773438 238.742188 C 151.972656 239.089844 152.140625 239.457031 152.277344 239.84375 C 152.410156 240.230469 152.515625 240.628906 152.585938 241.039062 C 152.652344 241.449219 152.6875 241.863281 152.6875 242.28125 Z M 152.6875 242.28125 " fill-opacity="1" fill-rule="nonzero"/><g mask="url(#0d156388f6)"><g transform="matrix(1, 0, 0, 1, 156, 253)"><g clip-path="url(#19e686def7)"><g clip-path="url(#8df1382d7f)"><path fill="#ffffff" d="M 126.625 9.507812 C 126.625 10.074219 126.578125 10.632812 126.484375 11.183594 C 126.390625 11.738281 126.25 12.277344 126.066406 12.796875 C 125.882812 13.320312 125.660156 13.8125 125.390625 14.28125 C 125.125 14.753906 124.820312 15.1875 124.480469 15.585938 C 124.140625 15.984375 123.773438 16.339844 123.371094 16.652344 C 122.972656 16.96875 122.550781 17.230469 122.109375 17.449219 C 121.664062 17.664062 121.207031 17.828125 120.734375 17.9375 C 120.261719 18.046875 119.789062 18.101562 119.308594 18.101562 C 118.828125 18.101562 118.351562 18.046875 117.878906 17.9375 C 117.410156 17.828125 116.949219 17.664062 116.507812 17.449219 C 116.0625 17.230469 115.640625 16.96875 115.242188 16.652344 C 114.84375 16.339844 114.472656 15.984375 114.132812 15.585938 C 113.792969 15.1875 113.492188 14.753906 113.222656 14.28125 C 112.957031 13.8125 112.730469 13.320312 112.546875 12.796875 C 112.363281 12.277344 112.222656 11.738281 112.128906 11.183594 C 112.035156 10.632812 111.988281 10.074219 111.988281 9.507812 C 111.988281 8.945312 112.035156 8.386719 112.128906 7.832031 C 112.222656 7.277344 112.363281 6.742188 112.546875 6.21875 C 112.730469 5.699219 112.957031 5.203125 113.222656 4.734375 C 113.492188 4.265625 113.792969 3.832031 114.132812 3.433594 C 114.472656 3.03125 114.84375 2.675781 115.242188 2.363281 C 115.640625 2.050781 116.0625 1.785156 116.507812 1.570312 C 116.949219 1.351562 117.410156 1.191406 117.878906 1.082031 C 118.351562 0.96875 118.828125 0.914062 119.308594 0.914062 C 119.789062 0.914062 120.261719 0.96875 120.734375 1.082031 C 121.207031 1.191406 121.664062 1.351562 122.109375 1.570312 C 122.550781 1.785156 122.972656 2.050781 123.371094 2.363281 C 123.773438 2.675781 124.140625 3.03125 124.480469 3.433594 C 124.820312 3.832031 125.125 4.265625 125.390625 4.734375 C 125.660156 5.203125 125.882812 5.699219 126.066406 6.21875 C 126.25 6.742188 126.390625 7.277344 126.484375 7.832031 C 126.578125 8.386719 126.625 8.945312 126.625 9.507812 Z M 126.625 9.507812 " fill-opacity="1" fill-rule="nonzero"/></g><g clip-path="url(#3b3ab78bec)"><path fill="#ffffff" d="M 15.160156 9.507812 C 15.160156 10.074219 15.113281 10.632812 15.019531 11.183594 C 14.925781 11.738281 14.785156 12.277344 14.601562 12.796875 C 14.417969 13.320312 14.191406 13.8125 13.925781 14.28125 C 13.65625 14.753906 13.355469 15.1875 13.015625 15.585938 C 12.675781 15.984375 12.304688 16.339844 11.90625 16.652344 C 11.507812 16.96875 11.085938 17.230469 10.640625 17.449219 C 10.199219 17.664062 9.738281 17.828125 9.269531 17.9375 C 8.796875 18.046875 8.320312 18.101562 7.839844 18.101562 C 7.359375 18.101562 6.886719 18.046875 6.414062 17.9375 C 5.941406 17.828125 5.484375 17.664062 5.039062 17.449219 C 4.597656 17.230469 4.175781 16.96875 3.777344 16.652344 C 3.375 16.339844 3.007812 15.984375 2.667969 15.585938 C 2.328125 15.1875 2.023438 14.753906 1.757812 14.28125 C 1.488281 13.8125 1.265625 13.320312 1.082031 12.796875 C 0.898438 12.277344 0.757812 11.738281 0.664062 11.183594 C 0.570312 10.632812 0.523438 10.074219 0.523438 9.507812 C 0.523438 8.945312 0.570312 8.386719 0.664062 7.832031 C 0.757812 7.277344 0.898438 6.742188 1.082031 6.21875 C 1.265625 5.699219 1.488281 5.203125 1.757812 4.734375 C 2.023438 4.265625 2.328125 3.832031 2.667969 3.433594 C 3.007812 3.03125 3.375 2.675781 3.777344 2.363281 C 4.175781 2.050781 4.597656 1.785156 5.039062 1.570312 C 5.484375 1.351562 5.941406 1.191406 6.414062 1.082031 C 6.886719 0.96875 7.359375 0.914062 7.839844 0.914062 C 8.320312 0.914062 8.796875 0.96875 9.269531 1.082031 C 9.738281 1.191406 10.199219 1.351562 10.640625 1.570312 C 11.085938 1.785156 11.507812 2.050781 11.90625 2.363281 C 12.304688 2.675781 12.675781 3.03125 13.015625 3.433594 C 13.355469 3.832031 13.65625 4.265625 13.925781 4.734375 C 14.191406 5.203125 14.417969 5.699219 14.601562 6.21875 C 14.785156 6.742188 14.925781 7.277344 15.019531 7.832031 C 15.113281 8.386719 15.160156 8.945312 15.160156 9.507812 Z M 15.160156 9.507812 " fill-opacity="1" fill-rule="nonzero"/></g></g></g></g><path fill="#ffafa4" d="M 144.152344 293.746094 C 144.152344 294.246094 144.113281 294.742188 144.039062 295.234375 C 143.964844 295.730469 143.851562 296.222656 143.703125 296.710938 C 143.550781 297.199219 143.367188 297.679688 143.144531 298.15625 C 142.921875 298.632812 142.664062 299.101562 142.367188 299.558594 C 142.074219 300.019531 141.746094 300.46875 141.386719 300.90625 C 141.023438 301.34375 140.628906 301.773438 140.203125 302.183594 C 139.777344 302.597656 139.320312 303 138.832031 303.382812 C 138.347656 303.765625 137.832031 304.136719 137.289062 304.488281 C 136.746094 304.839844 136.179688 305.171875 135.585938 305.488281 C 134.992188 305.804688 134.375 306.097656 133.738281 306.375 C 133.101562 306.652344 132.441406 306.90625 131.765625 307.140625 C 131.089844 307.375 130.398438 307.589844 129.6875 307.78125 C 128.980469 307.96875 128.257812 308.136719 127.523438 308.28125 C 126.789062 308.425781 126.042969 308.546875 125.292969 308.644531 C 124.539062 308.742188 123.78125 308.8125 123.015625 308.863281 C 122.253906 308.910156 121.488281 308.9375 120.722656 308.9375 C 119.953125 308.9375 119.1875 308.910156 118.425781 308.863281 C 117.660156 308.8125 116.902344 308.742188 116.148438 308.644531 C 115.398438 308.546875 114.652344 308.425781 113.917969 308.28125 C 113.183594 308.136719 112.464844 307.96875 111.753906 307.78125 C 111.046875 307.589844 110.351562 307.375 109.675781 307.140625 C 109 306.90625 108.339844 306.652344 107.703125 306.375 C 107.066406 306.097656 106.449219 305.804688 105.855469 305.488281 C 105.261719 305.171875 104.695312 304.839844 104.152344 304.488281 C 103.609375 304.136719 103.09375 303.765625 102.609375 303.382812 C 102.121094 303 101.664062 302.597656 101.238281 302.183594 C 100.8125 301.773438 100.417969 301.34375 100.054688 300.90625 C 99.695312 300.46875 99.367188 300.019531 99.074219 299.558594 C 98.78125 299.101562 98.519531 298.632812 98.296875 298.15625 C 98.074219 297.679688 97.890625 297.199219 97.738281 296.710938 C 97.589844 296.222656 97.476562 295.730469 97.402344 295.234375 C 97.328125 294.742188 97.289062 294.246094 97.289062 293.746094 C 97.289062 293.25 97.328125 292.753906 97.402344 292.257812 C 97.476562 291.761719 97.589844 291.273438 97.738281 290.785156 C 97.890625 290.296875 98.074219 289.8125 98.296875 289.339844 C 98.519531 288.863281 98.78125 288.394531 99.074219 287.933594 C 99.367188 287.476562 99.695312 287.027344 100.054688 286.585938 C 100.417969 286.148438 100.8125 285.722656 101.238281 285.308594 C 101.664062 284.894531 102.121094 284.496094 102.609375 284.113281 C 103.09375 283.726562 103.609375 283.359375 104.152344 283.007812 C 104.695312 282.65625 105.261719 282.320312 105.855469 282.007812 C 106.449219 281.691406 107.066406 281.394531 107.703125 281.117188 C 108.339844 280.84375 109 280.585938 109.675781 280.351562 C 110.351562 280.117188 111.046875 279.90625 111.753906 279.714844 C 112.464844 279.523438 113.183594 279.355469 113.917969 279.210938 C 114.652344 279.066406 115.398438 278.949219 116.148438 278.851562 C 116.902344 278.753906 117.660156 278.679688 118.425781 278.632812 C 119.1875 278.582031 119.953125 278.558594 120.722656 278.558594 C 121.488281 278.558594 122.253906 278.582031 123.015625 278.632812 C 123.78125 278.679688 124.539062 278.753906 125.292969 278.851562 C 126.042969 278.949219 126.789062 279.066406 127.523438 279.210938 C 128.257812 279.355469 128.980469 279.523438 129.6875 279.714844 C 130.398438 279.90625 131.089844 280.117188 131.765625 280.351562 C 132.441406 280.585938 133.101562 280.84375 133.738281 281.117188 C 134.375 281.394531 134.992188 281.691406 135.585938 282.007812 C 136.179688 282.320312 136.746094 282.65625 137.289062 283.007812 C 137.832031 283.359375 138.347656 283.726562 138.832031 284.113281 C 139.320312 284.496094 139.777344 284.894531 140.203125 285.308594 C 140.628906 285.722656 141.023438 286.148438 141.386719 286.585938 C 141.746094 287.027344 142.074219 287.476562 142.367188 287.933594 C 142.664062 288.394531 142.921875 288.863281 143.144531 289.339844 C 143.367188 289.8125 143.550781 290.296875 143.703125 290.785156 C 143.851562 291.273438 143.964844 291.761719 144.039062 292.257812 C 144.113281 292.753906 144.152344 293.25 144.152344 293.746094 Z M 144.152344 293.746094 " fill-opacity="1" fill-rule="nonzero"/><path fill="#cc5752" d="M 241.589844 305.582031 C 239.519531 311.910156 235.648438 318.140625 228.613281 322.246094 C 223.566406 325.195312 217.332031 325.109375 212.363281 322.03125 C 205.441406 317.734375 201.734375 311.402344 199.835938 305.023438 C 197.824219 298.261719 197.835938 291.445312 198.199219 286.921875 C 198.460938 283.667969 198.902344 281.601562 198.902344 281.601562 C 207.171875 285.542969 214.621094 287.058594 220.953125 287.289062 C 227.285156 287.230469 234.773438 285.914062 243.148438 282.195312 C 243.148438 282.195312 243.535156 284.292969 243.707031 287.582031 C 243.949219 292.109375 243.773438 298.902344 241.589844 305.582031 Z M 241.589844 305.582031 " fill-opacity="1" fill-rule="nonzero"/><path fill="#ffffff" d="M 243.710938 287.582031 C 216.980469 297.292969 198.203125 286.921875 198.203125 286.921875 C 198.464844 283.667969 198.90625 281.601562 198.90625 281.601562 C 207.175781 285.542969 214.625 287.058594 220.957031 287.289062 C 227.289062 287.230469 234.777344 285.914062 243.152344 282.195312 C 243.148438 282.195312 243.539062 284.292969 243.710938 287.582031 Z M 243.710938 287.582031 " fill-opacity="1" fill-rule="nonzero"/><path fill="#f98478" d="M 241.585938 305.582031 C 239.519531 311.910156 235.644531 318.140625 228.609375 322.246094 C 223.5625 325.195312 217.328125 325.109375 212.359375 322.03125 C 205.4375 317.734375 201.730469 311.402344 199.832031 305.023438 C 199.835938 305.023438 218.8125 294.015625 241.585938 305.582031 Z M 241.585938 305.582031 " fill-opacity="1" fill-rule="nonzero"/><path stroke-linecap="round" transform="matrix(0.357458, 0, 0, 0.357462, 4.360994, 4.053146)" fill="none" stroke-linejoin="round" d="M 663.654289 843.528076 C 657.862532 861.231027 647.03304 878.660784 627.351995 890.145847 C 613.233222 898.396297 595.792385 898.155886 581.892169 889.544821 C 562.528032 877.524299 552.157509 859.81042 546.846578 841.965408 C 541.218739 823.049477 541.251522 803.980557 542.267812 791.326226 C 542.999977 782.223412 544.234823 776.442633 544.234823 776.442633 C 567.369066 787.468731 588.208462 791.708697 605.922496 792.353434 C 623.636529 792.189518 644.585203 788.506867 668.014498 778.103651 C 668.014498 778.103651 669.096354 783.971852 669.577179 793.173015 C 670.254706 805.838274 669.762953 824.841628 663.654289 843.528076 Z M 663.654289 843.528076 " stroke="#1e0202" stroke-width="12" stroke-opacity="1" stroke-miterlimit="10"/><path stroke-linecap="round" transform="matrix(0.357458, 0, 0, 0.357462, 4.360994, 4.053146)" fill="none" stroke-linejoin="round" d="M 1093.828818 559.985809 C 1093.828818 559.985809 686.985233 208.035843 141.445468 307.718756 C 141.445468 307.718756 170.240334 118.570373 380.492028 56.402417 C 537.10987 10.079695 1093.828818 559.985809 1093.828818 559.985809 Z M 1093.828818 559.985809 " stroke="#1e0202" stroke-width="14" stroke-opacity="1" stroke-miterlimit="10"/><path stroke-linecap="round" transform="matrix(0.357458, 0, 0, 0.357462, 4.360994, 4.053146)" fill="none" stroke-linejoin="round" d="M 406.981119 53.615842 C 406.981119 53.615842 490.65561 6.998071 601.004966 6.998071 C 711.36525 6.998071 796.318299 52.326368 796.318299 52.326368 " stroke="#1e0202" stroke-width="14" stroke-opacity="1" stroke-miterlimit="10"/><path fill="#ffffff" d="M 216.558594 409.242188 C 216.558594 409.242188 195.738281 422.875 192.882812 436.441406 C 190.023438 450.007812 184.464844 549.203125 184.464844 568.726562 C 184.464844 568.726562 183.878906 445.269531 184.664062 426.660156 C 184.664062 426.660156 200.261719 414.492188 216.558594 409.242188 Z M 216.558594 409.242188 " fill-opacity="0.749" fill-rule="nonzero"/><path stroke-linecap="round" transform="matrix(0.357458, 0, 0, 0.357462, 4.360994, 4.053146)" fill="none" stroke-linejoin="round" d="M 1068.913336 307.095875 C 1068.913336 307.095875 1132.338536 415.378926 1095.347788 558.641696 " stroke="#1e0202" stroke-width="14" stroke-opacity="1" stroke-miterlimit="10"/><path stroke-linecap="round" transform="matrix(0.357458, 0, 0, 0.357462, 4.360994, 4.053146)" fill="none" stroke-linejoin="round" d="M 140.647736 308.571121 C 140.647736 308.571121 77.222536 416.854171 114.213284 560.106015 " stroke="#1e0202" stroke-width="14" stroke-opacity="1" stroke-miterlimit="10"/><path stroke-linecap="round" transform="matrix(0.357458, 0, 0, 0.357462, 4.360994, 4.053146)" fill="none" stroke-linejoin="round" d="M 570.177522 332.765154 C 570.177522 332.765154 580.854024 360.095451 602.851772 382.103934 C 602.851772 382.103934 626.521479 364.127789 636.454888 332.120417 " stroke="#1e0202" stroke-width="14" stroke-opacity="1" stroke-miterlimit="10"/><path stroke-linecap="round" transform="matrix(0.357458, 0, 0, 0.357462, 4.360994, 4.053146)" fill="none" stroke-linejoin="round" d="M 1093.457271 557.4615 C 1093.457271 557.4615 1097.216449 582.901296 1086.299534 600.39662 " stroke="#1e0202" stroke-width="14" stroke-opacity="1" stroke-miterlimit="10"/><path stroke-linecap="round" transform="matrix(0.357458, 0, 0, 0.357462, 4.360994, 4.053146)" fill="none" stroke-linejoin="round" d="M 968.180482 474.793089 C 968.180482 474.793089 980.987914 549.965065 1035.572488 610.767052 " stroke="#1e0202" stroke-width="14" stroke-opacity="1" stroke-miterlimit="10"/><path stroke-linecap="round" transform="matrix(0.357458, 0, 0, 0.357462, 4.360994, 4.053146)" fill="none" stroke-linejoin="round" d="M 112.869159 557.4615 C 112.869159 557.4615 109.109981 582.901296 120.026896 600.39662 " stroke="#1e0202" stroke-width="14" stroke-opacity="1" stroke-miterlimit="10"/><path stroke-linecap="round" transform="matrix(0.357458, 0, 0, 0.357462, 4.360994, 4.053146)" fill="none" stroke-linejoin="round" d="M 238.145948 474.793089 C 238.145948 474.793089 225.338517 549.965065 170.76487 610.767052 " stroke="#1e0202" stroke-width="14" stroke-opacity="1" stroke-miterlimit="10"/><path stroke-linecap="round" transform="matrix(0.357458, 0, 0, 0.357462, 4.360994, 4.053146)" fill="none" stroke-linejoin="round" d="M 1104.188413 512.286191 C 1104.188413 512.286191 1138.272354 457.997141 1204.025184 445.342809 C 1204.025184 445.342809 1175.044545 488.223291 1196.55054 544.89459 C 1221.247464 609.936544 1189.971978 665.220019 1122.470694 670.377915 " stroke="#1e0202" stroke-width="14" stroke-opacity="1" stroke-miterlimit="10"/><path fill="#ffffff" d="M 308.511719 442.203125 C 308.511719 442.203125 308.0625 525.820312 322.269531 566.585938 C 322.269531 566.585938 317.027344 466.632812 308.511719 442.203125 Z M 308.511719 442.203125 " fill-opacity="0.749" fill-rule="nonzero"/><path stroke-linecap="round" transform="matrix(0.357458, 0, 0, 0.357462, 4.360994, 4.053146)" fill="none" stroke-linejoin="round" d="M 103.941112 508.199214 C 103.941112 508.199214 74.108101 457.997141 8.355271 445.342809 C 8.355271 445.342809 37.346838 488.223291 15.840844 544.89459 C -8.856081 609.936544 19.272186 664.214666 86.773471 669.38349 " stroke="#1e0202" stroke-width="14" stroke-opacity="1" stroke-miterlimit="10"/><path fill="#ffffff" d="M 413.511719 423.765625 C 413.511719 427.203125 413.304688 430.910156 412.730469 434.75 L 411.261719 438.488281 C 410.277344 424.199219 403.378906 402.789062 396.539062 391.941406 C 389.703125 381.097656 380.070312 359.25 369.625 362.019531 C 358.183594 365.054688 336.699219 368.671875 336.699219 368.671875 L 336.667969 368.609375 C 355.734375 361.914062 376.535156 347.988281 376.535156 347.988281 C 398.222656 371.617188 413.511719 407.710938 413.511719 423.765625 Z M 413.511719 423.765625 " fill-opacity="0.788" fill-rule="nonzero"/><path fill="#d1c054" d="M 65.066406 347.050781 L 73.246094 345.445312 L 71.347656 352.015625 Z M 65.066406 347.050781 " fill-opacity="1" fill-rule="nonzero"/><path fill="#69321a" d="M 105.960938 369.691406 C 105.960938 369.691406 107.203125 367.042969 109.902344 363.410156 L 117.058594 372.027344 Z M 105.960938 369.691406 " fill-opacity="1" fill-rule="nonzero"/><path fill="#69321a" d="M 331.242188 362.675781 L 324.15625 372.164062 L 334.84375 368.082031 Z M 331.242188 362.675781 " fill-opacity="1" fill-rule="nonzero"/><path fill="#d1c054" d="M 367.996094 344.898438 L 369.320312 351.265625 L 375.925781 347.0625 Z M 367.996094 344.898438 " fill-opacity="1" fill-rule="nonzero"/><path fill="#ffe3cb" d="M 335.390625 367.914062 C 335.390625 367.914062 332.246094 361.59375 329.5 359.023438 C 326.753906 356.453125 315.550781 354.410156 313.5 350.355469 C 311.453125 346.300781 308.960938 339.304688 313.945312 337.242188 C 318.929688 335.179688 328.445312 339.960938 330.277344 338.242188 C 332.109375 336.527344 333.535156 330.277344 330.832031 328.800781 C 328.128906 327.324219 322.554688 329.585938 320.71875 330.800781 C 318.882812 332.011719 310.054688 335.253906 308.828125 330.691406 C 307.605469 326.128906 306.136719 318.375 313.5 312.800781 C 320.859375 307.222656 334.152344 305.601562 337.609375 306.132812 C 337.609375 306.132812 329.289062 281.5625 339.722656 277.355469 C 350.15625 273.148438 356.277344 301.132812 356.277344 301.132812 C 356.277344 301.132812 366.585938 276.980469 380.390625 283.910156 C 394.199219 290.835938 369.390625 311.578125 369.390625 311.578125 C 369.390625 311.578125 390.742188 309.546875 391.390625 316.246094 C 392.042969 322.945312 383.742188 324.636719 378.167969 325.800781 C 372.597656 326.964844 362.761719 336.089844 369.835938 351.691406 C 369.832031 351.691406 343.589844 368.882812 335.390625 367.914062 Z M 335.390625 367.914062 " fill-opacity="1" fill-rule="nonzero"/><path fill="#ffafa4" d="M 319.015625 337.183594 C 319.015625 337.183594 316.867188 346.03125 326.988281 349.527344 C 337.109375 353.023438 354.117188 354.300781 368.832031 343.738281 C 368.832031 343.738281 368.605469 348.925781 370.363281 352.042969 C 370.363281 352.042969 343.433594 366.789062 335.617188 368.320312 C 335.617188 368.320312 331.894531 361.355469 329.28125 359.582031 C 326.671875 357.804688 314.804688 353.414062 312.890625 349.859375 C 310.980469 346.292969 306.988281 336.230469 319.015625 337.183594 Z M 319.015625 337.183594 " fill-opacity="1" fill-rule="nonzero"/><path fill="#ffe3cb" d="M 105.695312 367.914062 C 105.695312 367.914062 108.839844 361.59375 111.585938 359.023438 C 114.332031 356.453125 125.535156 354.410156 127.585938 350.355469 C 129.632812 346.300781 132.125 339.304688 127.140625 337.242188 C 122.15625 335.179688 112.640625 339.960938 110.808594 338.242188 C 108.976562 336.527344 107.550781 330.277344 110.253906 328.800781 C 112.953125 327.324219 118.53125 329.585938 120.367188 330.800781 C 122.199219 332.011719 131.03125 335.253906 132.257812 330.691406 C 133.480469 326.128906 134.949219 318.375 127.585938 312.800781 C 120.226562 307.222656 106.933594 305.601562 103.476562 306.132812 C 103.476562 306.132812 111.796875 281.5625 101.363281 277.355469 C 90.929688 273.148438 84.808594 301.132812 84.808594 301.132812 C 84.808594 301.132812 74.5 276.980469 60.695312 283.910156 C 46.886719 290.835938 71.695312 311.578125 71.695312 311.578125 C 71.695312 311.578125 50.34375 309.546875 49.695312 316.246094 C 49.042969 322.945312 57.34375 324.636719 62.917969 325.800781 C 68.488281 326.964844 78.324219 336.089844 71.25 351.691406 C 71.25 351.691406 97.492188 368.882812 105.695312 367.914062 Z M 105.695312 367.914062 " fill-opacity="1" fill-rule="nonzero"/><path stroke-linecap="round" transform="matrix(0.357458, 0, 0, 0.357462, 4.360994, 4.053146)" fill="none" stroke-linejoin="round" d="M 895.007647 1030.217716 C 895.007647 1030.217716 899.564558 1016.284837 914.043949 1001.794644 " stroke="#1a1115" stroke-width="14" stroke-opacity="1" stroke-miterlimit="10"/><path stroke-linecap="round" transform="matrix(0.357458, 0, 0, 0.357462, 4.360994, 4.053146)" fill="none" stroke-linejoin="round" d="M 1040.632079 959.547972 C 1040.632079 959.547972 1030.152278 955.089451 1017.618043 954.521208 " stroke="#1a1115" stroke-width="14" stroke-opacity="1" stroke-miterlimit="10"/><path stroke-linecap="round" transform="matrix(0.357458, 0, 0, 0.357462, 4.360994, 4.053146)" fill="none" stroke-linejoin="round" d="M 923.71509 1017.180913 C 923.71509 1017.180913 910.251988 986.605075 896.351772 983.840355 C 882.451556 981.075635 849.536894 968.585219 859.087828 942.391408 C 870.540207 910.995989 918.54622 958.422414 918.54622 919.738188 C 918.54622 896.352808 893.084347 904.625113 883.598979 914.121325 C 874.113612 923.60661 849.209058 928.054203 849.209058 898.068464 C 849.209058 869.372199 883.69733 844.47879 932.588498 844.47879 C 932.588498 844.47879 909.858585 770.552578 939.757163 764.411183 C 969.655741 758.269789 986.462763 830.447562 986.462763 830.447562 C 986.462763 830.447562 1015.629175 765.635091 1046.948373 779.884874 C 1088.80201 798.931938 1022.174953 860.105469 1022.174953 860.105469 C 1022.174953 860.105469 1078.606333 841.932625 1082.485717 873.317116 C 1086.288606 904.133364 1040.752286 896.571363 1027.464029 907.706737 C 1014.962577 918.186447 1015.530825 955.515633 1020.01124 965.601944 " stroke="#1a1115" stroke-width="14" stroke-opacity="1" stroke-miterlimit="10"/><path fill="#ffafa4" d="M 71.496094 328.941406 C 71.496094 328.941406 92.960938 357.421875 113.558594 357.421875 C 113.558594 357.421875 106.285156 364.46875 105.671875 368.960938 L 71.640625 352.457031 C 71.640625 352.457031 77.164062 339.234375 71.496094 328.941406 Z M 71.496094 328.941406 " fill-opacity="1" fill-rule="nonzero"/><path stroke-linecap="round" transform="matrix(0.357458, 0, 0, 0.357462, 4.360994, 4.053146)" fill="none" stroke-linejoin="round" d="M 286.632787 1017.180913 C 286.632787 1017.180913 300.095889 986.605075 313.996105 983.840355 C 327.896321 981.075635 360.810983 968.585219 351.260048 942.391408 C 339.807669 910.995989 291.801656 958.422414 291.801656 919.738188 C 291.801656 896.352808 317.274458 904.625113 326.748897 914.121325 C 336.234265 923.60661 361.138818 928.054203 361.138818 898.068464 C 361.138818 869.372199 326.650547 844.47879 277.759378 844.47879 C 277.759378 844.47879 300.489291 770.552578 270.590713 764.411183 C 240.692136 758.269789 223.885114 830.447562 223.885114 830.447562 C 223.885114 830.447562 194.718701 765.635091 163.399504 779.884874 C 121.545866 798.931938 188.183851 860.105469 188.183851 860.105469 C 188.183851 860.105469 131.741544 841.932625 127.86216 873.317116 C 124.05927 904.133364 169.595591 896.571363 182.894776 907.706737 C 195.3853 918.186447 194.817052 955.515633 190.336636 965.601944 " stroke="#1a1115" stroke-width="14" stroke-opacity="1" stroke-miterlimit="10"/><path stroke-linecap="round" transform="matrix(0.357458, 0, 0, 0.357462, 4.360994, 4.053146)" fill="none" stroke-linejoin="round" d="M 450.113314 1046.172227 C 450.113314 1046.172227 377.148108 1047.920667 311.012804 1064.880531 " stroke="#1a1115" stroke-width="14" stroke-opacity="1" stroke-miterlimit="10"/><path stroke-linecap="round" transform="matrix(0.357458, 0, 0, 0.357462, 4.360994, 4.053146)" fill="none" stroke-linejoin="round" d="M 315.340229 1030.217716 C 315.340229 1030.217716 310.794247 1016.284837 296.314855 1001.794644 " stroke="#1a1115" stroke-width="14" stroke-opacity="1" stroke-miterlimit="10"/><path stroke-linecap="round" transform="matrix(0.357458, 0, 0, 0.357462, 4.360994, 4.053146)" fill="none" stroke-linejoin="round" d="M 169.715797 959.547972 C 169.715797 959.547972 180.195598 955.089451 192.729834 954.521208 " stroke="#1a1115" stroke-width="14" stroke-opacity="1" stroke-miterlimit="10"/><path fill="#69321a" d="M 327.464844 391.726562 C 317.125 389.707031 299.28125 388.355469 298.386719 388.289062 C 298.195312 388.273438 298.003906 388.28125 297.8125 388.296875 C 298.386719 390.832031 298.960938 393.371094 299.527344 395.910156 C 307.480469 396.554688 324.394531 398.207031 329.867188 400.027344 C 329.078125 397.257812 328.277344 394.492188 327.464844 391.726562 Z M 327.464844 391.726562 " fill-opacity="1" fill-rule="nonzero"/><path fill="#69321a" d="M 335.726562 420.402344 C 335.015625 418.015625 334.324219 415.625 333.636719 413.230469 C 322.578125 410.707031 305.34375 409.949219 304.566406 409.917969 C 303.914062 409.890625 303.296875 410.03125 302.75 410.300781 C 303.277344 412.675781 303.808594 415.046875 304.332031 417.421875 C 305.753906 417.484375 324.28125 418.371094 333.898438 421.035156 C 334.234375 421.128906 334.570312 421.171875 334.898438 421.171875 C 335.257812 421.171875 335.609375 421.117188 335.945312 421.019531 C 335.867188 420.824219 335.789062 420.621094 335.726562 420.402344 Z M 335.726562 420.402344 " fill-opacity="1" fill-rule="nonzero"/><path fill="#69321a" d="M 349.871094 440.191406 C 349.75 438.121094 347.964844 436.542969 345.902344 436.667969 C 328.027344 437.730469 310.929688 431.535156 310.757812 431.46875 C 309.644531 431.0625 308.464844 431.210938 307.523438 431.78125 C 308.042969 434.132812 308.566406 436.484375 309.085938 438.839844 C 312.71875 440.074219 326.269531 444.300781 341.632812 444.300781 C 343.1875 444.300781 344.765625 444.257812 346.34375 444.164062 C 348.414062 444.039062 349.992188 442.261719 349.871094 440.191406 Z M 349.871094 440.191406 " fill-opacity="1" fill-rule="nonzero"/><path stroke-linecap="round" transform="matrix(0.357458, 0, 0, 0.357462, 4.360994, 4.053146)" fill="none" stroke-linejoin="round" d="M 770.484879 1044.41286 C 770.484879 1044.41286 833.188841 1047.920667 899.335073 1064.891459 " stroke="#1a1115" stroke-width="14" stroke-opacity="1" stroke-miterlimit="10"/><path fill="#69321a" d="M 399.242188 429.84375 C 398.195312 397.113281 374.59375 359.882812 369.769531 352.597656 C 367.679688 353.980469 365.558594 355.3125 363.40625 356.59375 C 367.585938 362.945312 390.757812 399.476562 391.738281 430.082031 C 392.027344 439.089844 389.507812 446.410156 384.25 451.839844 C 374.4375 461.96875 358.078125 462.753906 353.292969 462.753906 C 333.269531 462.753906 315.042969 452.832031 314.859375 452.730469 C 313.984375 452.25 313 452.152344 312.105469 452.386719 C 312.726562 455.15625 313.347656 457.925781 313.96875 460.695312 C 320.140625 463.660156 335.84375 470.261719 353.289062 470.261719 C 357.777344 470.261719 364.652344 469.78125 371.945312 467.492188 C 379.175781 465.222656 385.132812 461.710938 389.640625 457.058594 C 396.367188 450.117188 399.59375 440.960938 399.242188 429.84375 Z M 399.242188 429.84375 " fill-opacity="1" fill-rule="nonzero"/><path fill="#69321a" d="M 371.792969 398.46875 C 366.40625 381.121094 358.085938 366.019531 355.238281 361.105469 C 353.007812 362.257812 350.75 363.355469 348.464844 364.394531 C 350.804688 368.421875 359.363281 383.699219 364.65625 400.808594 C 368.191406 412.238281 369.597656 422.199219 368.832031 430.429688 C 367.917969 440.269531 364.015625 447.335938 356.90625 452.023438 C 356.863281 452.050781 356.820312 452.085938 356.78125 452.117188 C 357.675781 452.867188 358.632812 453.550781 359.476562 454.367188 C 360.652344 455.496094 360.988281 457.054688 360.695312 458.492188 C 360.8125 458.429688 360.925781 458.367188 361.035156 458.289062 C 370.058594 452.339844 375.199219 443.175781 376.3125 431.0625 C 377.160156 421.832031 375.640625 410.867188 371.792969 398.46875 Z M 371.792969 398.46875 " fill-opacity="1" fill-rule="nonzero"/><path fill="#69321a" d="M 340.914062 367.59375 C 338.578125 368.515625 336.214844 369.367188 333.832031 370.171875 C 335.660156 374.089844 340.445312 384.796875 344.121094 397.070312 C 350.015625 416.746094 350.476562 431.453125 345.453125 439.601562 C 344.367188 441.367188 344.914062 443.679688 346.679688 444.765625 C 347.296875 445.144531 347.976562 445.324219 348.648438 445.324219 C 349.90625 445.324219 351.136719 444.691406 351.847656 443.542969 C 358.125 433.355469 357.933594 416.964844 351.285156 394.820312 C 347.609375 382.582031 343.003906 372.097656 340.914062 367.59375 Z M 340.914062 367.59375 " fill-opacity="1" fill-rule="nonzero"/><path fill="#69321a" d="M 138.59375 388.289062 C 137.820312 388.347656 124.289062 389.371094 113.96875 390.960938 C 113.457031 393.609375 112.875 396.234375 112.222656 398.847656 C 119.652344 397.523438 131.265625 396.410156 137.449219 395.90625 C 138.023438 393.367188 138.59375 390.832031 139.164062 388.292969 C 138.980469 388.28125 138.789062 388.273438 138.59375 388.289062 Z M 138.59375 388.289062 " fill-opacity="1" fill-rule="nonzero"/><path fill="#69321a" d="M 132.421875 409.917969 C 131.75 409.945312 118.863281 410.511719 108.234375 412.28125 C 107.273438 415.058594 106.230469 417.808594 105.113281 420.527344 C 115.089844 418.261719 131.328125 417.484375 132.652344 417.421875 C 133.179688 415.046875 133.707031 412.675781 134.238281 410.300781 C 133.691406 410.03125 133.070312 409.894531 132.421875 409.917969 Z M 132.421875 409.917969 " fill-opacity="1" fill-rule="nonzero"/><path fill="#69321a" d="M 97.300781 436.765625 C 95.886719 439.300781 94.410156 441.804688 92.855469 444.261719 C 93.695312 444.285156 94.527344 444.300781 95.355469 444.300781 C 110.71875 444.300781 124.269531 440.074219 127.902344 438.839844 C 128.425781 436.488281 128.945312 434.136719 129.46875 431.78125 C 128.523438 431.214844 112.726562 436.363281 97.300781 436.765625 Z M 97.300781 436.765625 " fill-opacity="1" fill-rule="nonzero"/><path fill="#69321a" d="M 37.742188 429.84375 C 38.792969 397.113281 64.3125 358.277344 69.140625 350.988281 C 71.230469 352.371094 72.324219 353.527344 74.480469 354.804688 C 70.300781 361.15625 46.226562 399.476562 45.246094 430.082031 C 44.957031 439.089844 47.476562 446.410156 52.734375 451.839844 C 62.546875 461.96875 78.910156 462.753906 83.691406 462.753906 C 103.714844 462.753906 121.945312 452.832031 122.125 452.730469 C 123 452.25 123.984375 452.152344 124.882812 452.386719 C 124.257812 455.15625 123.636719 457.925781 123.015625 460.695312 C 116.847656 463.660156 101.144531 470.261719 83.695312 470.261719 C 79.210938 470.261719 72.332031 469.78125 65.039062 467.492188 C 57.808594 465.222656 51.851562 461.710938 47.34375 457.058594 C 40.617188 450.117188 37.390625 440.960938 37.742188 429.84375 Z M 37.742188 429.84375 " fill-opacity="1" fill-rule="nonzero"/><path fill="#69321a" d="M 65.191406 398.46875 C 70.582031 381.121094 79.972656 364.769531 82.820312 359.855469 C 85.050781 361.007812 86.953125 361.746094 89.234375 362.789062 C 86.894531 366.8125 77.621094 383.699219 72.328125 400.808594 C 68.792969 412.238281 67.386719 422.199219 68.152344 430.429688 C 69.066406 440.269531 75.472656 449.480469 82.582031 454.167969 C 82.636719 454.203125 77.460938 455.847656 76.292969 458.492188 C 76.175781 458.429688 76.058594 458.367188 75.949219 458.289062 C 66.925781 452.339844 61.785156 443.175781 60.675781 431.0625 C 59.824219 421.832031 61.34375 410.867188 65.191406 398.46875 Z M 65.191406 398.46875 " fill-opacity="1" fill-rule="nonzero"/><path fill="#69321a" d="M 96.070312 367.59375 C 98.410156 368.515625 100.769531 369.367188 103.15625 370.171875 C 101.324219 374.089844 96.542969 384.796875 92.863281 397.070312 C 86.96875 416.746094 86.507812 431.453125 91.53125 439.601562 C 94.117188 443.796875 89.664062 449.503906 87.640625 446.222656 C 81.363281 436.039062 79.050781 416.964844 85.699219 394.820312 C 89.375 382.582031 93.984375 372.097656 96.070312 367.59375 Z M 96.070312 367.59375 " fill-opacity="1" fill-rule="nonzero"/><g clip-path="url(#8372f24375)"><path stroke-linecap="round" transform="matrix(0.357458, 0, 0, 0.357462, 4.360994, 4.053146)" fill="none" stroke-linejoin="round" d="M 601.955689 1128.73136 C 601.955689 1128.73136 539.306366 1152.728694 504.304486 1181.840213 C 504.304486 1181.840213 496.327161 1570.966377 504.304486 1689.849343 C 504.304486 1689.849343 704.12009 1678.440775 887.237951 1616.174469 C 887.237951 1616.174469 891.521665 1386.265587 852.968236 1222.9504 " stroke="#1e0202" stroke-width="14" stroke-opacity="1" stroke-miterlimit="10"/></g><path stroke-linecap="round" transform="matrix(0.357458, 0, 0, 0.357462, 4.360994, 4.053146)" fill="none" stroke-linejoin="round" d="M 1004.996384 1270.354969 C 1004.996384 1270.354969 923.704162 1236.664723 895.455689 1030.807814 C 895.455689 1030.807814 982.244616 1007.389651 1040.632079 959.537044 C 1040.632079 959.537044 1149.713806 1078.485577 1144.894627 1187.861402 C 1140.075448 1297.2263 1017.803816 1368.518925 870.124949 1304.230986 " stroke="#1a1115" stroke-width="14" stroke-opacity="1" stroke-miterlimit="10"/><path stroke-linecap="round" transform="matrix(0.357458, 0, 0, 0.357462, 4.360994, 4.053146)" fill="none" stroke-linejoin="round" d="M 205.351492 1270.354969 C 205.351492 1270.354969 286.654642 1236.664723 314.892188 1030.807814 C 314.892188 1030.807814 228.114189 1007.389651 169.715797 959.537044 C 169.715797 959.537044 60.644999 1078.485577 65.464178 1187.861402 C 70.283356 1297.2263 177.113947 1372.91188 324.792813 1308.623941 " stroke="#1a1115" stroke-width="14" stroke-opacity="1" stroke-miterlimit="10"/><path stroke-linecap="round" transform="matrix(0.357458, 0, 0, 0.357462, 4.360994, 4.053146)" fill="none" stroke-linejoin="round" d="M 500.064483 1647.79937 C 472.209412 1646.335052 363.138614 1636.095753 308.510328 1616.185397 C 308.510328 1616.185397 304.226613 1386.276515 342.780043 1222.961328 " stroke="#1e0202" stroke-width="14" stroke-opacity="1" stroke-miterlimit="10"/><path fill="#1e0202" d="M 321.085938 581.210938 C 321.085938 581.210938 293.164062 590.613281 261.566406 597.355469 C 229.964844 604.101562 184.957031 607.984375 184.957031 607.984375 L 183.113281 593.078125 C 160.511719 594.605469 114.289062 582.121094 114.289062 582.121094 C 111.503906 558.792969 120.808594 471.78125 120.808594 471.78125 C 109.867188 476.640625 87.828125 482.789062 68.078125 478.277344 C 48.328125 473.765625 37.976562 462.746094 31.382812 446.597656 C 24.789062 430.453125 28.027344 412.152344 34.136719 394.300781 C 40.246094 376.449219 64.871094 346.902344 64.871094 346.902344 C 66.984375 348.816406 69.714844 350.769531 72.8125 352.695312 L 73.445312 354.546875 C 73.445312 354.546875 37.160156 412.160156 40.941406 437.25 C 44.730469 462.339844 103.210938 483.6875 126.09375 442.367188 C 126.09375 442.367188 120.460938 568.378906 137.316406 573.648438 C 154.171875 578.914062 164.5 579.046875 168.898438 568.492188 C 173.300781 557.9375 174.21875 457.972656 184.207031 427.335938 C 184.207031 427.335938 182.179688 551.882812 184.914062 565.085938 C 187.597656 578.070312 284.777344 591.199219 320.351562 578.074219 C 320.574219 577.992188 320.796875 577.90625 321.015625 577.820312 C 321.066406 580.003906 321.085938 581.210938 321.085938 581.210938 Z M 321.085938 581.210938 " fill-opacity="0.349" fill-rule="nonzero"/><path fill="#1e0202" d="M 312.144531 454.269531 C 312.144531 454.269531 343.574219 472.957031 342.898438 458.09375 C 342.222656 443.230469 316.625 424.835938 326.125 373.921875 C 326.125 373.921875 340.292969 438.132812 369.460938 450.363281 C 377.703125 453.820312 398.585938 455.738281 407.351562 450.734375 C 407.351562 450.734375 402.207031 469.082031 372.480469 475.75 C 342.753906 482.414062 327.597656 475.804688 315.972656 470.597656 Z M 312.144531 454.269531 " fill-opacity="0.349" fill-rule="nonzero"/><g clip-path="url(#16cd7a7b47)"><g clip-path="url(#9c05db3dd2)"><path fill="#8f5037" d="M 264.960938 40.378906 L 296.25 40.378906 L 296.25 71.667969 L 264.960938 71.667969 Z M 264.960938 40.378906 " fill-opacity="1" fill-rule="nonzero"/></g></g></svg>