<svg xmlns="http://www.w3.org/2000/svg" xmlns:xlink="http://www.w3.org/1999/xlink" width="1211" zoomAndPan="magnify" viewBox="0 0 908.25 771.749977" height="1029" preserveAspectRatio="xMidYMid meet" version="1.0"><defs><clipPath id="e04c86734d"><path d="M 0 0.195312 L 907.5 0.195312 L 907.5 770.558594 L 0 770.558594 Z M 0 0.195312 " clip-rule="nonzero"/></clipPath><clipPath id="7e75bae6a0"><path d="M 511 769 L 524 769 L 524 770.558594 L 511 770.558594 Z M 511 769 " clip-rule="nonzero"/></clipPath><clipPath id="5c6bda1d5e"><path d="M 462.871094 328.5625 L 497.226562 328.5625 L 497.226562 362.917969 L 462.871094 362.917969 Z M 462.871094 328.5625 " clip-rule="nonzero"/></clipPath><clipPath id="fdfbf87904"><path d="M 480.050781 328.5625 C 470.5625 328.5625 462.871094 336.253906 462.871094 345.742188 C 462.871094 355.230469 470.5625 362.917969 480.050781 362.917969 C 489.535156 362.917969 497.226562 355.230469 497.226562 345.742188 C 497.226562 336.253906 489.535156 328.5625 480.050781 328.5625 Z M 480.050781 328.5625 " clip-rule="nonzero"/></clipPath></defs><path fill="#ffffff" d="M 155.097656 158.347656 L 159.121094 155.71875 C 157.734375 156.527344 156.394531 157.402344 155.097656 158.347656 Z M 155.097656 158.347656 " fill-opacity="1" fill-rule="nonzero"/><path fill="#ffffff" d="M 121.140625 170.726562 L 120.675781 172.273438 C 122.066406 170.726562 122.609375 170.03125 121.140625 170.726562 Z M 121.140625 170.726562 " fill-opacity="1" fill-rule="nonzero"/><path fill="#ffffff" d="M 68.847656 407.046875 C 68.847656 405.039062 68.847656 402.949219 68.847656 402.949219 C 68.847656 404.804688 68.847656 407.433594 68.460938 411.148438 C 68.65625 409.789062 68.789062 408.421875 68.847656 407.046875 Z M 68.847656 407.046875 " fill-opacity="1" fill-rule="nonzero"/><path fill="#ffffff" d="M 272.371094 9.828125 C 266.644531 9.828125 264.632812 10.601562 264.632812 11.140625 C 264.632812 11.683594 265.484375 12.378906 265.097656 13.152344 C 264.710938 13.925781 266.800781 12.222656 268.65625 11.449219 Z M 272.371094 9.828125 " fill-opacity="1" fill-rule="nonzero"/><path fill="#ffffff" d="M 872.726562 178.460938 C 873.113281 179.003906 873.65625 179.546875 874.042969 180.007812 C 874.429688 180.472656 874.121094 178.925781 872.726562 178.460938 Z M 872.726562 178.460938 " fill-opacity="1" fill-rule="nonzero"/><path fill="#ffffff" d="M 409.984375 710.4375 C 410.914062 710.980469 410.683594 710.824219 409.984375 710.4375 Z M 409.984375 710.4375 " fill-opacity="1" fill-rule="nonzero"/><path fill="#ffffff" d="M 573.285156 17.175781 C 573.285156 17.175781 573.746094 17.792969 573.902344 18.101562 C 578.621094 20.5 576.765625 19.1875 573.285156 17.175781 Z M 573.285156 17.175781 " fill-opacity="1" fill-rule="nonzero"/><path fill="#ffffff" d="M 150.921875 597.5 C 148.65625 598.375 146.464844 599.40625 144.347656 600.59375 C 142.308594 601.734375 140.347656 603 138.46875 604.382812 C 138.976562 604.15625 139.5 603.972656 140.035156 603.828125 C 140.574219 603.6875 141.121094 603.585938 141.675781 603.53125 C 142.226562 603.476562 142.78125 603.464844 143.339844 603.5 C 143.894531 603.53125 144.441406 603.609375 144.988281 603.730469 C 145.53125 603.851562 146.058594 604.015625 146.578125 604.222656 C 147.09375 604.425781 147.589844 604.671875 148.070312 604.957031 C 148.546875 605.242188 149 605.566406 149.425781 605.921875 C 149.851562 606.28125 150.246094 606.667969 150.613281 607.089844 C 150.859375 605.527344 151.011719 603.953125 151.074219 602.371094 C 151.113281 600.746094 151.0625 599.121094 150.921875 597.5 Z M 150.921875 597.5 " fill-opacity="1" fill-rule="nonzero"/><path fill="#ffffff" d="M 51.363281 558.203125 C 52.601562 559.75 53.996094 561.835938 55.542969 564.082031 C 53.609375 560.988281 53.066406 559.050781 51.363281 558.203125 Z M 51.363281 558.203125 " fill-opacity="1" fill-rule="nonzero"/><path fill="#ffffff" d="M 841.398438 159.355469 L 840.546875 158.8125 Z M 841.398438 159.355469 " fill-opacity="1" fill-rule="nonzero"/><path fill="#ffffff" d="M 140.941406 164.539062 L 142.566406 163.917969 Z M 140.941406 164.539062 " fill-opacity="1" fill-rule="nonzero"/><g clip-path="url(#e04c86734d)"><path fill="#ffffff" d="M 905.683594 264.558594 L 903.980469 266.027344 C 904.984375 257.132812 905.757812 255.199219 906.457031 250.558594 C 903.671875 245.453125 904.210938 251.871094 903.980469 258.292969 C 903.746094 264.714844 902.742188 271.058594 900.574219 266.027344 C 901.722656 263.753906 902.566406 261.375 903.105469 258.882812 C 903.640625 256.394531 903.855469 253.875 903.746094 251.332031 C 903.8125 243.792969 902.832031 236.390625 900.808594 229.128906 C 898.832031 222.046875 896.25 215.1875 893.074219 208.554688 C 890.683594 204.46875 889.136719 200.082031 888.429688 195.402344 C 883.945312 189.679688 883.789062 191.226562 883.789062 192.617188 C 883.789062 194.011719 883.789062 195.25 879.070312 190.066406 L 878.53125 187.976562 L 877.832031 185.964844 L 875.667969 186.199219 L 873.5 186.199219 C 867.003906 179.777344 864.449219 175.289062 865.148438 173.589844 C 866.925781 175.058594 870.71875 177.070312 872.882812 178.539062 C 867.703125 173.035156 861.671875 168.730469 854.78125 165.621094 C 848.980469 162.757812 843.796875 160.902344 841.554688 159.742188 L 846.273438 162.527344 L 851.765625 166.085938 C 847.511719 164.074219 843.253906 162.140625 838.921875 160.359375 L 834.128906 158.347656 C 833.238281 157.90625 832.410156 157.367188 831.652344 156.726562 C 830.878906 156.078125 830.246094 155.3125 829.753906 154.433594 C 829.261719 153.554688 828.941406 152.617188 828.789062 151.621094 C 828.714844 151.105469 828.714844 150.589844 828.789062 150.074219 C 828.742188 149.429688 828.742188 148.78125 828.789062 148.136719 C 828.789062 146.359375 828.789062 144.269531 828.789062 141.949219 C 828.789062 139.628906 828.789062 137.308594 828.789062 134.601562 C 828.773438 131.175781 828.359375 127.796875 827.550781 124.46875 C 826.128906 118.582031 823.78125 113.089844 820.511719 107.992188 C 819.121094 105.671875 817.652344 103.660156 816.101562 101.570312 C 814.5 99.453125 812.773438 97.441406 810.921875 95.535156 C 807.363281 91.703125 803.367188 88.402344 798.929688 85.636719 C 799.191406 86.113281 799.421875 86.601562 799.625 87.105469 L 800.246094 88.652344 C 795.769531 85.542969 791.128906 82.707031 786.320312 80.144531 L 777.425781 75.5 C 774.226562 73.882812 770.902344 72.59375 767.445312 71.632812 C 761.5 70.117188 755.464844 69.601562 749.34375 70.085938 L 750.507812 69.699219 C 742.628906 71.449219 734.890625 73.695312 727.300781 76.429688 C 730.78125 74.1875 726.914062 74.574219 723.199219 75.347656 C 719.484375 76.121094 716.082031 76.972656 720.722656 73.414062 C 715.890625 76.300781 711.535156 79.78125 707.652344 83.855469 C 706.128906 85.222656 704.96875 86.847656 704.167969 88.730469 C 704.121094 89.296875 704.121094 89.863281 704.167969 90.429688 C 704.054688 90.957031 703.898438 91.472656 703.707031 91.976562 C 703.386719 92.730469 702.976562 93.425781 702.46875 94.066406 C 701.476562 95.292969 700.367188 96.402344 699.140625 97.394531 L 696.976562 96.851562 L 694.886719 96.234375 C 693.214844 97.851562 691.359375 99.21875 689.316406 100.332031 C 685.625 101.980469 681.757812 102.777344 677.714844 102.730469 C 682.898438 101.648438 680.808594 100.640625 679.027344 99.636719 C 677.25 98.628906 675.933594 97.46875 681.039062 96 C 675.238281 94.839844 670.519531 93.757812 666.1875 92.675781 C 662.210938 91.800781 658.292969 90.714844 654.429688 89.425781 C 652.773438 89.074219 651.179688 88.523438 649.660156 87.78125 C 648.136719 87.035156 646.726562 86.117188 645.429688 85.023438 C 644.136719 83.929688 642.992188 82.695312 642.003906 81.320312 C 641.011719 79.945312 640.203125 78.46875 639.578125 76.894531 C 632.769531 75.65625 636.40625 80.21875 641.433594 84.628906 C 646.460938 89.039062 652.726562 91.667969 649.167969 90.664062 C 651.105469 93.0625 648.242188 92.984375 644.0625 91.4375 C 639.351562 89.652344 635.121094 87.074219 631.378906 83.699219 C 628.007812 79.734375 625.710938 75.222656 624.492188 70.164062 C 621.214844 62.675781 616.753906 55.96875 611.109375 50.050781 C 612.582031 51.753906 613.121094 51.519531 614.589844 53.222656 C 610.183594 45.488281 601.671875 42.238281 596.335938 32.257812 C 589.140625 30.710938 586.355469 21.738281 581.328125 24.523438 C 581.328125 24.523438 585.582031 28.160156 589.605469 32.257812 C 593.628906 36.359375 597.339844 39.996094 597.339844 39.996094 C 592.222656 35.972656 586.859375 32.3125 581.25 29.011719 C 574.144531 24.46875 567.519531 19.3125 561.371094 13.539062 C 565.492188 14.488281 569.359375 16.0625 572.972656 18.257812 C 569.183594 13.074219 563.074219 11.835938 558.585938 7.042969 C 560.828125 5.261719 566.941406 8.820312 573.59375 14.082031 C 579.921875 19.621094 586.546875 24.777344 593.472656 29.550781 C 590.554688 25.542969 586.996094 22.214844 582.796875 19.574219 C 578.851562 16.710938 576.300781 14.699219 580.941406 14.855469 C 577.796875 14.023438 574.839844 12.75 572.070312 11.035156 C 569.304688 9.320312 566.847656 7.242188 564.699219 4.796875 C 561.679688 2.136719 558.355469 -0.0664062 554.730469 -1.816406 C 551.105469 -3.5625 547.308594 -4.789062 543.347656 -5.488281 L 545.746094 -7.886719 C 542.960938 -8.660156 537.160156 -9.589844 532.363281 -11.292969 C 532.363281 -11.292969 534.839844 -11.292969 537.46875 -11.292969 C 540.097656 -11.292969 542.574219 -11.292969 542.574219 -11.292969 C 535.539062 -13.007812 528.757812 -15.429688 522.230469 -18.5625 C 518.835938 -20.101562 515.308594 -21.195312 511.640625 -21.851562 C 507.972656 -22.503906 504.285156 -22.699219 500.570312 -22.429688 C 505.453125 -22.554688 510.25 -21.960938 514.957031 -20.652344 C 517.125 -19.878906 517.355469 -19.257812 516.96875 -18.640625 C 516.582031 -18.023438 513.488281 -16.472656 519.289062 -14.078125 C 510.546875 -14.925781 504.59375 -14.925781 500.335938 -15.777344 C 496.820312 -16.277344 493.367188 -17.050781 489.972656 -18.097656 C 486.058594 -19.304688 482.058594 -19.71875 477.980469 -19.335938 C 474.667969 -19.019531 471.445312 -18.296875 468.3125 -17.171875 C 466.261719 -16.496094 464.277344 -15.671875 462.355469 -14.695312 C 460.886719 -14 459.339844 -13.226562 457.792969 -12.296875 C 460.75 -13.804688 463.84375 -14.941406 467.074219 -15.699219 C 470.863281 -16.398438 472.796875 -16.085938 468.777344 -13.765625 C 464.753906 -11.445312 460.652344 -10.828125 456.707031 -9.359375 C 453.503906 -8.019531 450.230469 -6.886719 446.882812 -5.953125 C 443.828125 -4.074219 441.121094 -1.777344 438.761719 0.929688 C 438.144531 1.78125 439.148438 1.625 440.617188 0.929688 C 443.480469 0.00390625 447.890625 -1.777344 444.101562 2.246094 C 434.816406 4.257812 435.125 11.0625 428.164062 18.953125 L 425.921875 16.554688 C 415.167969 24.988281 414.859375 27.925781 415.015625 30.09375 C 415.167969 32.257812 415.015625 34.347656 406.351562 41.773438 L 409.984375 31.484375 L 402.25 41.234375 L 401.320312 36.976562 C 399 41.019531 396.113281 44.601562 392.65625 47.730469 C 389.667969 50.125 386.34375 51.878906 382.679688 52.992188 C 384.070312 53.6875 384.535156 55.078125 383.453125 56.859375 C 382.550781 58.113281 381.421875 59.105469 380.066406 59.835938 C 378.707031 60.570312 377.257812 60.96875 375.71875 61.035156 L 374.480469 60.496094 C 373.320312 59.722656 374.015625 59.101562 373.859375 58.714844 C 373.707031 58.328125 373.859375 58.714844 372.933594 58.714844 C 371.46875 58.492188 370.027344 58.179688 368.601562 57.785156 C 371 56.9375 372.855469 55.464844 374.402344 55.929688 C 375.367188 56.167969 376.292969 56.5 377.1875 56.9375 C 377.1875 55.851562 378.886719 54.617188 378.964844 53.378906 C 377.417969 53.265625 375.871094 53.265625 374.324219 53.378906 C 373.023438 53.292969 371.734375 53.113281 370.457031 52.835938 C 368.734375 52.441406 367.085938 51.851562 365.507812 51.058594 C 366.804688 51.78125 368.019531 52.632812 369.140625 53.609375 C 368.289062 53.679688 367.441406 53.679688 366.589844 53.609375 C 364.410156 53.160156 362.269531 52.566406 360.167969 51.832031 C 355.140625 50.050781 349.417969 47.421875 349.417969 47.421875 C 346.863281 44.171875 350.035156 45.179688 353.050781 46.027344 C 350.933594 44.84375 348.742188 43.8125 346.476562 42.933594 C 343.644531 41.742188 340.886719 40.402344 338.199219 38.914062 C 341.214844 37.75 342.300781 34.96875 352.277344 40.074219 L 348.71875 38.292969 C 346.632812 37.210938 343.847656 35.894531 340.984375 34.582031 C 335.261719 31.949219 329.148438 29.707031 329.148438 29.707031 C 327.605469 27.484375 325.800781 25.5 323.734375 23.75 C 321.566406 21.894531 319.867188 20.425781 321.644531 20.65625 C 317.574219 18.675781 313.34375 17.136719 308.953125 16.042969 C 304.558594 14.945312 300.101562 14.320312 295.578125 14.160156 C 285.210938 13.308594 274.769531 14.160156 264.632812 14.160156 C 262.316406 15.160156 259.917969 15.90625 257.441406 16.402344 C 248.101562 17.234375 239.027344 19.246094 230.210938 22.433594 C 225.21875 24.25 220.550781 26.683594 216.207031 29.742188 C 211.863281 32.800781 207.996094 36.371094 204.605469 40.460938 L 202.59375 41.386719 C 201.355469 41.929688 199.734375 42.703125 198.183594 43.554688 C 195.980469 44.679688 193.839844 45.917969 191.765625 47.265625 C 186.273438 55.390625 190.449219 52.371094 193.542969 50.902344 C 195.089844 50.128906 196.40625 49.820312 196.25 50.902344 C 194.800781 54.722656 193.019531 58.382812 190.914062 61.886719 C 188.207031 67.222656 187.125 70.9375 186.195312 72.792969 C 185.265625 74.652344 184.570312 75.269531 183.875 75.191406 C 183.179688 75.113281 181.167969 73.027344 179.621094 77.433594 C 179.957031 85.042969 181.222656 92.496094 183.410156 99.792969 C 185.8125 107.339844 187.101562 115.078125 187.277344 122.996094 C 185.726562 118.371094 184.542969 113.652344 183.71875 108.84375 L 183.71875 121.683594 C 180.820312 116.300781 178.5 110.679688 176.757812 104.820312 C 175.597656 101.261719 174.980469 101.648438 174.359375 108.6875 C 176.679688 108.6875 178.539062 112.167969 180.160156 116.421875 C 181.046875 118.777344 181.796875 121.175781 182.40625 123.617188 C 182.695312 124.527344 182.902344 125.453125 183.023438 126.402344 C 183.0625 127.097656 183.0625 127.792969 183.023438 128.488281 C 183.074219 130.511719 182.945312 132.523438 182.636719 134.523438 C 182.402344 135.503906 182.386719 136.488281 182.589844 137.476562 C 182.792969 138.464844 183.195312 139.363281 183.796875 140.171875 C 182.171875 141.050781 180.496094 141.824219 178.769531 142.492188 C 180.007812 141.5625 179.773438 141.023438 180.859375 140.09375 C 179.96875 140.339844 179.132812 140.703125 178.347656 141.191406 C 177.566406 141.675781 176.863281 142.257812 176.246094 142.945312 C 175.628906 143.628906 175.121094 144.386719 174.722656 145.21875 C 174.324219 146.050781 174.046875 146.917969 173.894531 147.828125 C 173.4375 149.113281 172.835938 150.324219 172.085938 151.460938 C 171.339844 152.597656 170.46875 153.632812 169.472656 154.5625 C 168.476562 155.488281 167.382812 156.289062 166.195312 156.953125 C 165.007812 157.621094 163.757812 158.136719 162.445312 158.503906 C 156.257812 160.59375 151.460938 161.058594 155.175781 158.503906 C 155.175781 158.503906 152.082031 160.4375 148.832031 162.292969 L 142.179688 165.929688 C 138.621094 167.089844 138.46875 165.929688 141.019531 164.691406 L 131.503906 168.171875 L 120.367188 172.351562 C 117.582031 174.828125 110.929688 179.546875 107.601562 181.867188 C 101.335938 182.792969 110.230469 179.777344 108.296875 179.3125 L 102.339844 182.792969 L 96.695312 186.199219 C 90.507812 186.199219 100.253906 179.46875 109.304688 176.527344 C 108.121094 176.050781 106.894531 175.746094 105.625 175.609375 C 104.355469 175.476562 103.089844 175.515625 101.832031 175.734375 C 100.578125 175.953125 99.371094 176.339844 98.222656 176.898438 C 97.074219 177.453125 96.023438 178.152344 95.070312 179.003906 C 92.609375 180.882812 90.03125 182.585938 87.335938 184.109375 C 82.304688 186.6875 77.144531 188.980469 71.863281 190.992188 L 77.664062 186.894531 C 80.605469 184.960938 83.542969 183.179688 83.542969 183.179688 C 80.832031 183.171875 78.164062 183.519531 75.539062 184.214844 C 72.914062 184.90625 70.425781 185.929688 68.074219 187.28125 C 65.367188 188.671875 62.425781 190.296875 59.253906 192.230469 L 54.304688 195.25 L 49.121094 198.1875 C 50.125 198.1875 52.445312 196.871094 55.386719 195.636719 C 58.476562 194.308594 61.648438 193.226562 64.902344 192.386719 C 70.78125 190.917969 74.339844 191.304688 68.226562 196.640625 C 65.335938 198.046875 62.671875 199.800781 60.234375 201.898438 C 57.792969 203.996094 55.664062 206.367188 53.839844 209.015625 C 51.671875 206.621094 46.105469 212.730469 39.140625 220.464844 L 35.660156 217.140625 C 28.929688 226.5 31.328125 227.273438 28.777344 233.617188 C 27.925781 235.039062 26.941406 236.363281 25.832031 237.597656 C 24.722656 238.828125 23.503906 239.941406 22.179688 240.933594 C 20.851562 241.929688 19.441406 242.789062 17.949219 243.507812 C 16.457031 244.230469 14.910156 244.800781 13.304688 245.21875 C 7.660156 254.191406 10.753906 251.71875 13.304688 249.707031 C 14.699219 248.699219 16.089844 247.925781 16.476562 248.625 C 16.863281 249.320312 16.011719 251.640625 13.382812 257.132812 C 9.042969 263.878906 6.050781 271.175781 4.410156 279.023438 C 2.601562 288.089844 2.394531 297.191406 3.789062 306.332031 C 3.328125 312.597656 2.785156 312.210938 1.933594 310.664062 C 1.082031 309.117188 0.464844 306.410156 0 308.804688 C 0 308.804688 1.003906 311.667969 2.242188 314.453125 L 4.023438 318.476562 L 5.027344 320.332031 C 5.722656 323.347656 4.488281 322.730469 3.789062 322.34375 C 6.035156 327.449219 7.269531 327.0625 8.585938 327.605469 C 9.902344 328.144531 11.292969 329.382812 15.546875 335.339844 C 18.566406 335.726562 21.117188 342.609375 25.992188 349.960938 C 28.421875 353.75 31.179688 357.28125 34.269531 360.558594 C 37.101562 363.597656 40.402344 365.996094 44.171875 367.75 C 45.949219 371.15625 41.074219 368.449219 40.765625 370.460938 C 49.199219 376.027344 52.214844 378.660156 55.230469 380.824219 C 59.234375 383.773438 63.078125 386.921875 66.757812 390.261719 C 66.757812 390.261719 67.6875 393.511719 68.226562 396.605469 C 68.5625 398.65625 68.769531 400.71875 68.847656 402.792969 C 68.847656 398.152344 70.933594 397.921875 73.566406 400.550781 C 77.136719 404.765625 79.558594 409.5625 80.835938 414.9375 C 80.835938 414.320312 81.222656 413.777344 81.457031 413.238281 C 81.53125 414.679688 81.53125 416.125 81.457031 417.570312 C 81.457031 416.640625 81.457031 415.789062 80.835938 414.9375 L 79.910156 417.027344 C 80.449219 418.03125 80.835938 418.960938 81.300781 419.890625 C 80.972656 423.089844 80.457031 426.261719 79.753906 429.402344 C 78.515625 429.402344 77.585938 426.308594 76.660156 423.371094 C 77.820312 421.359375 78.902344 419.191406 79.910156 417.027344 C 77.355469 412.386719 73.953125 408.980469 71.554688 410.53125 C 72.421875 412.148438 72.910156 413.878906 73.023438 415.710938 C 72.328125 414.707031 71.707031 414.085938 71.246094 414.550781 C 70.78125 415.015625 71.863281 416.640625 72.714844 419.425781 C 71.890625 419.984375 71.039062 420.5 70.160156 420.972656 L 67.53125 422.441406 L 69.3125 423.601562 C 68.148438 427.074219 66.757812 430.453125 65.132812 433.734375 C 62.734375 438.839844 59.71875 444.101562 59.71875 444.101562 C 58.714844 453.539062 57.707031 462.359375 56.625 472.570312 C 55.542969 482.78125 54.148438 494.074219 53.144531 508.539062 C 50.667969 500.804688 47.652344 506.140625 43.550781 505.210938 C 46.257812 500 47.703125 494.453125 47.882812 488.582031 C 48.597656 481.027344 50.429688 473.757812 53.375 466.765625 C 49.972656 474.503906 48.8125 471.871094 48.890625 469.628906 C 48.890625 469.628906 47.265625 476.589844 46.179688 483.785156 C 45.097656 490.980469 44.632812 498.25 44.632812 498.25 C 41.460938 496.9375 40.765625 503.820312 38.753906 511.554688 C 42.390625 508.925781 42.777344 514.496094 43.398438 522.152344 C 43.628906 530.144531 45.148438 537.878906 47.960938 545.359375 C 46.953125 545.980469 45.640625 545.824219 44.324219 543.503906 C 42.144531 539.011719 41.085938 534.265625 41.152344 529.269531 C 40.789062 530.886719 40.621094 532.519531 40.648438 534.175781 C 40.675781 535.828125 40.898438 537.457031 41.316406 539.058594 C 41.730469 540.660156 42.332031 542.191406 43.117188 543.648438 C 43.898438 545.105469 44.84375 546.449219 45.949219 547.679688 C 50.398438 552.453125 53.625 557.945312 55.617188 564.15625 C 57.550781 567.019531 59.71875 570.113281 61.808594 572.667969 C 65.441406 577.230469 68.304688 580.402344 65.597656 579.628906 L 64.128906 578.3125 L 62.660156 577 C 68.207031 582.710938 74.679688 587.042969 82.074219 589.996094 C 89.84375 593.007812 97.886719 594.707031 106.210938 595.101562 C 112.398438 595.535156 118.585938 595.535156 124.773438 595.101562 C 129.570312 595.101562 132.511719 594.09375 133.75 592.855469 C 132.546875 595.703125 130.921875 598.28125 128.875 600.59375 C 128.875 600.59375 131.117188 599.664062 134.597656 598.425781 C 138.863281 596.867188 143.25 595.785156 147.75 595.179688 C 150.328125 594.945312 152.90625 594.945312 155.484375 595.179688 C 159.035156 597.292969 162.207031 599.871094 165 602.914062 C 164.265625 604.261719 163.441406 605.550781 162.523438 606.78125 C 161.957031 607.539062 161.273438 608.171875 160.472656 608.675781 C 159.675781 609.183594 158.808594 609.53125 157.882812 609.71875 C 155.464844 610 153.167969 609.585938 151 608.484375 L 161.597656 619.390625 C 161.453125 617.457031 161.867188 615.652344 162.832031 613.976562 C 163.683594 612.195312 165.078125 611.035156 166.390625 612.738281 C 167.164062 619.082031 167.011719 621.167969 167.320312 623.488281 C 167.84375 627.617188 167.84375 631.742188 167.320312 635.867188 C 167.320312 633.546875 169.410156 633.082031 171.808594 634.242188 C 172.53125 634.628906 173.199219 635.09375 173.8125 635.640625 C 174.425781 636.183594 174.96875 636.792969 175.4375 637.464844 C 175.910156 638.136719 176.296875 638.851562 176.597656 639.617188 C 176.898438 640.378906 177.105469 641.164062 177.222656 641.976562 C 175.90625 640.972656 169.488281 643.835938 168.558594 641.203125 C 168.558594 641.203125 171.265625 645.457031 173.742188 650.175781 C 175.597656 653.660156 177.300781 657.292969 178.074219 658.917969 C 176.0625 655.515625 171.960938 659.769531 170.335938 664.101562 C 171.035156 663.019531 171.34375 667.351562 171.652344 672.765625 C 171.855469 677.777344 172.398438 682.753906 173.277344 687.695312 L 173.277344 683.054688 C 173.277344 680.734375 173.664062 678.488281 173.664062 678.488281 C 173.675781 680.59375 173.863281 682.679688 174.234375 684.75 C 174.605469 686.824219 175.148438 688.847656 175.867188 690.824219 C 176.585938 692.800781 177.46875 694.703125 178.511719 696.527344 C 179.558594 698.355469 180.753906 700.078125 182.09375 701.695312 C 184.105469 704.328125 186.351562 706.878906 188.59375 709.972656 C 190.835938 713.066406 193.15625 716.859375 196.328125 721.964844 C 195.316406 721.460938 194.25 721.207031 193.117188 721.207031 C 191.988281 721.207031 190.917969 721.460938 189.910156 721.964844 C 187.972656 723.125 186.8125 726.21875 190.371094 732.175781 C 196.945312 734.753906 203.699219 736.6875 210.640625 737.976562 L 212.574219 737.976562 C 219.3125 743.5 226.761719 747.78125 234.929688 750.816406 C 233.277344 750.933594 231.628906 750.933594 229.980469 750.816406 C 224.257812 750.859375 218.636719 750.136719 213.113281 748.652344 C 208.039062 747.355469 203.214844 745.421875 198.648438 742.851562 C 200.148438 744.863281 201.488281 746.980469 202.671875 749.191406 C 205.148438 752.121094 208.089844 754.464844 211.492188 756.234375 C 213.269531 758.554688 211.027344 758.167969 207.777344 756.234375 C 204.527344 754.632812 201.511719 752.671875 198.726562 750.355469 C 198.726562 750.355469 200.507812 752.054688 203.214844 754.296875 C 206.566406 757.121094 210.101562 759.699219 213.8125 762.035156 C 219.160156 765.292969 224.757812 768.050781 230.597656 770.3125 C 230.597656 767.914062 237.558594 769.152344 244.445312 769.460938 C 251.328125 769.769531 257.980469 769.460938 257.515625 767.605469 C 251.21875 767.78125 244.953125 767.421875 238.71875 766.519531 C 234.328125 765.867188 229.996094 764.941406 225.722656 763.734375 C 222.164062 762.730469 219.84375 761.878906 219.84375 761.878906 C 219.84375 759.402344 226.574219 759.328125 235.316406 759.558594 C 244.058594 759.789062 254.964844 760.101562 266.257812 760.640625 C 269.121094 761.570312 268.113281 763.582031 266.257812 765.59375 C 264.402344 767.605469 261.773438 769.304688 262.003906 770.078125 C 263.628906 769.460938 269.738281 768.917969 275 768.066406 C 278.980469 767.253906 283.003906 766.789062 287.066406 766.675781 L 282.195312 768.6875 L 277.164062 770.464844 C 280.234375 770.425781 283.253906 769.996094 286.214844 769.183594 C 289.175781 768.371094 291.984375 767.199219 294.648438 765.671875 C 300.457031 762.527344 306.644531 760.617188 313.214844 759.945312 C 318.242188 758.398438 330 759.09375 329.691406 756.308594 C 328.179688 755.96875 326.730469 755.453125 325.347656 754.761719 C 323.960938 754.070312 322.679688 753.222656 321.5 752.21875 C 320.320312 751.214844 319.277344 750.082031 318.375 748.824219 C 317.46875 747.570312 316.730469 746.222656 316.152344 744.785156 C 321.335938 742.539062 326.441406 740.144531 331.625 737.667969 L 331.625 739.601562 L 334.488281 738.054688 L 333.636719 736.585938 L 349.105469 728.847656 C 352.355469 731.480469 341.371094 742.386719 348.023438 742.386719 C 348.023438 741.148438 351.039062 737.746094 352.433594 736.507812 C 357.460938 735.191406 352.433594 740.839844 361.949219 735.5 C 361.5625 730.394531 382.214844 726.761719 364.964844 729.777344 C 368.140625 727.695312 371.570312 726.203125 375.253906 725.289062 C 378.191406 724.515625 381.441406 723.820312 387.164062 721.886719 C 384.921875 721.035156 386.703125 717.785156 390.648438 714.152344 C 392.074219 712.976562 393.570312 711.894531 395.132812 710.902344 L 397.53125 710.4375 C 401.390625 709.6875 405.285156 709.195312 409.210938 708.96875 L 409.910156 708.96875 C 419.425781 708.660156 428.757812 709.820312 437.910156 712.449219 C 445.648438 714.613281 453.382812 717.324219 463.4375 720.957031 C 464.910156 722.660156 473.570312 727.6875 468.851562 727.921875 C 473.042969 727.988281 477.0625 728.839844 480.921875 730.472656 C 485.640625 734.882812 482.390625 733.488281 478.753906 732.097656 C 475.121094 730.707031 471.019531 729.390625 474.34375 733.414062 C 476.125 731.167969 490.746094 736.894531 499.640625 739.753906 C 499.097656 734.726562 481 729.390625 472.023438 727.535156 C 472.796875 725.675781 475.351562 724.59375 479.21875 724.285156 C 498.25 732.792969 516.503906 743.3125 533.988281 752.210938 L 539.402344 754.917969 C 547.847656 760.039062 556.640625 764.476562 565.78125 768.222656 C 580.402344 774.644531 597.417969 780.675781 609.410156 785.394531 C 612.632812 785.785156 615.855469 785.785156 619.078125 785.394531 C 626.023438 787.265625 633.058594 788.65625 640.191406 789.566406 C 647.324219 790.476562 654.488281 790.898438 661.675781 790.832031 C 668.867188 790.765625 676.019531 790.214844 683.136719 789.175781 C 690.25 788.132812 697.261719 786.617188 704.167969 784.621094 C 704.109375 784.898438 704.128906 785.171875 704.226562 785.433594 C 704.328125 785.699219 704.488281 785.917969 704.710938 786.09375 L 710.359375 783.074219 L 714.765625 780.523438 L 715.773438 780.058594 C 715.773438 780.910156 712.832031 783.382812 715.773438 782.609375 C 715.773438 781.605469 716.933594 780.136719 718.945312 778.355469 C 724.34375 775.609375 729.503906 772.464844 734.414062 768.917969 L 735.265625 768.917969 L 735.886719 768.144531 L 739.519531 765.4375 C 742.152344 763.195312 744.703125 760.875 747.257812 758.554688 L 749.035156 757.238281 C 749.777344 756.164062 750.601562 755.15625 751.511719 754.222656 C 754.375 751.1875 757.066406 748.007812 759.582031 744.679688 C 762.101562 741.351562 764.429688 737.894531 766.566406 734.3125 C 768.707031 730.730469 770.644531 727.039062 772.378906 723.246094 C 774.117188 719.453125 775.640625 715.574219 776.953125 711.613281 C 778.265625 707.652344 779.359375 703.632812 780.230469 699.550781 C 781.105469 695.472656 781.753906 691.355469 782.175781 687.207031 C 782.601562 683.054688 782.796875 678.894531 782.765625 674.71875 C 782.734375 670.546875 782.476562 666.390625 781.988281 662.246094 C 778.816406 637.570312 784.851562 620.085938 807.128906 607.632812 C 823.917969 598.273438 840.472656 592.160156 854.316406 578.546875 C 874.042969 558.898438 885.261719 533.988281 871.800781 507.765625 C 859.421875 483.320312 833.585938 468.160156 825.386719 441.316406 C 824.066406 437.03125 823.292969 432.648438 823.070312 428.171875 C 822.847656 423.691406 823.183594 419.257812 824.070312 414.863281 C 827.628906 410.605469 831.808594 407.125 834.359375 408.363281 C 833.277344 401.867188 838.304688 395.058594 844.027344 388.019531 C 847.441406 384.523438 850.386719 380.671875 852.859375 376.457031 C 855.332031 372.242188 857.261719 367.792969 858.648438 363.109375 C 862.285156 360.015625 858.648438 367.519531 860.894531 366.28125 C 861.636719 362.328125 862.96875 358.582031 864.882812 355.039062 C 866.796875 351.5 869.207031 348.339844 872.109375 345.550781 L 872.109375 347.019531 C 876.597656 339.902344 880.617188 333.636719 884.253906 327.449219 C 887.890625 321.261719 890.828125 315.613281 893.691406 309.578125 C 896.679688 303.136719 899.257812 296.539062 901.425781 289.777344 C 904.304688 281.089844 906.214844 272.195312 907.152344 263.089844 Z M 79.984375 188.132812 C 77.820312 193.546875 74.105469 193.546875 67.839844 196.410156 C 70.703125 193.933594 76.503906 187.746094 79.984375 188.132812 Z M 73.488281 428.941406 C 72.847656 432.496094 71.558594 435.792969 69.621094 438.839844 C 70.039062 435.199219 71.328125 431.898438 73.488281 428.941406 Z M 73.488281 428.941406 " fill-opacity="1" fill-rule="nonzero"/></g><path fill="#ffffff" d="M 69.621094 411.535156 C 70.136719 410.949219 70.78125 410.613281 71.554688 410.53125 C 70.859375 409.058594 70.316406 409.136719 69.621094 411.535156 Z M 69.621094 411.535156 " fill-opacity="1" fill-rule="nonzero"/><path fill="#ffffff" d="M 265.253906 13.152344 L 263.9375 13.847656 L 264.632812 13.847656 C 264.90625 13.675781 265.113281 13.445312 265.253906 13.152344 Z M 265.253906 13.152344 " fill-opacity="1" fill-rule="nonzero"/><path fill="#ffffff" d="M 354.367188 741.921875 C 352.34375 742.667969 350.253906 743.082031 348.101562 743.160156 C 348.101562 744.085938 349.804688 744.011719 354.367188 741.921875 Z M 354.367188 741.921875 " fill-opacity="1" fill-rule="nonzero"/><path fill="#ffffff" d="M 537.546875 759.480469 L 535.300781 763.039062 L 541.492188 764.277344 C 539.75 763.027344 538.433594 761.429688 537.546875 759.480469 Z M 537.546875 759.480469 " fill-opacity="1" fill-rule="nonzero"/><path fill="#ffffff" d="M 507.761719 747.957031 C 506.140625 747.957031 489.972656 742.386719 504.28125 749.578125 C 505.90625 749.117188 517.664062 754.296875 507.761719 747.957031 Z M 507.761719 747.957031 " fill-opacity="1" fill-rule="nonzero"/><path fill="#ffffff" d="M 180.78125 716.164062 C 177.917969 711.445312 176.679688 707.421875 175.597656 705.5625 C 174.515625 703.707031 173.664062 703.628906 172.117188 706.648438 C 173.820312 715.851562 175.597656 716.550781 176.757812 717.011719 C 177.917969 717.476562 178.925781 717.710938 181.785156 725.675781 C 183.566406 727.148438 182.25 723.976562 181.167969 720.804688 C 180.085938 717.632812 179.3125 714.382812 180.78125 716.164062 Z M 180.78125 716.164062 " fill-opacity="1" fill-rule="nonzero"/><path fill="#ffffff" d="M 180.78125 716.164062 C 181.726562 717.761719 182.78125 719.28125 183.953125 720.726562 C 182.171875 718.097656 181.320312 716.859375 180.78125 716.164062 Z M 180.78125 716.164062 " fill-opacity="1" fill-rule="nonzero"/><path fill="#ffffff" d="M 46.414062 205.148438 L 42.46875 207.160156 L 38.679688 209.40625 L 38.679688 210.71875 C 40.921875 210.253906 42.777344 208.476562 46.414062 205.148438 Z M 46.414062 205.148438 " fill-opacity="1" fill-rule="nonzero"/><path fill="#ffffff" d="M 163.375 149.839844 L 161.519531 150.613281 L 166.703125 152.46875 Z M 163.375 149.839844 " fill-opacity="1" fill-rule="nonzero"/><path fill="#ffffff" d="M 178.304688 62.429688 C 175.808594 68.210938 174.363281 74.242188 173.972656 80.53125 C 174.617188 76.117188 175.933594 71.914062 177.917969 67.921875 C 180.007812 64.128906 181.011719 62.429688 178.304688 62.429688 Z M 178.304688 62.429688 " fill-opacity="1" fill-rule="nonzero"/><path fill="#ffffff" d="M 173.972656 80.53125 C 173.816406 82.179688 173.816406 83.832031 173.972656 85.480469 C 173.742188 83.933594 173.820312 82.308594 173.972656 80.53125 Z M 173.972656 80.53125 " fill-opacity="1" fill-rule="nonzero"/><path fill="#ffffff" d="M 845.5 644.839844 C 842.386719 645.632812 839.445312 646.839844 836.671875 648.457031 C 833.898438 650.074219 831.398438 652.039062 829.175781 654.355469 C 829.796875 648.011719 833.355469 641.128906 833.429688 635.015625 C 833.410156 634.550781 833.320312 634.101562 833.164062 633.667969 C 833.003906 633.230469 832.78125 632.828125 832.496094 632.460938 C 832.214844 632.09375 831.878906 631.777344 831.5 631.515625 C 831.117188 631.25 830.703125 631.050781 830.257812 630.917969 C 828.4375 630.414062 826.578125 630.207031 824.691406 630.296875 L 823.296875 630.296875 C 793.4375 635.558594 792.355469 683.285156 823.296875 687.617188 C 824.347656 687.714844 825.402344 687.761719 826.457031 687.761719 C 827.511719 687.757812 828.5625 687.710938 829.613281 687.609375 C 830.664062 687.511719 831.707031 687.367188 832.742188 687.171875 C 833.78125 686.976562 834.804688 686.730469 835.820312 686.441406 C 836.835938 686.152344 837.832031 685.816406 838.816406 685.433594 C 839.796875 685.050781 840.761719 684.625 841.707031 684.152344 C 842.648438 683.679688 843.570312 683.167969 844.464844 682.609375 C 845.359375 682.054688 846.230469 681.457031 847.070312 680.820312 C 847.910156 680.179688 848.71875 679.507812 849.496094 678.792969 C 850.277344 678.082031 851.019531 677.335938 851.730469 676.554688 C 852.4375 675.773438 853.109375 674.960938 853.742188 674.121094 C 854.378906 673.277344 854.972656 672.40625 855.523438 671.507812 C 856.078125 670.609375 856.589844 669.6875 857.058594 668.742188 C 857.523438 667.796875 857.949219 666.832031 858.328125 665.847656 C 858.707031 664.863281 859.039062 663.863281 859.324219 662.847656 C 859.613281 661.832031 859.851562 660.808594 860.042969 659.769531 C 860.082031 659.28125 860.09375 658.789062 860.082031 658.296875 C 860.066406 657.804688 860.027344 657.316406 859.964844 656.828125 C 859.898438 656.339844 859.804688 655.855469 859.691406 655.378906 C 859.574219 654.902344 859.429688 654.429688 859.265625 653.96875 C 859.097656 653.503906 858.90625 653.050781 858.691406 652.609375 C 858.476562 652.167969 858.238281 651.738281 857.976562 651.320312 C 857.714844 650.902344 857.433594 650.5 857.128906 650.113281 C 856.824219 649.726562 856.5 649.359375 856.15625 649.003906 C 855.816406 648.652344 855.453125 648.320312 855.074219 648.003906 C 854.695312 647.691406 854.300781 647.398438 853.890625 647.125 C 853.480469 646.855469 853.058594 646.605469 852.621094 646.378906 C 852.183594 646.152344 851.738281 645.949219 851.277344 645.769531 C 850.820312 645.589844 850.355469 645.4375 849.878906 645.308594 C 849.40625 645.179688 848.925781 645.074219 848.4375 644.996094 C 847.953125 644.917969 847.464844 644.867188 846.972656 644.839844 C 846.480469 644.8125 845.992188 644.8125 845.5 644.839844 Z M 845.5 644.839844 " fill-opacity="1" fill-rule="nonzero"/><path fill="#ffffff" d="M 695.660156 38.679688 C 695.210938 38.554688 694.75 38.507812 694.285156 38.53125 C 693.820312 38.558594 693.367188 38.660156 692.933594 38.835938 C 692.5 39.007812 692.109375 39.25 691.753906 39.554688 C 691.398438 39.859375 691.101562 40.210938 690.863281 40.613281 C 687.746094 45.023438 684.367188 49.226562 680.730469 53.222656 C 680.066406 47.945312 678.882812 42.789062 677.171875 37.75 C 677.050781 37.277344 676.859375 36.835938 676.601562 36.421875 C 676.339844 36.011719 676.023438 35.648438 675.648438 35.335938 C 675.273438 35.023438 674.859375 34.777344 674.40625 34.59375 C 673.953125 34.414062 673.480469 34.304688 672.996094 34.269531 C 672.097656 34.285156 671.210938 34.367188 670.324219 34.515625 C 669.441406 34.664062 668.574219 34.875 667.722656 35.15625 C 666.871094 35.433594 666.046875 35.773438 665.246094 36.179688 C 664.445312 36.582031 663.679688 37.042969 662.949219 37.558594 C 662.21875 38.078125 661.53125 38.648438 660.882812 39.269531 C 660.238281 39.890625 659.644531 40.558594 659.097656 41.269531 C 658.554688 41.980469 658.066406 42.730469 657.632812 43.511719 C 657.199219 44.296875 656.828125 45.109375 656.519531 45.953125 C 656.164062 46.859375 655.878906 47.785156 655.667969 48.738281 C 644.683594 62.816406 665.722656 86.410156 683.4375 80.296875 C 699.140625 74.804688 719.796875 46.957031 695.660156 38.679688 Z M 695.660156 38.679688 " fill-opacity="1" fill-rule="nonzero"/><path fill="#ffffff" d="M 106.519531 616.914062 C 102.035156 619.199219 98.269531 622.34375 95.226562 626.351562 C 85.089844 634.859375 80.0625 647.703125 89.421875 658.066406 C 89.789062 658.429688 90.203125 658.726562 90.667969 658.949219 C 91.128906 659.175781 91.617188 659.320312 92.128906 659.382812 C 92.640625 659.445312 93.144531 659.425781 93.652344 659.316406 C 94.15625 659.210938 94.628906 659.027344 95.070312 658.765625 C 101.722656 654.507812 108.609375 651.027344 115.492188 646.851562 C 116.109375 654.585938 117.347656 661.78125 118.585938 669.285156 C 118.660156 669.558594 118.765625 669.820312 118.890625 670.074219 C 119.019531 670.328125 119.171875 670.566406 119.347656 670.789062 C 119.523438 671.011719 119.71875 671.214844 119.9375 671.398438 C 120.152344 671.582031 120.386719 671.742188 120.636719 671.878906 C 120.882812 672.015625 121.144531 672.128906 121.414062 672.210938 C 121.6875 672.296875 121.960938 672.355469 122.246094 672.382812 C 122.527344 672.414062 122.808594 672.414062 123.09375 672.386719 C 123.375 672.363281 123.652344 672.304688 123.925781 672.222656 C 143.574219 664.488281 158.117188 639.734375 142.335938 621.480469 C 133.59375 611.65625 117.734375 611.65625 106.519531 616.914062 Z M 106.519531 616.914062 " fill-opacity="1" fill-rule="nonzero"/><path fill="#ffffff" d="M 832.425781 619.390625 C 832.855469 619.34375 833.277344 619.261719 833.6875 619.136719 C 834.101562 619.015625 834.5 618.855469 834.886719 618.660156 C 835.269531 618.464844 835.632812 618.234375 835.976562 617.972656 C 836.316406 617.710938 836.632812 617.417969 836.921875 617.097656 C 837.207031 616.777344 837.464844 616.433594 837.691406 616.066406 C 837.917969 615.699219 838.105469 615.3125 838.261719 614.910156 C 838.414062 614.507812 838.53125 614.097656 838.609375 613.671875 C 838.6875 613.25 838.726562 612.820312 838.726562 612.390625 C 838.726562 611.957031 838.6875 611.53125 838.609375 611.105469 C 838.53125 610.683594 838.414062 610.269531 838.261719 609.867188 C 838.105469 609.464844 837.917969 609.078125 837.691406 608.710938 C 837.464844 608.34375 837.207031 608 836.921875 607.679688 C 836.632812 607.359375 836.316406 607.066406 835.972656 606.804688 C 835.632812 606.542969 835.269531 606.3125 834.886719 606.117188 C 834.5 605.921875 834.101562 605.761719 833.6875 605.640625 C 833.277344 605.519531 832.855469 605.433594 832.425781 605.386719 C 831.996094 605.433594 831.574219 605.519531 831.164062 605.640625 C 830.75 605.761719 830.351562 605.921875 829.964844 606.117188 C 829.582031 606.3125 829.21875 606.542969 828.875 606.804688 C 828.535156 607.066406 828.21875 607.359375 827.929688 607.679688 C 827.640625 608 827.386719 608.34375 827.160156 608.710938 C 826.933594 609.078125 826.746094 609.464844 826.589844 609.867188 C 826.4375 610.269531 826.320312 610.683594 826.242188 611.105469 C 826.164062 611.53125 826.125 611.957031 826.125 612.390625 C 826.125 612.820312 826.164062 613.25 826.242188 613.671875 C 826.320312 614.097656 826.4375 614.507812 826.589844 614.910156 C 826.746094 615.3125 826.933594 615.699219 827.160156 616.066406 C 827.386719 616.433594 827.640625 616.777344 827.929688 617.097656 C 828.21875 617.417969 828.535156 617.710938 828.875 617.972656 C 829.21875 618.234375 829.582031 618.464844 829.964844 618.660156 C 830.351562 618.855469 830.75 619.015625 831.164062 619.136719 C 831.574219 619.261719 831.996094 619.34375 832.425781 619.390625 Z M 832.425781 619.390625 " fill-opacity="1" fill-rule="nonzero"/><path fill="#ffffff" d="M 806.433594 622.792969 C 807.042969 622.792969 807.648438 622.734375 808.246094 622.617188 C 808.84375 622.496094 809.421875 622.320312 809.988281 622.085938 C 810.550781 621.855469 811.085938 621.566406 811.589844 621.230469 C 812.097656 620.890625 812.566406 620.503906 812.996094 620.074219 C 813.429688 619.644531 813.8125 619.175781 814.152344 618.667969 C 814.492188 618.160156 814.777344 617.625 815.011719 617.0625 C 815.242188 616.5 815.417969 615.917969 815.539062 615.320312 C 815.65625 614.722656 815.71875 614.121094 815.71875 613.511719 C 815.71875 612.902344 815.65625 612.296875 815.539062 611.699219 C 815.417969 611.101562 815.242188 610.523438 815.011719 609.957031 C 814.777344 609.394531 814.492188 608.859375 814.152344 608.355469 C 813.8125 607.847656 813.429688 607.378906 812.996094 606.945312 C 812.566406 606.515625 812.097656 606.132812 811.589844 605.792969 C 811.085938 605.453125 810.550781 605.167969 809.988281 604.933594 C 809.421875 604.703125 808.84375 604.527344 808.246094 604.40625 C 807.648438 604.289062 807.042969 604.226562 806.433594 604.226562 C 805.824219 604.226562 805.222656 604.289062 804.625 604.40625 C 804.023438 604.527344 803.445312 604.703125 802.882812 604.933594 C 802.320312 605.167969 801.785156 605.453125 801.277344 605.792969 C 800.769531 606.132812 800.300781 606.515625 799.871094 606.945312 C 799.4375 607.378906 799.054688 607.847656 798.714844 608.355469 C 798.378906 608.859375 798.089844 609.394531 797.859375 609.957031 C 797.625 610.523438 797.449219 611.101562 797.328125 611.699219 C 797.210938 612.296875 797.152344 612.902344 797.152344 613.511719 C 797.15625 614.117188 797.21875 614.722656 797.34375 615.316406 C 797.464844 615.914062 797.644531 616.492188 797.878906 617.050781 C 798.113281 617.613281 798.402344 618.144531 798.738281 618.648438 C 799.078125 619.15625 799.460938 619.621094 799.894531 620.050781 C 800.324219 620.484375 800.789062 620.867188 801.292969 621.207031 C 801.800781 621.542969 802.332031 621.832031 802.894531 622.066406 C 803.453125 622.300781 804.03125 622.480469 804.628906 622.601562 C 805.222656 622.726562 805.824219 622.789062 806.433594 622.792969 Z M 806.433594 622.792969 " fill-opacity="1" fill-rule="nonzero"/><path fill="#ffffff" d="M 786.863281 707.574219 C 787.496094 707.574219 788.125 707.515625 788.75 707.390625 C 789.371094 707.265625 789.976562 707.082031 790.5625 706.839844 C 791.148438 706.597656 791.707031 706.296875 792.234375 705.945312 C 792.761719 705.59375 793.25 705.191406 793.699219 704.742188 C 794.148438 704.292969 794.550781 703.804688 794.902344 703.277344 C 795.253906 702.75 795.554688 702.191406 795.796875 701.605469 C 796.039062 701.019531 796.222656 700.414062 796.347656 699.792969 C 796.46875 699.171875 796.53125 698.542969 796.53125 697.90625 C 796.53125 697.269531 796.46875 696.640625 796.347656 696.019531 C 796.222656 695.398438 796.039062 694.792969 795.796875 694.207031 C 795.554688 693.621094 795.253906 693.0625 794.902344 692.535156 C 794.550781 692.007812 794.148438 691.519531 793.699219 691.070312 C 793.25 690.621094 792.761719 690.21875 792.234375 689.867188 C 791.707031 689.511719 791.148438 689.214844 790.5625 688.972656 C 789.976562 688.730469 789.371094 688.546875 788.75 688.421875 C 788.125 688.296875 787.496094 688.238281 786.863281 688.238281 C 786.226562 688.238281 785.597656 688.296875 784.976562 688.421875 C 784.355469 688.546875 783.75 688.730469 783.164062 688.972656 C 782.574219 689.214844 782.019531 689.511719 781.492188 689.867188 C 780.964844 690.21875 780.476562 690.621094 780.027344 691.070312 C 779.578125 691.519531 779.175781 692.007812 778.824219 692.535156 C 778.46875 693.0625 778.171875 693.621094 777.929688 694.207031 C 777.6875 694.792969 777.503906 695.398438 777.378906 696.019531 C 777.253906 696.640625 777.195312 697.269531 777.195312 697.90625 C 777.199219 698.539062 777.265625 699.167969 777.390625 699.789062 C 777.519531 700.40625 777.707031 701.011719 777.949219 701.59375 C 778.195312 702.179688 778.492188 702.734375 778.847656 703.261719 C 779.199219 703.785156 779.601562 704.273438 780.046875 704.722656 C 780.496094 705.167969 780.984375 705.570312 781.507812 705.921875 C 782.035156 706.277344 782.589844 706.574219 783.175781 706.820312 C 783.757812 707.0625 784.363281 707.25 784.980469 707.378906 C 785.601562 707.503906 786.230469 707.570312 786.863281 707.574219 Z M 786.863281 707.574219 " fill-opacity="1" fill-rule="nonzero"/><path fill="#ffffff" d="M 813.550781 710.128906 C 814.089844 710.058594 814.601562 709.894531 815.078125 709.636719 C 815.558594 709.378906 815.976562 709.046875 816.335938 708.636719 C 816.695312 708.230469 816.972656 707.769531 817.164062 707.261719 C 817.355469 706.75 817.449219 706.222656 817.449219 705.679688 C 817.449219 705.136719 817.355469 704.609375 817.164062 704.101562 C 816.972656 703.589844 816.695312 703.132812 816.335938 702.722656 C 815.976562 702.3125 815.558594 701.980469 815.078125 701.722656 C 814.601562 701.46875 814.089844 701.304688 813.550781 701.234375 C 813.011719 701.304688 812.5 701.46875 812.023438 701.722656 C 811.542969 701.980469 811.125 702.3125 810.765625 702.722656 C 810.40625 703.132812 810.128906 703.589844 809.9375 704.101562 C 809.746094 704.609375 809.652344 705.136719 809.652344 705.679688 C 809.652344 706.222656 809.746094 706.75 809.9375 707.261719 C 810.128906 707.769531 810.40625 708.230469 810.765625 708.636719 C 811.125 709.046875 811.542969 709.378906 812.023438 709.636719 C 812.5 709.894531 813.011719 710.058594 813.550781 710.128906 Z M 813.550781 710.128906 " fill-opacity="1" fill-rule="nonzero"/><path fill="#ffffff" d="M 795.757812 646.929688 C 796.0625 646.929688 796.367188 646.898438 796.664062 646.839844 C 796.964844 646.78125 797.253906 646.691406 797.535156 646.574219 C 797.816406 646.457031 798.085938 646.316406 798.335938 646.144531 C 798.589844 645.976562 798.824219 645.785156 799.039062 645.570312 C 799.257812 645.355469 799.449219 645.121094 799.617188 644.867188 C 799.789062 644.613281 799.929688 644.34375 800.046875 644.0625 C 800.164062 643.78125 800.25 643.492188 800.3125 643.191406 C 800.371094 642.894531 800.398438 642.59375 800.402344 642.289062 C 800.398438 641.984375 800.371094 641.679688 800.3125 641.382812 C 800.25 641.082031 800.164062 640.792969 800.046875 640.511719 C 799.929688 640.230469 799.789062 639.960938 799.617188 639.707031 C 799.449219 639.457031 799.257812 639.222656 799.039062 639.003906 C 798.824219 638.789062 798.589844 638.597656 798.335938 638.429688 C 798.085938 638.257812 797.816406 638.117188 797.535156 638 C 797.253906 637.882812 796.964844 637.792969 796.664062 637.734375 C 796.367188 637.675781 796.0625 637.644531 795.757812 637.644531 C 795.453125 637.644531 795.152344 637.675781 794.855469 637.734375 C 794.554688 637.792969 794.265625 637.882812 793.984375 638 C 793.703125 638.117188 793.433594 638.257812 793.179688 638.429688 C 792.925781 638.597656 792.691406 638.789062 792.476562 639.003906 C 792.261719 639.222656 792.070312 639.457031 791.898438 639.707031 C 791.730469 639.960938 791.585938 640.230469 791.472656 640.511719 C 791.355469 640.792969 791.265625 641.082031 791.207031 641.382812 C 791.148438 641.679688 791.117188 641.984375 791.117188 642.289062 C 791.117188 642.59375 791.148438 642.894531 791.207031 643.191406 C 791.265625 643.492188 791.355469 643.78125 791.472656 644.0625 C 791.585938 644.34375 791.730469 644.613281 791.898438 644.867188 C 792.070312 645.121094 792.261719 645.355469 792.476562 645.570312 C 792.691406 645.785156 792.925781 645.976562 793.179688 646.144531 C 793.433594 646.316406 793.703125 646.457031 793.984375 646.574219 C 794.265625 646.691406 794.554688 646.78125 794.855469 646.839844 C 795.152344 646.898438 795.453125 646.929688 795.757812 646.929688 Z M 795.757812 646.929688 " fill-opacity="1" fill-rule="nonzero"/><path fill="#ffffff" d="M 729.234375 65.058594 L 728.226562 65.058594 C 727.429688 64.886719 726.621094 64.8125 725.804688 64.835938 C 724.988281 64.859375 724.1875 64.980469 723.402344 65.195312 C 722.613281 65.410156 721.863281 65.714844 721.148438 66.109375 C 720.433594 66.507812 719.777344 66.980469 719.175781 67.535156 C 718.746094 67.957031 718.363281 68.421875 718.023438 68.921875 C 717.683594 69.421875 717.398438 69.953125 717.167969 70.511719 C 716.933594 71.066406 716.757812 71.644531 716.636719 72.234375 C 716.519531 72.828125 716.460938 73.425781 716.460938 74.03125 C 716.460938 74.636719 716.519531 75.234375 716.636719 75.828125 C 716.757812 76.421875 716.933594 76.996094 717.167969 77.554688 C 717.398438 78.109375 717.683594 78.640625 718.023438 79.140625 C 718.363281 79.640625 718.746094 80.105469 719.175781 80.53125 C 720.070312 81.367188 721.085938 82.015625 722.21875 82.484375 C 723.351562 82.949219 724.527344 83.203125 725.753906 83.238281 C 726.921875 83.152344 728.082031 83 729.234375 82.773438 C 730.1875 82.5 731.074219 82.085938 731.894531 81.523438 C 732.714844 80.964844 733.421875 80.285156 734.019531 79.496094 C 734.617188 78.703125 735.074219 77.835938 735.390625 76.894531 C 735.707031 75.953125 735.863281 74.984375 735.863281 73.992188 C 735.863281 73 735.707031 72.035156 735.390625 71.09375 C 735.074219 70.152344 734.617188 69.285156 734.019531 68.492188 C 733.421875 67.699219 732.714844 67.023438 731.894531 66.460938 C 731.074219 65.902344 730.1875 65.484375 729.234375 65.214844 Z M 729.234375 65.058594 " fill-opacity="1" fill-rule="nonzero"/><path fill="#ffffff" d="M 735.652344 62.429688 C 735.988281 62.429688 736.320312 62.394531 736.648438 62.328125 C 736.976562 62.265625 737.296875 62.167969 737.605469 62.039062 C 737.914062 61.910156 738.210938 61.753906 738.488281 61.566406 C 738.765625 61.378906 739.023438 61.167969 739.261719 60.929688 C 739.496094 60.695312 739.707031 60.4375 739.894531 60.15625 C 740.082031 59.878906 740.238281 59.585938 740.367188 59.277344 C 740.496094 58.964844 740.589844 58.648438 740.65625 58.316406 C 740.722656 57.988281 740.753906 57.65625 740.753906 57.324219 C 740.753906 56.988281 740.722656 56.65625 740.65625 56.328125 C 740.589844 56 740.496094 55.679688 740.367188 55.371094 C 740.238281 55.0625 740.082031 54.765625 739.894531 54.488281 C 739.707031 54.210938 739.496094 53.953125 739.261719 53.714844 C 739.023438 53.476562 738.765625 53.265625 738.488281 53.078125 C 738.210938 52.894531 737.914062 52.734375 737.605469 52.609375 C 737.296875 52.480469 736.976562 52.382812 736.648438 52.316406 C 736.320312 52.25 735.988281 52.21875 735.652344 52.21875 C 735.320312 52.21875 734.988281 52.25 734.660156 52.316406 C 734.328125 52.382812 734.011719 52.480469 733.703125 52.609375 C 733.390625 52.734375 733.097656 52.894531 732.820312 53.078125 C 732.542969 53.265625 732.285156 53.476562 732.046875 53.714844 C 731.808594 53.953125 731.597656 54.210938 731.414062 54.488281 C 731.226562 54.765625 731.070312 55.0625 730.941406 55.371094 C 730.8125 55.679688 730.714844 56 730.652344 56.328125 C 730.585938 56.65625 730.554688 56.988281 730.554688 57.324219 C 730.554688 57.65625 730.585938 57.988281 730.652344 58.316406 C 730.714844 58.648438 730.8125 58.964844 730.941406 59.277344 C 731.070312 59.585938 731.226562 59.878906 731.414062 60.15625 C 731.597656 60.4375 731.808594 60.695312 732.046875 60.929688 C 732.285156 61.167969 732.542969 61.378906 732.820312 61.566406 C 733.097656 61.753906 733.390625 61.910156 733.703125 62.039062 C 734.011719 62.167969 734.328125 62.265625 734.660156 62.328125 C 734.988281 62.394531 735.320312 62.429688 735.652344 62.429688 Z M 735.652344 62.429688 " fill-opacity="1" fill-rule="nonzero"/><path fill="#ffffff" d="M 723.429688 48.738281 C 723.804688 48.652344 724.109375 48.464844 724.347656 48.167969 C 724.585938 47.871094 724.703125 47.53125 724.703125 47.152344 C 724.703125 46.769531 724.585938 46.429688 724.347656 46.132812 C 724.109375 45.835938 723.804688 45.648438 723.429688 45.566406 C 723.058594 45.648438 722.753906 45.835938 722.515625 46.132812 C 722.277344 46.429688 722.160156 46.769531 722.160156 47.152344 C 722.160156 47.53125 722.277344 47.871094 722.515625 48.167969 C 722.753906 48.464844 723.058594 48.652344 723.429688 48.738281 Z M 723.429688 48.738281 " fill-opacity="1" fill-rule="nonzero"/><path fill="#ffffff" d="M 629.984375 63.511719 C 630.550781 63.511719 631.109375 63.457031 631.660156 63.347656 C 632.214844 63.234375 632.75 63.074219 633.273438 62.859375 C 633.792969 62.640625 634.289062 62.378906 634.757812 62.0625 C 635.226562 61.75 635.660156 61.394531 636.058594 60.996094 C 636.457031 60.597656 636.8125 60.164062 637.125 59.695312 C 637.4375 59.226562 637.703125 58.730469 637.917969 58.210938 C 638.132812 57.691406 638.296875 57.152344 638.40625 56.601562 C 638.515625 56.046875 638.570312 55.488281 638.570312 54.925781 C 638.570312 54.359375 638.515625 53.800781 638.40625 53.25 C 638.296875 52.695312 638.132812 52.160156 637.917969 51.640625 C 637.703125 51.117188 637.4375 50.625 637.125 50.15625 C 636.8125 49.6875 636.457031 49.25 636.058594 48.851562 C 635.660156 48.453125 635.226562 48.097656 634.757812 47.785156 C 634.289062 47.472656 633.792969 47.207031 633.273438 46.992188 C 632.75 46.777344 632.214844 46.613281 631.660156 46.503906 C 631.109375 46.394531 630.550781 46.339844 629.984375 46.339844 C 629.421875 46.339844 628.863281 46.394531 628.308594 46.503906 C 627.757812 46.613281 627.21875 46.777344 626.699219 46.992188 C 626.179688 47.207031 625.683594 47.472656 625.214844 47.785156 C 624.746094 48.097656 624.3125 48.453125 623.914062 48.851562 C 623.515625 49.25 623.160156 49.6875 622.847656 50.15625 C 622.53125 50.625 622.269531 51.117188 622.050781 51.640625 C 621.835938 52.160156 621.675781 52.695312 621.5625 53.25 C 621.453125 53.800781 621.398438 54.359375 621.398438 54.925781 C 621.398438 55.488281 621.453125 56.046875 621.5625 56.601562 C 621.675781 57.152344 621.835938 57.691406 622.050781 58.210938 C 622.269531 58.730469 622.53125 59.226562 622.847656 59.695312 C 623.160156 60.164062 623.515625 60.597656 623.914062 60.996094 C 624.3125 61.394531 624.746094 61.75 625.214844 62.0625 C 625.683594 62.378906 626.179688 62.640625 626.699219 62.859375 C 627.21875 63.074219 627.757812 63.234375 628.308594 63.347656 C 628.863281 63.457031 629.421875 63.511719 629.984375 63.511719 Z M 629.984375 63.511719 " fill-opacity="1" fill-rule="nonzero"/><path fill="#ffffff" d="M 635.554688 32.027344 C 636.152344 31.953125 636.71875 31.773438 637.253906 31.492188 C 637.785156 31.210938 638.25 30.84375 638.648438 30.390625 C 639.050781 29.9375 639.355469 29.429688 639.570312 28.867188 C 639.78125 28.300781 639.886719 27.71875 639.886719 27.117188 C 639.886719 26.511719 639.78125 25.929688 639.570312 25.363281 C 639.355469 24.800781 639.050781 24.292969 638.648438 23.839844 C 638.25 23.386719 637.785156 23.019531 637.253906 22.738281 C 636.71875 22.457031 636.152344 22.277344 635.554688 22.203125 C 634.957031 22.277344 634.390625 22.457031 633.859375 22.738281 C 633.324219 23.019531 632.859375 23.386719 632.460938 23.839844 C 632.0625 24.292969 631.753906 24.800781 631.542969 25.363281 C 631.328125 25.929688 631.222656 26.511719 631.222656 27.117188 C 631.222656 27.71875 631.328125 28.300781 631.542969 28.867188 C 631.753906 29.429688 632.0625 29.9375 632.460938 30.390625 C 632.859375 30.84375 633.324219 31.210938 633.859375 31.492188 C 634.390625 31.773438 634.957031 31.953125 635.554688 32.027344 Z M 635.554688 32.027344 " fill-opacity="1" fill-rule="nonzero"/><path fill="#ffffff" d="M 161.671875 127.484375 C 159.617188 127.59375 157.683594 128.136719 155.871094 129.109375 C 155.570312 129.289062 155.277344 129.488281 155 129.707031 C 154.722656 129.925781 154.460938 130.164062 154.214844 130.414062 C 153.96875 130.667969 153.738281 130.933594 153.527344 131.21875 C 153.3125 131.5 153.121094 131.792969 152.945312 132.101562 C 152.769531 132.410156 152.617188 132.726562 152.484375 133.054688 C 152.351562 133.378906 152.238281 133.714844 152.148438 134.054688 C 152.058594 134.398438 151.992188 134.742188 151.945312 135.09375 C 151.898438 135.445312 151.878906 135.796875 151.878906 136.148438 C 151.878906 136.5 151.898438 136.851562 151.945312 137.203125 C 151.992188 137.554688 152.058594 137.898438 152.148438 138.242188 C 152.238281 138.582031 152.351562 138.917969 152.484375 139.242188 C 152.617188 139.570312 152.769531 139.886719 152.945312 140.195312 C 153.121094 140.503906 153.3125 140.796875 153.527344 141.078125 C 153.738281 141.363281 153.96875 141.628906 154.214844 141.882812 C 154.460938 142.132812 154.722656 142.371094 155 142.589844 C 155.277344 142.808594 155.570312 143.007812 155.871094 143.1875 C 157.683594 144.160156 159.617188 144.703125 161.671875 144.8125 C 162.242188 144.8125 162.804688 144.757812 163.363281 144.644531 C 163.921875 144.535156 164.464844 144.371094 164.988281 144.152344 C 165.515625 143.933594 166.015625 143.667969 166.488281 143.351562 C 166.960938 143.035156 167.398438 142.675781 167.800781 142.273438 C 168.203125 141.871094 168.5625 141.433594 168.878906 140.960938 C 169.191406 140.488281 169.460938 139.988281 169.679688 139.464844 C 169.894531 138.9375 170.058594 138.398438 170.171875 137.839844 C 170.28125 137.28125 170.335938 136.71875 170.335938 136.148438 C 170.335938 135.578125 170.28125 135.015625 170.171875 134.457031 C 170.058594 133.898438 169.894531 133.359375 169.679688 132.832031 C 169.460938 132.308594 169.191406 131.808594 168.878906 131.335938 C 168.5625 130.863281 168.203125 130.425781 167.800781 130.023438 C 167.398438 129.621094 166.960938 129.261719 166.488281 128.945312 C 166.015625 128.628906 165.515625 128.363281 164.988281 128.144531 C 164.464844 127.925781 163.921875 127.761719 163.363281 127.652344 C 162.804688 127.539062 162.242188 127.484375 161.671875 127.484375 Z M 161.671875 127.484375 " fill-opacity="1" fill-rule="nonzero"/><path fill="#ffffff" d="M 130.578125 166.625 C 130.898438 166.625 131.214844 166.59375 131.527344 166.53125 C 131.839844 166.46875 132.144531 166.378906 132.441406 166.253906 C 132.738281 166.132812 133.019531 165.984375 133.285156 165.804688 C 133.550781 165.628906 133.796875 165.425781 134.023438 165.199219 C 134.25 164.972656 134.449219 164.726562 134.628906 164.460938 C 134.804688 164.195312 134.957031 163.914062 135.078125 163.617188 C 135.203125 163.324219 135.292969 163.019531 135.355469 162.703125 C 135.417969 162.390625 135.449219 162.074219 135.449219 161.753906 C 135.449219 161.433594 135.417969 161.117188 135.355469 160.800781 C 135.292969 160.488281 135.203125 160.183594 135.078125 159.886719 C 134.957031 159.59375 134.804688 159.3125 134.628906 159.046875 C 134.449219 158.78125 134.25 158.535156 134.023438 158.308594 C 133.796875 158.082031 133.550781 157.878906 133.285156 157.699219 C 133.019531 157.523438 132.738281 157.375 132.441406 157.25 C 132.144531 157.128906 131.839844 157.035156 131.527344 156.972656 C 131.214844 156.910156 130.898438 156.878906 130.578125 156.878906 C 130.257812 156.878906 129.941406 156.910156 129.625 156.972656 C 129.3125 157.035156 129.007812 157.128906 128.710938 157.25 C 128.414062 157.375 128.136719 157.523438 127.867188 157.699219 C 127.601562 157.878906 127.355469 158.082031 127.128906 158.308594 C 126.902344 158.535156 126.703125 158.78125 126.523438 159.046875 C 126.347656 159.3125 126.195312 159.59375 126.074219 159.886719 C 125.953125 160.183594 125.859375 160.488281 125.796875 160.800781 C 125.734375 161.117188 125.703125 161.433594 125.703125 161.753906 C 125.703125 162.074219 125.734375 162.390625 125.796875 162.703125 C 125.859375 163.019531 125.953125 163.324219 126.074219 163.617188 C 126.195312 163.914062 126.347656 164.195312 126.523438 164.460938 C 126.703125 164.726562 126.902344 164.972656 127.128906 165.199219 C 127.355469 165.425781 127.601562 165.628906 127.867188 165.804688 C 128.136719 165.984375 128.414062 166.132812 128.710938 166.253906 C 129.007812 166.378906 129.3125 166.46875 129.625 166.53125 C 129.941406 166.59375 130.257812 166.625 130.578125 166.625 Z M 130.578125 166.625 " fill-opacity="1" fill-rule="nonzero"/><path fill="#ffffff" d="M 131.503906 128.800781 C 132.019531 128.800781 132.511719 128.703125 132.984375 128.503906 C 133.457031 128.308594 133.878906 128.03125 134.238281 127.667969 C 134.601562 127.304688 134.882812 126.886719 135.078125 126.410156 C 135.273438 125.9375 135.371094 125.445312 135.371094 124.933594 C 135.371094 124.417969 135.273438 123.925781 135.078125 123.453125 C 134.882812 122.976562 134.601562 122.558594 134.238281 122.195312 C 133.878906 121.835938 133.457031 121.554688 132.984375 121.359375 C 132.511719 121.164062 132.019531 121.0625 131.503906 121.0625 C 130.992188 121.0625 130.5 121.164062 130.023438 121.359375 C 129.550781 121.554688 129.132812 121.835938 128.769531 122.195312 C 128.40625 122.558594 128.128906 122.976562 127.929688 123.453125 C 127.734375 123.925781 127.636719 124.417969 127.636719 124.933594 C 127.636719 125.445312 127.734375 125.9375 127.929688 126.410156 C 128.128906 126.886719 128.40625 127.304688 128.769531 127.667969 C 129.132812 128.03125 129.550781 128.308594 130.023438 128.503906 C 130.5 128.703125 130.992188 128.800781 131.503906 128.800781 Z M 131.503906 128.800781 " fill-opacity="1" fill-rule="nonzero"/><path fill="#ffffff" d="M 101.800781 592.238281 C 99.789062 591.601562 97.777344 591.601562 95.765625 592.238281 C 95.265625 592.371094 94.777344 592.542969 94.304688 592.753906 C 93.832031 592.964844 93.382812 593.214844 92.949219 593.5 C 92.519531 593.785156 92.113281 594.105469 91.734375 594.457031 C 91.355469 594.8125 91.007812 595.191406 90.691406 595.601562 C 90.375 596.011719 90.09375 596.445312 89.847656 596.902344 C 89.601562 597.359375 89.398438 597.832031 89.230469 598.320312 C 89.0625 598.8125 88.9375 599.3125 88.851562 599.824219 C 88.769531 600.332031 88.726562 600.847656 88.726562 601.367188 C 88.726562 601.882812 88.769531 602.398438 88.851562 602.910156 C 88.9375 603.421875 89.0625 603.921875 89.230469 604.410156 C 89.398438 604.902344 89.601562 605.375 89.847656 605.832031 C 90.09375 606.285156 90.375 606.71875 90.691406 607.128906 C 91.007812 607.539062 91.355469 607.921875 91.734375 608.273438 C 92.113281 608.628906 92.519531 608.945312 92.949219 609.234375 C 93.382812 609.519531 93.832031 609.769531 94.304688 609.980469 C 94.777344 610.191406 95.265625 610.363281 95.765625 610.492188 C 97.777344 611.132812 99.789062 611.132812 101.800781 610.492188 C 102.289062 610.371094 102.769531 610.210938 103.230469 610.007812 C 103.695312 609.808594 104.140625 609.566406 104.5625 609.292969 C 104.988281 609.015625 105.386719 608.710938 105.757812 608.367188 C 106.132812 608.027344 106.476562 607.65625 106.785156 607.257812 C 107.097656 606.859375 107.375 606.4375 107.613281 605.992188 C 107.855469 605.546875 108.058594 605.085938 108.222656 604.609375 C 108.390625 604.128906 108.511719 603.640625 108.597656 603.144531 C 108.679688 602.644531 108.722656 602.140625 108.722656 601.636719 C 108.722656 601.132812 108.679688 600.628906 108.597656 600.128906 C 108.511719 599.632812 108.390625 599.144531 108.222656 598.664062 C 108.058594 598.1875 107.855469 597.726562 107.613281 597.28125 C 107.375 596.835938 107.097656 596.414062 106.785156 596.015625 C 106.476562 595.617188 106.132812 595.246094 105.757812 594.90625 C 105.386719 594.566406 104.988281 594.257812 104.5625 593.980469 C 104.140625 593.707031 103.695312 593.46875 103.230469 593.265625 C 102.769531 593.0625 102.289062 592.902344 101.800781 592.78125 Z M 101.800781 592.238281 " fill-opacity="1" fill-rule="nonzero"/><path fill="#ffffff" d="M 68.613281 600.980469 C 68.1875 601.652344 67.972656 602.386719 67.972656 603.183594 C 67.972656 603.980469 68.1875 604.714844 68.613281 605.386719 C 68.789062 605.683594 68.992188 605.957031 69.226562 606.207031 C 69.460938 606.460938 69.71875 606.683594 70.003906 606.878906 C 70.285156 607.070312 70.585938 607.234375 70.902344 607.363281 C 71.222656 607.492188 71.550781 607.585938 71.886719 607.644531 C 72.226562 607.699219 72.566406 607.71875 72.910156 607.703125 C 73.253906 607.6875 73.589844 607.632812 73.921875 607.542969 C 74.253906 607.453125 74.570312 607.328125 74.875 607.167969 C 75.179688 607.007812 75.460938 606.816406 75.722656 606.597656 C 75.984375 606.375 76.21875 606.128906 76.429688 605.855469 C 76.636719 605.582031 76.8125 605.289062 76.957031 604.976562 C 77.101562 604.667969 77.210938 604.34375 77.285156 604.007812 C 77.359375 603.671875 77.398438 603.332031 77.398438 602.992188 C 77.398438 602.648438 77.359375 602.308594 77.285156 601.972656 C 77.210938 601.636719 77.101562 601.3125 76.957031 601.003906 C 76.8125 600.691406 76.636719 600.398438 76.429688 600.125 C 76.21875 599.855469 75.984375 599.605469 75.722656 599.386719 C 75.460938 599.164062 75.179688 598.972656 74.875 598.8125 C 74.570312 598.652344 74.253906 598.527344 73.921875 598.4375 C 73.589844 598.347656 73.253906 598.292969 72.910156 598.277344 C 72.566406 598.261719 72.226562 598.28125 71.886719 598.339844 C 71.550781 598.394531 71.222656 598.488281 70.902344 598.617188 C 70.585938 598.746094 70.285156 598.910156 70.003906 599.105469 C 69.71875 599.296875 69.460938 599.519531 69.226562 599.773438 C 68.992188 600.023438 68.789062 600.296875 68.613281 600.59375 Z M 68.613281 600.980469 " fill-opacity="1" fill-rule="nonzero"/><path fill="#ffffff" d="M 157.265625 681.273438 C 157.84375 681.273438 158.417969 681.21875 158.984375 681.105469 C 159.550781 680.992188 160.105469 680.824219 160.640625 680.601562 C 161.175781 680.382812 161.683594 680.109375 162.164062 679.789062 C 162.644531 679.464844 163.089844 679.101562 163.5 678.691406 C 163.910156 678.28125 164.273438 677.835938 164.597656 677.355469 C 164.917969 676.875 165.191406 676.367188 165.410156 675.832031 C 165.632812 675.296875 165.800781 674.746094 165.914062 674.175781 C 166.027344 673.609375 166.082031 673.035156 166.082031 672.457031 C 166.082031 671.878906 166.027344 671.304688 165.914062 670.734375 C 165.800781 670.167969 165.632812 669.617188 165.410156 669.082031 C 165.191406 668.546875 164.917969 668.039062 164.597656 667.558594 C 164.273438 667.074219 163.910156 666.628906 163.5 666.21875 C 163.089844 665.8125 162.644531 665.445312 162.164062 665.125 C 161.683594 664.800781 161.175781 664.53125 160.640625 664.308594 C 160.105469 664.085938 159.550781 663.921875 158.984375 663.808594 C 158.417969 663.695312 157.84375 663.636719 157.265625 663.636719 C 156.683594 663.636719 156.113281 663.695312 155.542969 663.808594 C 154.976562 663.921875 154.425781 664.085938 153.890625 664.308594 C 153.355469 664.53125 152.847656 664.800781 152.363281 665.125 C 151.882812 665.445312 151.4375 665.8125 151.027344 666.21875 C 150.621094 666.628906 150.253906 667.074219 149.933594 667.558594 C 149.609375 668.039062 149.339844 668.546875 149.117188 669.082031 C 148.894531 669.617188 148.726562 670.167969 148.613281 670.734375 C 148.503906 671.304688 148.445312 671.878906 148.445312 672.457031 C 148.445312 673.035156 148.503906 673.609375 148.613281 674.175781 C 148.726562 674.746094 148.894531 675.296875 149.117188 675.832031 C 149.339844 676.367188 149.609375 676.875 149.933594 677.355469 C 150.253906 677.835938 150.621094 678.28125 151.027344 678.691406 C 151.4375 679.101562 151.882812 679.464844 152.363281 679.789062 C 152.847656 680.109375 153.355469 680.382812 153.890625 680.601562 C 154.425781 680.824219 154.976562 680.992188 155.542969 681.105469 C 156.113281 681.21875 156.683594 681.273438 157.265625 681.273438 Z M 157.265625 681.273438 " fill-opacity="1" fill-rule="nonzero"/><path fill="#ffffff" d="M 166.160156 653.195312 C 166.511719 653.195312 166.859375 653.160156 167.203125 653.09375 C 167.546875 653.023438 167.878906 652.921875 168.203125 652.789062 C 168.527344 652.652344 168.835938 652.488281 169.125 652.296875 C 169.417969 652.101562 169.6875 651.878906 169.933594 651.632812 C 170.183594 651.382812 170.402344 651.113281 170.597656 650.824219 C 170.792969 650.53125 170.957031 650.222656 171.089844 649.898438 C 171.226562 649.574219 171.328125 649.242188 171.394531 648.898438 C 171.464844 648.554688 171.496094 648.207031 171.496094 647.855469 C 171.496094 647.507812 171.464844 647.160156 171.394531 646.816406 C 171.328125 646.472656 171.226562 646.136719 171.089844 645.8125 C 170.957031 645.492188 170.792969 645.183594 170.597656 644.890625 C 170.402344 644.601562 170.183594 644.332031 169.933594 644.082031 C 169.6875 643.835938 169.417969 643.613281 169.125 643.417969 C 168.835938 643.222656 168.527344 643.058594 168.203125 642.925781 C 167.878906 642.792969 167.546875 642.691406 167.203125 642.621094 C 166.859375 642.554688 166.511719 642.519531 166.160156 642.519531 C 165.808594 642.519531 165.460938 642.554688 165.117188 642.621094 C 164.773438 642.691406 164.441406 642.792969 164.117188 642.925781 C 163.792969 643.058594 163.484375 643.222656 163.195312 643.417969 C 162.902344 643.613281 162.632812 643.835938 162.386719 644.082031 C 162.136719 644.332031 161.917969 644.601562 161.722656 644.890625 C 161.527344 645.183594 161.363281 645.492188 161.230469 645.8125 C 161.09375 646.136719 160.992188 646.472656 160.925781 646.816406 C 160.855469 647.160156 160.824219 647.507812 160.824219 647.855469 C 160.824219 648.207031 160.855469 648.554688 160.925781 648.898438 C 160.992188 649.242188 161.09375 649.574219 161.230469 649.898438 C 161.363281 650.222656 161.527344 650.53125 161.722656 650.824219 C 161.917969 651.113281 162.136719 651.382812 162.386719 651.632812 C 162.632812 651.878906 162.902344 652.101562 163.195312 652.296875 C 163.484375 652.488281 163.792969 652.652344 164.117188 652.789062 C 164.441406 652.921875 164.773438 653.023438 165.117188 653.09375 C 165.460938 653.160156 165.808594 653.195312 166.160156 653.195312 Z M 166.160156 653.195312 " fill-opacity="1" fill-rule="nonzero"/><path fill="#ffffff" d="M 133.207031 693.574219 L 133.207031 694.039062 C 133.59375 694.746094 134.132812 695.304688 134.828125 695.714844 C 135.519531 696.125 136.269531 696.332031 137.074219 696.332031 C 137.878906 696.332031 138.628906 696.125 139.324219 695.714844 C 140.015625 695.304688 140.554688 694.746094 140.941406 694.039062 L 140.941406 693.574219 C 141.253906 693.105469 141.472656 692.597656 141.597656 692.050781 C 141.722656 691.503906 141.75 690.949219 141.675781 690.390625 C 141.601562 689.835938 141.429688 689.308594 141.164062 688.8125 C 140.898438 688.320312 140.554688 687.886719 140.128906 687.515625 C 139.707031 687.144531 139.234375 686.863281 138.707031 686.664062 C 138.179688 686.464844 137.636719 686.367188 137.074219 686.367188 C 136.511719 686.367188 135.96875 686.464844 135.441406 686.664062 C 134.914062 686.863281 134.441406 687.144531 134.019531 687.515625 C 133.59375 687.886719 133.25 688.320312 132.984375 688.8125 C 132.71875 689.308594 132.546875 689.835938 132.472656 690.390625 C 132.398438 690.949219 132.425781 691.503906 132.550781 692.050781 C 132.675781 692.597656 132.894531 693.105469 133.207031 693.574219 Z M 133.207031 693.574219 " fill-opacity="1" fill-rule="nonzero"/><path fill="#ffffff" d="M 530.96875 766.367188 C 531.585938 766.367188 532.195312 766.304688 532.796875 766.1875 C 533.398438 766.066406 533.984375 765.890625 534.550781 765.652344 C 535.121094 765.417969 535.660156 765.128906 536.171875 764.789062 C 536.679688 764.445312 537.152344 764.058594 537.589844 763.625 C 538.023438 763.191406 538.410156 762.71875 538.753906 762.207031 C 539.09375 761.695312 539.382812 761.15625 539.617188 760.585938 C 539.851562 760.019531 540.03125 759.433594 540.148438 758.832031 C 540.269531 758.230469 540.332031 757.621094 540.332031 757.007812 C 540.332031 756.390625 540.269531 755.78125 540.148438 755.179688 C 540.03125 754.578125 539.851562 753.992188 539.617188 753.425781 C 539.382812 752.855469 539.09375 752.316406 538.753906 751.804688 C 538.410156 751.292969 538.023438 750.820312 537.589844 750.386719 C 537.152344 749.953125 536.679688 749.566406 536.171875 749.222656 C 535.660156 748.882812 535.121094 748.59375 534.550781 748.359375 C 533.984375 748.125 533.398438 747.945312 532.796875 747.824219 C 532.195312 747.707031 531.585938 747.644531 530.96875 747.644531 C 530.355469 747.644531 529.746094 747.707031 529.144531 747.824219 C 528.542969 747.945312 527.957031 748.125 527.386719 748.359375 C 526.820312 748.59375 526.28125 748.882812 525.769531 749.222656 C 525.257812 749.566406 524.785156 749.953125 524.351562 750.386719 C 523.917969 750.820312 523.527344 751.292969 523.1875 751.804688 C 522.847656 752.316406 522.558594 752.855469 522.324219 753.425781 C 522.085938 753.992188 521.910156 754.578125 521.789062 755.179688 C 521.671875 755.78125 521.609375 756.390625 521.609375 757.007812 C 521.609375 757.621094 521.671875 758.230469 521.789062 758.832031 C 521.910156 759.433594 522.085938 760.019531 522.324219 760.585938 C 522.558594 761.15625 522.847656 761.695312 523.1875 762.207031 C 523.527344 762.71875 523.917969 763.191406 524.351562 763.625 C 524.785156 764.058594 525.257812 764.445312 525.769531 764.789062 C 526.28125 765.128906 526.820312 765.417969 527.386719 765.652344 C 527.957031 765.886719 528.542969 766.066406 529.144531 766.1875 C 529.746094 766.304688 530.355469 766.367188 530.96875 766.367188 Z M 530.96875 766.367188 " fill-opacity="1" fill-rule="nonzero"/><g clip-path="url(#7e75bae6a0)"><path fill="#ffffff" d="M 517.664062 769.226562 L 516.890625 769.226562 C 516.539062 769.226562 516.195312 769.261719 515.851562 769.332031 C 515.507812 769.398438 515.171875 769.5 514.847656 769.632812 C 514.523438 769.769531 514.21875 769.933594 513.925781 770.128906 C 513.632812 770.324219 513.363281 770.542969 513.117188 770.792969 C 512.871094 771.039062 512.648438 771.308594 512.453125 771.601562 C 512.257812 771.890625 512.09375 772.199219 511.960938 772.523438 C 511.824219 772.847656 511.726562 773.179688 511.65625 773.523438 C 511.589844 773.867188 511.554688 774.214844 511.554688 774.566406 C 511.554688 774.917969 511.589844 775.261719 511.65625 775.605469 C 511.726562 775.949219 511.824219 776.285156 511.960938 776.609375 C 512.09375 776.933594 512.257812 777.238281 512.453125 777.53125 C 512.648438 777.824219 512.871094 778.09375 513.117188 778.339844 C 513.363281 778.585938 513.632812 778.808594 513.925781 779.003906 C 514.21875 779.199219 514.523438 779.363281 514.847656 779.496094 C 515.171875 779.632812 515.507812 779.730469 515.851562 779.800781 C 516.195312 779.871094 516.539062 779.902344 516.890625 779.902344 L 517.664062 779.902344 C 518.019531 779.902344 518.371094 779.867188 518.722656 779.800781 C 519.070312 779.730469 519.410156 779.628906 519.738281 779.492188 C 520.066406 779.355469 520.378906 779.1875 520.671875 778.992188 C 520.96875 778.792969 521.242188 778.570312 521.492188 778.316406 C 521.746094 778.066406 521.96875 777.792969 522.167969 777.496094 C 522.363281 777.199219 522.53125 776.890625 522.667969 776.5625 C 522.804688 776.230469 522.90625 775.894531 522.976562 775.542969 C 523.046875 775.195312 523.078125 774.84375 523.078125 774.488281 C 523.078125 774.132812 523.046875 773.78125 522.976562 773.433594 C 522.90625 773.082031 522.804688 772.746094 522.667969 772.417969 C 522.53125 772.085938 522.363281 771.777344 522.167969 771.480469 C 521.96875 771.183594 521.746094 770.910156 521.492188 770.660156 C 521.242188 770.40625 520.96875 770.183594 520.671875 769.984375 C 520.378906 769.789062 520.066406 769.621094 519.738281 769.484375 C 519.410156 769.347656 519.070312 769.246094 518.722656 769.175781 C 518.371094 769.109375 518.019531 769.074219 517.664062 769.074219 Z M 517.664062 769.226562 " fill-opacity="1" fill-rule="nonzero"/></g><path fill="#ffffff" d="M 490.976562 760.332031 C 491.390625 760.269531 491.777344 760.136719 492.144531 759.9375 C 492.507812 759.734375 492.824219 759.476562 493.097656 759.160156 C 493.371094 758.84375 493.578125 758.492188 493.722656 758.101562 C 493.867188 757.710938 493.941406 757.308594 493.941406 756.890625 C 493.941406 756.472656 493.867188 756.070312 493.722656 755.679688 C 493.578125 755.289062 493.371094 754.933594 493.097656 754.617188 C 492.824219 754.304688 492.507812 754.042969 492.144531 753.84375 C 491.777344 753.640625 491.390625 753.507812 490.976562 753.449219 C 490.566406 753.507812 490.175781 753.640625 489.8125 753.84375 C 489.445312 754.042969 489.128906 754.304688 488.855469 754.617188 C 488.585938 754.933594 488.375 755.289062 488.230469 755.679688 C 488.085938 756.070312 488.015625 756.472656 488.015625 756.890625 C 488.015625 757.308594 488.085938 757.710938 488.230469 758.101562 C 488.375 758.492188 488.585938 758.84375 488.855469 759.160156 C 489.128906 759.476562 489.445312 759.734375 489.8125 759.9375 C 490.175781 760.136719 490.566406 760.269531 490.976562 760.332031 Z M 490.976562 760.332031 " fill-opacity="1" fill-rule="nonzero"/><path fill="#ffffff" d="M 842.25 465.21875 C 841.253906 466.113281 840.429688 467.144531 839.773438 468.3125 C 839.503906 468.769531 839.269531 469.242188 839.078125 469.738281 C 838.886719 470.230469 838.734375 470.738281 838.625 471.257812 C 838.519531 471.773438 838.453125 472.296875 838.429688 472.828125 C 838.410156 473.359375 838.429688 473.886719 838.496094 474.410156 C 838.5625 474.9375 838.667969 475.453125 838.820312 475.960938 C 838.972656 476.46875 839.164062 476.960938 839.398438 477.4375 C 839.628906 477.914062 839.898438 478.367188 840.207031 478.796875 C 840.515625 479.230469 840.855469 479.632812 841.230469 480.007812 C 841.605469 480.382812 842.007812 480.722656 842.441406 481.03125 C 842.871094 481.339844 843.324219 481.609375 843.800781 481.84375 C 844.277344 482.074219 844.769531 482.265625 845.277344 482.417969 C 845.785156 482.570312 846.300781 482.679688 846.828125 482.742188 C 847.355469 482.808594 847.882812 482.832031 848.410156 482.808594 C 848.941406 482.785156 849.464844 482.722656 849.984375 482.613281 C 850.5 482.503906 851.007812 482.351562 851.5 482.160156 C 851.996094 481.96875 852.46875 481.734375 852.925781 481.464844 C 854.117188 480.808594 855.148438 479.957031 856.019531 478.910156 C 856.535156 478.476562 857.003906 477.992188 857.417969 477.460938 C 857.835938 476.925781 858.191406 476.355469 858.488281 475.75 C 858.789062 475.140625 859.019531 474.511719 859.1875 473.855469 C 859.351562 473.199219 859.449219 472.535156 859.476562 471.859375 C 859.503906 471.183594 859.464844 470.511719 859.351562 469.847656 C 859.238281 469.179688 859.058594 468.53125 858.8125 467.902344 C 858.566406 467.273438 858.257812 466.675781 857.886719 466.109375 C 857.515625 465.542969 857.089844 465.023438 856.613281 464.546875 C 856.132812 464.070312 855.609375 463.648438 855.042969 463.28125 C 854.472656 462.910156 853.875 462.605469 853.242188 462.363281 C 852.613281 462.121094 851.964844 461.945312 851.296875 461.835938 C 850.628906 461.726562 849.957031 461.691406 849.28125 461.722656 C 848.605469 461.753906 847.941406 461.855469 847.289062 462.023438 C 846.632812 462.195312 846.003906 462.429688 845.398438 462.730469 C 844.792969 463.03125 844.226562 463.390625 843.695312 463.8125 C 843.164062 464.230469 842.683594 464.699219 842.25 465.21875 Z M 842.25 465.21875 " fill-opacity="1" fill-rule="nonzero"/><path fill="#ffffff" d="M 842.480469 454.003906 C 842.980469 453.933594 843.453125 453.78125 843.898438 453.539062 C 844.34375 453.300781 844.730469 452.992188 845.0625 452.609375 C 845.394531 452.230469 845.648438 451.804688 845.828125 451.332031 C 846.003906 450.859375 846.09375 450.371094 846.09375 449.863281 C 846.09375 449.359375 846.003906 448.871094 845.828125 448.398438 C 845.648438 447.925781 845.394531 447.5 845.0625 447.117188 C 844.730469 446.738281 844.34375 446.429688 843.898438 446.1875 C 843.453125 445.949219 842.980469 445.792969 842.480469 445.726562 C 841.980469 445.792969 841.507812 445.949219 841.066406 446.1875 C 840.621094 446.429688 840.234375 446.738281 839.902344 447.117188 C 839.570312 447.5 839.316406 447.925781 839.136719 448.398438 C 838.960938 448.871094 838.871094 449.359375 838.871094 449.863281 C 838.871094 450.371094 838.960938 450.859375 839.136719 451.332031 C 839.316406 451.804688 839.570312 452.230469 839.902344 452.609375 C 840.234375 452.992188 840.621094 453.300781 841.066406 453.539062 C 841.507812 453.78125 841.980469 453.933594 842.480469 454.003906 Z M 842.480469 454.003906 " fill-opacity="1" fill-rule="nonzero"/><path fill="#ffffff" d="M 858.03125 447.738281 C 858.332031 447.738281 858.625 447.707031 858.921875 447.648438 C 859.214844 447.589844 859.5 447.503906 859.777344 447.390625 C 860.054688 447.277344 860.316406 447.136719 860.566406 446.96875 C 860.816406 446.800781 861.046875 446.613281 861.257812 446.402344 C 861.46875 446.1875 861.660156 445.957031 861.824219 445.710938 C 861.992188 445.460938 862.132812 445.195312 862.246094 444.921875 C 862.363281 444.644531 862.449219 444.359375 862.507812 444.0625 C 862.566406 443.769531 862.59375 443.472656 862.59375 443.171875 C 862.59375 442.875 862.566406 442.578125 862.507812 442.28125 C 862.449219 441.988281 862.363281 441.703125 862.246094 441.425781 C 862.132812 441.148438 861.992188 440.886719 861.824219 440.636719 C 861.660156 440.390625 861.46875 440.15625 861.257812 439.945312 C 861.046875 439.734375 860.816406 439.546875 860.566406 439.378906 C 860.316406 439.210938 860.054688 439.070312 859.777344 438.957031 C 859.5 438.84375 859.214844 438.753906 858.921875 438.695312 C 858.625 438.640625 858.332031 438.609375 858.03125 438.609375 C 857.730469 438.609375 857.433594 438.640625 857.140625 438.695312 C 856.847656 438.753906 856.5625 438.84375 856.285156 438.957031 C 856.007812 439.070312 855.742188 439.210938 855.496094 439.378906 C 855.246094 439.546875 855.015625 439.734375 854.804688 439.945312 C 854.589844 440.15625 854.402344 440.390625 854.234375 440.636719 C 854.070312 440.886719 853.929688 441.148438 853.8125 441.425781 C 853.699219 441.703125 853.613281 441.988281 853.554688 442.28125 C 853.496094 442.578125 853.464844 442.875 853.464844 443.171875 C 853.464844 443.472656 853.496094 443.769531 853.554688 444.0625 C 853.613281 444.359375 853.699219 444.644531 853.8125 444.921875 C 853.929688 445.195312 854.070312 445.460938 854.234375 445.710938 C 854.402344 445.957031 854.589844 446.1875 854.804688 446.402344 C 855.015625 446.613281 855.246094 446.800781 855.496094 446.96875 C 855.742188 447.136719 856.007812 447.273438 856.285156 447.390625 C 856.5625 447.503906 856.847656 447.589844 857.140625 447.648438 C 857.433594 447.707031 857.730469 447.738281 858.03125 447.738281 Z M 858.03125 447.738281 " fill-opacity="1" fill-rule="nonzero"/><g clip-path="url(#5c6bda1d5e)"><g clip-path="url(#fdfbf87904)"><path fill="#ffffff" d="M 462.871094 328.5625 L 497.226562 328.5625 L 497.226562 362.917969 L 462.871094 362.917969 Z M 462.871094 328.5625 " fill-opacity="1" fill-rule="nonzero"/></g></g></svg>