<svg xmlns="http://www.w3.org/2000/svg" xmlns:xlink="http://www.w3.org/1999/xlink" width="360" zoomAndPan="magnify" viewBox="0 0 270 172.499995" height="230" preserveAspectRatio="xMidYMid meet" version="1.0"><defs><g/><clipPath id="7ccc83372e"><path d="M 60.429688 70.496094 L 69.105469 70.496094 L 69.105469 79.171875 L 60.429688 79.171875 Z M 60.429688 70.496094 " clip-rule="nonzero"/></clipPath><clipPath id="71f5389ed3"><path d="M 64.769531 70.496094 C 62.371094 70.496094 60.429688 72.4375 60.429688 74.835938 C 60.429688 77.230469 62.371094 79.171875 64.769531 79.171875 C 67.164062 79.171875 69.105469 77.230469 69.105469 74.835938 C 69.105469 72.4375 67.164062 70.496094 64.769531 70.496094 Z M 64.769531 70.496094 " clip-rule="nonzero"/></clipPath></defs><g clip-path="url(#7ccc83372e)"><g clip-path="url(#71f5389ed3)"><path fill="#3a110c" d="M 60.429688 70.496094 L 69.105469 70.496094 L 69.105469 79.171875 L 60.429688 79.171875 Z M 60.429688 70.496094 " fill-opacity="1" fill-rule="nonzero"/></g></g><path fill="#c00808" d="M 31.269531 121.90625 L 238.117188 121.90625 L 238.117188 130.878906 L 31.269531 130.878906 Z M 31.269531 121.90625 " fill-opacity="1" fill-rule="nonzero"/><g fill="#c00808" fill-opacity="1"><g transform="translate(31.270471, 116.669878)"><g><path d="M 36.234375 -61 C 37.765625 -61.613281 38.5625 -61.921875 38.625 -61.921875 C 38.6875 -61.921875 39.507812 -61.796875 41.09375 -61.546875 C 42.007812 -61.367188 42.664062 -61.1875 43.0625 -61 C 43.46875 -60.820312 43.757812 -60.546875 43.9375 -60.171875 C 44.1875 -59.679688 44.3125 -59.039062 44.3125 -58.25 C 44.3125 -55.5 42.90625 -50.851562 40.09375 -44.3125 C 38.6875 -41.070312 37.304688 -37.582031 35.953125 -33.84375 C 34.179688 -29.195312 33.082031 -26.414062 32.65625 -25.5 C 31.976562 -23.726562 31.335938 -21.554688 30.734375 -18.984375 C 30.054688 -16.171875 29.410156 -14.125 28.796875 -12.84375 C 28.429688 -11.925781 28.082031 -11.296875 27.75 -10.953125 C 27.414062 -10.617188 26.878906 -10.300781 26.140625 -10 C 25.410156 -9.695312 24.800781 -9.546875 24.3125 -9.546875 C 24.0625 -9.546875 23.847656 -9.570312 23.671875 -9.625 C 23.117188 -9.9375 22.84375 -10.179688 22.84375 -10.359375 C 22.84375 -10.546875 22.75 -10.640625 22.5625 -10.640625 C 22.5 -10.640625 22.378906 -10.609375 22.203125 -10.546875 C 22.140625 -10.546875 22.078125 -10.546875 22.015625 -10.546875 C 21.523438 -10.546875 20.757812 -11.050781 19.71875 -12.0625 C 18.675781 -13.070312 18.15625 -13.851562 18.15625 -14.40625 C 18.15625 -15.007812 17.820312 -16.015625 17.15625 -17.421875 C 16.539062 -18.773438 16.050781 -19.96875 15.6875 -21 C 15.4375 -21.738281 14.976562 -22.960938 14.3125 -24.671875 C 13.757812 -26.078125 13.484375 -26.992188 13.484375 -27.421875 C 13.484375 -27.421875 13.484375 -27.453125 13.484375 -27.515625 C 13.484375 -27.578125 13.484375 -27.671875 13.484375 -27.796875 C 13.484375 -28.285156 13.207031 -29.082031 12.65625 -30.1875 C 11.925781 -31.53125 10.703125 -35.101562 8.984375 -40.90625 C 6.785156 -48.3125 5.257812 -52.929688 4.40625 -54.765625 C 3.601562 -56.421875 3.203125 -57.398438 3.203125 -57.703125 C 3.203125 -58.367188 3.828125 -58.867188 5.078125 -59.203125 C 6.335938 -59.546875 7.582031 -59.71875 8.8125 -59.71875 C 9.238281 -59.71875 9.984375 -59.671875 11.046875 -59.578125 C 12.117188 -59.484375 12.992188 -59.164062 13.671875 -58.625 C 14.460938 -57.882812 16.570312 -52.070312 20 -41.1875 C 21.769531 -35.4375 22.835938 -32.347656 23.203125 -31.921875 C 23.390625 -31.734375 23.484375 -31.613281 23.484375 -31.5625 C 23.609375 -31.5625 23.703125 -31.648438 23.765625 -31.828125 C 24.003906 -32.191406 24.367188 -33.203125 24.859375 -34.859375 C 28.585938 -46.785156 30.910156 -53.878906 31.828125 -56.140625 C 32.679688 -58.160156 33.660156 -59.503906 34.765625 -60.171875 C 35.066406 -60.359375 35.554688 -60.632812 36.234375 -61 Z M 36.234375 -61 "/></g></g></g><g fill="#c00808" fill-opacity="1"><g transform="translate(78.417831, 116.669878)"><g><path d="M 6.609375 -59.4375 L 6.78125 -60.546875 L 11.28125 -60.546875 C 14.21875 -60.546875 15.960938 -60.453125 16.515625 -60.265625 C 17.066406 -60.085938 17.429688 -59.539062 17.609375 -58.625 C 17.671875 -58.4375 17.703125 -57.945312 17.703125 -57.15625 C 17.703125 -54.832031 17.550781 -49.96875 17.25 -42.5625 C 16.882812 -35.40625 16.609375 -28.097656 16.421875 -20.640625 L 16.234375 -12.015625 L 15.3125 -11.734375 C 14.945312 -11.679688 14.765625 -11.625 14.765625 -11.5625 C 14.765625 -11.5 14.796875 -11.46875 14.859375 -11.46875 C 15.160156 -11.46875 15.3125 -11.34375 15.3125 -11.09375 C 15.3125 -11.09375 15.3125 -11.066406 15.3125 -11.015625 C 15.195312 -10.828125 14.953125 -10.734375 14.578125 -10.734375 C 14.210938 -10.734375 14.03125 -10.640625 14.03125 -10.453125 C 14.03125 -10.390625 14.0625 -10.300781 14.125 -10.1875 C 14.1875 -10.125 14.21875 -10.03125 14.21875 -9.90625 L 14.125 -9.71875 L 14.03125 -9.71875 C 13.851562 -9.78125 13.671875 -9.8125 13.484375 -9.8125 C 12.804688 -9.8125 12.46875 -9.476562 12.46875 -8.8125 C 12.46875 -8.320312 12.316406 -8.0625 12.015625 -8.03125 C 11.710938 -8 11.53125 -7.984375 11.46875 -7.984375 C 11.039062 -7.984375 10.671875 -8.164062 10.359375 -8.53125 C 10.054688 -9.019531 9.722656 -9.265625 9.359375 -9.265625 C 8.992188 -9.265625 8.8125 -9.414062 8.8125 -9.71875 C 8.8125 -10.03125 8.597656 -10.398438 8.171875 -10.828125 C 7.367188 -11.804688 6.96875 -18.6875 6.96875 -31.46875 C 6.96875 -33.851562 6.96875 -36.453125 6.96875 -39.265625 C 7.03125 -43.234375 7.0625 -46.441406 7.0625 -48.890625 C 7.0625 -52.617188 7 -54.640625 6.875 -54.953125 C 6.875 -55.253906 6.796875 -55.476562 6.640625 -55.625 C 6.492188 -55.78125 6.328125 -55.859375 6.140625 -55.859375 C 5.835938 -55.859375 5.6875 -56.226562 5.6875 -56.96875 C 5.6875 -57.09375 5.6875 -57.210938 5.6875 -57.328125 C 5.75 -58.128906 5.867188 -58.53125 6.046875 -58.53125 C 6.109375 -58.53125 6.171875 -58.554688 6.234375 -58.609375 C 6.296875 -58.671875 6.359375 -58.78125 6.421875 -58.9375 C 6.484375 -59.09375 6.546875 -59.257812 6.609375 -59.4375 Z M 6.609375 -59.4375 "/></g></g></g><g fill="#c00808" fill-opacity="1"><g transform="translate(101.624608, 116.669878)"><g><path d="M 20.734375 -61.09375 C 21.773438 -61.28125 22.90625 -61.375 24.125 -61.375 C 25.101562 -61.375 26.460938 -61.265625 28.203125 -61.046875 C 29.953125 -60.835938 31.710938 -60.300781 33.484375 -59.4375 C 34.703125 -58.832031 36.164062 -57.703125 37.875 -56.046875 C 39.59375 -54.398438 40.820312 -52.929688 41.5625 -51.640625 C 42.71875 -49.441406 43.445312 -47.164062 43.75 -44.8125 C 44.0625 -42.457031 44.21875 -40.546875 44.21875 -39.078125 C 44.21875 -37.484375 44.09375 -35.894531 43.84375 -34.3125 C 43.175781 -30.519531 41.617188 -26.894531 39.171875 -23.4375 C 36.722656 -19.976562 33.570312 -17 29.71875 -14.5 C 28.5 -13.695312 26.800781 -12.835938 24.625 -11.921875 C 22.457031 -11.003906 21.035156 -10.546875 20.359375 -10.546875 C 19.816406 -10.546875 19.269531 -10.457031 18.71875 -10.28125 C 18.46875 -10.15625 18.066406 -10.09375 17.515625 -10.09375 C 17.085938 -10.09375 16.367188 -10.164062 15.359375 -10.3125 C 14.359375 -10.46875 13.394531 -10.789062 12.46875 -11.28125 C 11.4375 -11.707031 10.488281 -12.472656 9.625 -13.578125 C 8.769531 -14.679688 8.097656 -15.9375 7.609375 -17.34375 C 7.117188 -18.6875 6.734375 -20.347656 6.453125 -22.328125 C 6.179688 -24.316406 6.046875 -25.769531 6.046875 -26.6875 C 6.046875 -27 6.078125 -27.273438 6.140625 -27.515625 C 6.203125 -27.765625 6.234375 -28.007812 6.234375 -28.25 C 6.234375 -28.5625 6.144531 -28.835938 5.96875 -29.078125 C 5.78125 -29.328125 5.6875 -29.785156 5.6875 -30.453125 C 5.6875 -30.816406 5.71875 -31.273438 5.78125 -31.828125 C 6.144531 -35.679688 6.398438 -39.992188 6.546875 -44.765625 C 6.703125 -49.535156 6.78125 -52.773438 6.78125 -54.484375 C 6.78125 -56.441406 6.722656 -57.546875 6.609375 -57.796875 C 6.546875 -57.859375 6.515625 -57.945312 6.515625 -58.0625 C 6.515625 -58.4375 6.789062 -59.082031 7.34375 -60 C 7.40625 -60.113281 7.785156 -60.1875 8.484375 -60.21875 C 9.191406 -60.25 9.664062 -60.265625 9.90625 -60.265625 C 10.644531 -60.265625 11.070312 -60.207031 11.1875 -60.09375 C 11.25 -59.96875 11.375 -59.90625 11.5625 -59.90625 C 11.625 -59.90625 11.742188 -59.9375 11.921875 -60 C 11.984375 -60 12.046875 -60 12.109375 -60 C 12.347656 -60 12.53125 -59.785156 12.65625 -59.359375 C 12.71875 -59.109375 12.796875 -58.921875 12.890625 -58.796875 C 12.984375 -58.679688 13.117188 -58.625 13.296875 -58.625 C 13.359375 -58.625 13.476562 -58.632812 13.65625 -58.65625 C 13.84375 -58.6875 14.148438 -58.78125 14.578125 -58.9375 C 15.015625 -59.09375 15.660156 -59.351562 16.515625 -59.71875 C 18.222656 -60.394531 19.628906 -60.851562 20.734375 -61.09375 Z M 24.859375 -52.28125 C 23.878906 -52.59375 22.789062 -52.804688 21.59375 -52.921875 C 20.40625 -53.046875 19.566406 -53.109375 19.078125 -53.109375 C 18.410156 -53.109375 17.921875 -53.050781 17.609375 -52.9375 C 17.242188 -52.875 17 -52.519531 16.875 -51.875 C 16.757812 -51.226562 16.640625 -49.226562 16.515625 -45.875 C 16.453125 -43.789062 16.421875 -41.585938 16.421875 -39.265625 C 16.421875 -36.941406 16.46875 -33.851562 16.5625 -30 C 16.65625 -26.144531 16.851562 -23.453125 17.15625 -21.921875 C 17.394531 -20.941406 17.5625 -20.375 17.65625 -20.21875 C 17.75 -20.070312 17.890625 -20 18.078125 -20 C 18.191406 -20 18.34375 -20.03125 18.53125 -20.09375 C 19.9375 -20.394531 21.675781 -21.476562 23.75 -23.34375 C 25.832031 -25.207031 27.546875 -27.179688 28.890625 -29.265625 C 30.296875 -31.460938 31.164062 -33.328125 31.5 -34.859375 C 31.84375 -36.390625 32.015625 -37.734375 32.015625 -38.890625 C 32.015625 -39.992188 31.890625 -41.15625 31.640625 -42.375 C 30.609375 -48.007812 28.347656 -51.3125 24.859375 -52.28125 Z M 24.859375 -52.28125 "/></g></g></g><g fill="#c00808" fill-opacity="1"><g transform="translate(149.689232, 116.669878)"><g><path d="M 21.5625 -61.734375 C 22.71875 -61.921875 23.753906 -62.015625 24.671875 -62.015625 C 25.410156 -62.015625 26.222656 -61.921875 27.109375 -61.734375 C 27.992188 -61.554688 30.117188 -60.703125 33.484375 -59.171875 C 34.273438 -58.804688 34.734375 -58.546875 34.859375 -58.390625 C 34.984375 -58.234375 35.046875 -58.003906 35.046875 -57.703125 C 35.046875 -57.578125 35.046875 -57.453125 35.046875 -57.328125 C 34.984375 -56.472656 34.492188 -55.847656 33.578125 -55.453125 C 32.660156 -55.054688 30.734375 -54.519531 27.796875 -53.84375 C 21.316406 -52.375 17.1875 -51.425781 15.40625 -51 C 15.101562 -49.476562 14.921875 -47.707031 14.859375 -45.6875 C 14.796875 -43.664062 14.765625 -42.289062 14.765625 -41.5625 C 14.765625 -41.1875 14.78125 -40.816406 14.8125 -40.453125 C 14.84375 -40.085938 14.984375 -39.90625 15.234375 -39.90625 C 15.535156 -39.90625 17.1875 -40.238281 20.1875 -40.90625 C 23.0625 -41.644531 25.535156 -42.015625 27.609375 -42.015625 C 29.265625 -42.015625 30.640625 -41.769531 31.734375 -41.28125 C 32.472656 -40.976562 32.929688 -40.734375 33.109375 -40.546875 C 33.296875 -40.359375 33.390625 -40.050781 33.390625 -39.625 C 33.390625 -38.582031 32.289062 -37.269531 30.09375 -35.6875 C 29.78125 -35.375 27.46875 -34.742188 23.15625 -33.796875 C 18.851562 -32.847656 16.332031 -32.375 15.59375 -32.375 C 15.039062 -32.375 14.6875 -32.25 14.53125 -32 C 14.382812 -31.757812 14.28125 -30.9375 14.21875 -29.53125 C 14.09375 -27.394531 14.03125 -24.921875 14.03125 -22.109375 L 14.03125 -21 C 14.03125 -20.207031 14.179688 -19.765625 14.484375 -19.671875 C 14.796875 -19.585938 15.164062 -19.546875 15.59375 -19.546875 C 16.382812 -19.546875 17.726562 -19.632812 19.625 -19.8125 C 20.601562 -19.9375 21.367188 -20.03125 21.921875 -20.09375 C 24.796875 -20.332031 27.304688 -20.453125 29.453125 -20.453125 C 31.953125 -20.453125 34 -20.300781 35.59375 -20 C 36.019531 -19.875 36.265625 -19.78125 36.328125 -19.71875 C 36.390625 -19.65625 36.421875 -19.597656 36.421875 -19.546875 C 36.421875 -19.484375 36.390625 -19.390625 36.328125 -19.265625 C 36.203125 -19.078125 36.140625 -18.863281 36.140625 -18.625 C 36.140625 -18.4375 36.203125 -18.222656 36.328125 -17.984375 C 36.390625 -17.796875 36.421875 -17.609375 36.421875 -17.421875 C 36.421875 -16.941406 36.050781 -16.300781 35.3125 -15.5 C 34.582031 -14.707031 33.421875 -14.035156 31.828125 -13.484375 C 30.054688 -12.804688 26.507812 -12.085938 21.1875 -11.328125 C 15.863281 -10.566406 12.285156 -10.1875 10.453125 -10.1875 C 9.898438 -10.1875 9.472656 -10.21875 9.171875 -10.28125 C 8.128906 -10.519531 6.601562 -11.617188 4.59375 -13.578125 C 3.1875 -14.984375 2.484375 -15.898438 2.484375 -16.328125 C 2.484375 -16.390625 2.507812 -16.453125 2.5625 -16.515625 C 2.625 -16.578125 2.71875 -16.609375 2.84375 -16.609375 C 3.03125 -16.609375 3.273438 -16.878906 3.578125 -17.421875 C 3.878906 -18.035156 4.304688 -18.5 4.859375 -18.8125 C 5.285156 -18.988281 5.546875 -19.441406 5.640625 -20.171875 C 5.734375 -20.910156 5.84375 -23.878906 5.96875 -29.078125 L 5.96875 -29.171875 C 5.96875 -30.515625 5.992188 -32.101562 6.046875 -33.9375 C 6.109375 -35.769531 6.171875 -37.695312 6.234375 -39.71875 C 6.296875 -41.738281 6.328125 -43.175781 6.328125 -44.03125 L 6.609375 -51.921875 L 4.953125 -53.578125 C 3.242188 -55.285156 2.390625 -56.382812 2.390625 -56.875 C 2.390625 -57 2.421875 -57.09375 2.484375 -57.15625 C 2.597656 -57.332031 3.175781 -57.421875 4.21875 -57.421875 C 5.195312 -57.421875 8.070312 -58.09375 12.84375 -59.4375 C 17.3125 -60.789062 20.21875 -61.554688 21.5625 -61.734375 Z M 21.5625 -61.734375 "/></g></g></g><g fill="#c00808" fill-opacity="1"><g transform="translate(188.306037, 116.669878)"><g><path d="M 24.5 -60.359375 C 24.925781 -60.660156 25.628906 -60.8125 26.609375 -60.8125 C 27.335938 -60.8125 28.507812 -60.691406 30.125 -60.453125 C 31.75 -60.210938 33.328125 -59.722656 34.859375 -58.984375 C 35.835938 -58.429688 37.015625 -57.515625 38.390625 -56.234375 C 39.765625 -54.953125 40.847656 -53.664062 41.640625 -52.375 C 42.503906 -51.15625 43.300781 -49.410156 44.03125 -47.140625 C 44.769531 -44.878906 45.320312 -42.648438 45.6875 -40.453125 C 45.863281 -39.171875 45.953125 -37.859375 45.953125 -36.515625 C 45.953125 -34.921875 45.753906 -32.882812 45.359375 -30.40625 C 44.960938 -27.925781 44.15625 -25.492188 42.9375 -23.109375 C 42.070312 -21.335938 41.347656 -20.097656 40.765625 -19.390625 C 40.191406 -18.691406 39.078125 -17.578125 37.421875 -16.046875 C 34.796875 -13.609375 32.335938 -11.957031 30.046875 -11.09375 C 27.753906 -10.238281 25.289062 -9.8125 22.65625 -9.8125 C 22.164062 -9.8125 21.644531 -9.8125 21.09375 -9.8125 C 16.75 -10 13.265625 -11.070312 10.640625 -13.03125 C 9.359375 -13.945312 8.347656 -14.894531 7.609375 -15.875 C 6.878906 -16.851562 6.117188 -18.164062 5.328125 -19.8125 C 4.460938 -21.832031 3.921875 -23.59375 3.703125 -25.09375 C 3.492188 -26.59375 3.390625 -28.59375 3.390625 -31.09375 C 3.390625 -31.707031 3.390625 -32.378906 3.390625 -33.109375 C 3.515625 -36.722656 3.789062 -39.429688 4.21875 -41.234375 C 4.644531 -43.035156 5.5 -45.3125 6.78125 -48.0625 C 7.757812 -50.082031 8.890625 -51.8125 10.171875 -53.25 C 11.460938 -54.6875 13.117188 -56.078125 15.140625 -57.421875 C 16.660156 -58.460938 17.710938 -59.101562 18.296875 -59.34375 C 18.878906 -59.59375 19.84375 -59.75 21.1875 -59.8125 C 23.082031 -60 24.1875 -60.179688 24.5 -60.359375 Z M 27.984375 -52.46875 C 27.492188 -52.65625 26.726562 -52.765625 25.6875 -52.796875 C 24.644531 -52.828125 24.003906 -52.84375 23.765625 -52.84375 C 22.296875 -52.84375 21.285156 -52.75 20.734375 -52.5625 C 20.117188 -52.4375 19.367188 -51.867188 18.484375 -50.859375 C 17.597656 -49.859375 16.878906 -48.710938 16.328125 -47.421875 C 15.285156 -45.222656 14.566406 -43.175781 14.171875 -41.28125 C 13.773438 -39.382812 13.578125 -36.9375 13.578125 -33.9375 C 13.578125 -30.945312 13.757812 -28.59375 14.125 -26.875 C 14.488281 -25.164062 15.191406 -23.484375 16.234375 -21.828125 C 17.460938 -19.816406 19.910156 -18.472656 23.578125 -17.796875 C 24.429688 -17.671875 25.039062 -17.609375 25.40625 -17.609375 C 25.53125 -17.609375 25.695312 -17.625 25.90625 -17.65625 C 26.125 -17.6875 26.660156 -17.882812 27.515625 -18.25 C 28.617188 -18.863281 29.488281 -19.503906 30.125 -20.171875 C 30.769531 -20.847656 31.398438 -21.828125 32.015625 -23.109375 C 33.660156 -26.421875 34.484375 -30.429688 34.484375 -35.140625 C 34.484375 -39.472656 33.875 -43.257812 32.65625 -46.5 C 31.4375 -49.75 29.878906 -51.738281 27.984375 -52.46875 Z M 27.984375 -52.46875 "/></g></g></g></svg>