<svg xmlns="http://www.w3.org/2000/svg" xmlns:xlink="http://www.w3.org/1999/xlink" width="462" zoomAndPan="magnify" viewBox="0 0 346.5 172.499995" height="230" preserveAspectRatio="xMidYMid meet" version="1.0"><defs><g/><clipPath id="4e3d4fb0e5"><path d="M 39.75 66.734375 L 46.394531 66.734375 L 46.394531 73.378906 L 39.75 73.378906 Z M 39.75 66.734375 " clip-rule="nonzero"/></clipPath><clipPath id="b0810e2774"><path d="M 43.074219 66.734375 C 41.238281 66.734375 39.75 68.222656 39.75 70.054688 C 39.75 71.890625 41.238281 73.378906 43.074219 73.378906 C 44.90625 73.378906 46.394531 71.890625 46.394531 70.054688 C 46.394531 68.222656 44.90625 66.734375 43.074219 66.734375 Z M 43.074219 66.734375 " clip-rule="nonzero"/></clipPath></defs><g clip-path="url(#4e3d4fb0e5)"><g clip-path="url(#b0810e2774)"><path fill="#3a110c" d="M 39.75 66.734375 L 46.394531 66.734375 L 46.394531 73.378906 L 39.75 73.378906 Z M 39.75 66.734375 " fill-opacity="1" fill-rule="nonzero"/></g></g><path fill="#c00808" d="M 31.132812 121.90625 L 314.851562 121.90625 L 314.851562 130.878906 L 31.132812 130.878906 Z M 31.132812 121.90625 " fill-opacity="1" fill-rule="nonzero"/><g fill="#c00808" fill-opacity="1"><g transform="translate(31.131744, 116.669878)"><g><path d="M 20.734375 -61.09375 C 21.773438 -61.28125 22.90625 -61.375 24.125 -61.375 C 25.101562 -61.375 26.460938 -61.265625 28.203125 -61.046875 C 29.953125 -60.835938 31.710938 -60.300781 33.484375 -59.4375 C 34.703125 -58.832031 36.164062 -57.703125 37.875 -56.046875 C 39.59375 -54.398438 40.820312 -52.929688 41.5625 -51.640625 C 42.71875 -49.441406 43.445312 -47.164062 43.75 -44.8125 C 44.0625 -42.457031 44.21875 -40.546875 44.21875 -39.078125 C 44.21875 -37.484375 44.09375 -35.894531 43.84375 -34.3125 C 43.175781 -30.519531 41.617188 -26.894531 39.171875 -23.4375 C 36.722656 -19.976562 33.570312 -17 29.71875 -14.5 C 28.5 -13.695312 26.800781 -12.835938 24.625 -11.921875 C 22.457031 -11.003906 21.035156 -10.546875 20.359375 -10.546875 C 19.816406 -10.546875 19.269531 -10.457031 18.71875 -10.28125 C 18.46875 -10.15625 18.066406 -10.09375 17.515625 -10.09375 C 17.085938 -10.09375 16.367188 -10.164062 15.359375 -10.3125 C 14.359375 -10.46875 13.394531 -10.789062 12.46875 -11.28125 C 11.4375 -11.707031 10.488281 -12.472656 9.625 -13.578125 C 8.769531 -14.679688 8.097656 -15.9375 7.609375 -17.34375 C 7.117188 -18.6875 6.734375 -20.347656 6.453125 -22.328125 C 6.179688 -24.316406 6.046875 -25.769531 6.046875 -26.6875 C 6.046875 -27 6.078125 -27.273438 6.140625 -27.515625 C 6.203125 -27.765625 6.234375 -28.007812 6.234375 -28.25 C 6.234375 -28.5625 6.144531 -28.835938 5.96875 -29.078125 C 5.78125 -29.328125 5.6875 -29.785156 5.6875 -30.453125 C 5.6875 -30.816406 5.71875 -31.273438 5.78125 -31.828125 C 6.144531 -35.679688 6.398438 -39.992188 6.546875 -44.765625 C 6.703125 -49.535156 6.78125 -52.773438 6.78125 -54.484375 C 6.78125 -56.441406 6.722656 -57.546875 6.609375 -57.796875 C 6.546875 -57.859375 6.515625 -57.945312 6.515625 -58.0625 C 6.515625 -58.4375 6.789062 -59.082031 7.34375 -60 C 7.40625 -60.113281 7.785156 -60.1875 8.484375 -60.21875 C 9.191406 -60.25 9.664062 -60.265625 9.90625 -60.265625 C 10.644531 -60.265625 11.070312 -60.207031 11.1875 -60.09375 C 11.25 -59.96875 11.375 -59.90625 11.5625 -59.90625 C 11.625 -59.90625 11.742188 -59.9375 11.921875 -60 C 11.984375 -60 12.046875 -60 12.109375 -60 C 12.347656 -60 12.53125 -59.785156 12.65625 -59.359375 C 12.71875 -59.109375 12.796875 -58.921875 12.890625 -58.796875 C 12.984375 -58.679688 13.117188 -58.625 13.296875 -58.625 C 13.359375 -58.625 13.476562 -58.632812 13.65625 -58.65625 C 13.84375 -58.6875 14.148438 -58.78125 14.578125 -58.9375 C 15.015625 -59.09375 15.660156 -59.351562 16.515625 -59.71875 C 18.222656 -60.394531 19.628906 -60.851562 20.734375 -61.09375 Z M 24.859375 -52.28125 C 23.878906 -52.59375 22.789062 -52.804688 21.59375 -52.921875 C 20.40625 -53.046875 19.566406 -53.109375 19.078125 -53.109375 C 18.410156 -53.109375 17.921875 -53.050781 17.609375 -52.9375 C 17.242188 -52.875 17 -52.519531 16.875 -51.875 C 16.757812 -51.226562 16.640625 -49.226562 16.515625 -45.875 C 16.453125 -43.789062 16.421875 -41.585938 16.421875 -39.265625 C 16.421875 -36.941406 16.46875 -33.851562 16.5625 -30 C 16.65625 -26.144531 16.851562 -23.453125 17.15625 -21.921875 C 17.394531 -20.941406 17.5625 -20.375 17.65625 -20.21875 C 17.75 -20.070312 17.890625 -20 18.078125 -20 C 18.191406 -20 18.34375 -20.03125 18.53125 -20.09375 C 19.9375 -20.394531 21.675781 -21.476562 23.75 -23.34375 C 25.832031 -25.207031 27.546875 -27.179688 28.890625 -29.265625 C 30.296875 -31.460938 31.164062 -33.328125 31.5 -34.859375 C 31.84375 -36.390625 32.015625 -37.734375 32.015625 -38.890625 C 32.015625 -39.992188 31.890625 -41.15625 31.640625 -42.375 C 30.609375 -48.007812 28.347656 -51.3125 24.859375 -52.28125 Z M 24.859375 -52.28125 "/></g></g></g><g fill="#c00808" fill-opacity="1"><g transform="translate(79.196368, 116.669878)"><g><path d="M 21.5625 -61.734375 C 22.71875 -61.921875 23.753906 -62.015625 24.671875 -62.015625 C 25.410156 -62.015625 26.222656 -61.921875 27.109375 -61.734375 C 27.992188 -61.554688 30.117188 -60.703125 33.484375 -59.171875 C 34.273438 -58.804688 34.734375 -58.546875 34.859375 -58.390625 C 34.984375 -58.234375 35.046875 -58.003906 35.046875 -57.703125 C 35.046875 -57.578125 35.046875 -57.453125 35.046875 -57.328125 C 34.984375 -56.472656 34.492188 -55.847656 33.578125 -55.453125 C 32.660156 -55.054688 30.734375 -54.519531 27.796875 -53.84375 C 21.316406 -52.375 17.1875 -51.425781 15.40625 -51 C 15.101562 -49.476562 14.921875 -47.707031 14.859375 -45.6875 C 14.796875 -43.664062 14.765625 -42.289062 14.765625 -41.5625 C 14.765625 -41.1875 14.78125 -40.816406 14.8125 -40.453125 C 14.84375 -40.085938 14.984375 -39.90625 15.234375 -39.90625 C 15.535156 -39.90625 17.1875 -40.238281 20.1875 -40.90625 C 23.0625 -41.644531 25.535156 -42.015625 27.609375 -42.015625 C 29.265625 -42.015625 30.640625 -41.769531 31.734375 -41.28125 C 32.472656 -40.976562 32.929688 -40.734375 33.109375 -40.546875 C 33.296875 -40.359375 33.390625 -40.050781 33.390625 -39.625 C 33.390625 -38.582031 32.289062 -37.269531 30.09375 -35.6875 C 29.78125 -35.375 27.46875 -34.742188 23.15625 -33.796875 C 18.851562 -32.847656 16.332031 -32.375 15.59375 -32.375 C 15.039062 -32.375 14.6875 -32.25 14.53125 -32 C 14.382812 -31.757812 14.28125 -30.9375 14.21875 -29.53125 C 14.09375 -27.394531 14.03125 -24.921875 14.03125 -22.109375 L 14.03125 -21 C 14.03125 -20.207031 14.179688 -19.765625 14.484375 -19.671875 C 14.796875 -19.585938 15.164062 -19.546875 15.59375 -19.546875 C 16.382812 -19.546875 17.726562 -19.632812 19.625 -19.8125 C 20.601562 -19.9375 21.367188 -20.03125 21.921875 -20.09375 C 24.796875 -20.332031 27.304688 -20.453125 29.453125 -20.453125 C 31.953125 -20.453125 34 -20.300781 35.59375 -20 C 36.019531 -19.875 36.265625 -19.78125 36.328125 -19.71875 C 36.390625 -19.65625 36.421875 -19.597656 36.421875 -19.546875 C 36.421875 -19.484375 36.390625 -19.390625 36.328125 -19.265625 C 36.203125 -19.078125 36.140625 -18.863281 36.140625 -18.625 C 36.140625 -18.4375 36.203125 -18.222656 36.328125 -17.984375 C 36.390625 -17.796875 36.421875 -17.609375 36.421875 -17.421875 C 36.421875 -16.941406 36.050781 -16.300781 35.3125 -15.5 C 34.582031 -14.707031 33.421875 -14.035156 31.828125 -13.484375 C 30.054688 -12.804688 26.507812 -12.085938 21.1875 -11.328125 C 15.863281 -10.566406 12.285156 -10.1875 10.453125 -10.1875 C 9.898438 -10.1875 9.472656 -10.21875 9.171875 -10.28125 C 8.128906 -10.519531 6.601562 -11.617188 4.59375 -13.578125 C 3.1875 -14.984375 2.484375 -15.898438 2.484375 -16.328125 C 2.484375 -16.390625 2.507812 -16.453125 2.5625 -16.515625 C 2.625 -16.578125 2.71875 -16.609375 2.84375 -16.609375 C 3.03125 -16.609375 3.273438 -16.878906 3.578125 -17.421875 C 3.878906 -18.035156 4.304688 -18.5 4.859375 -18.8125 C 5.285156 -18.988281 5.546875 -19.441406 5.640625 -20.171875 C 5.734375 -20.910156 5.84375 -23.878906 5.96875 -29.078125 L 5.96875 -29.171875 C 5.96875 -30.515625 5.992188 -32.101562 6.046875 -33.9375 C 6.109375 -35.769531 6.171875 -37.695312 6.234375 -39.71875 C 6.296875 -41.738281 6.328125 -43.175781 6.328125 -44.03125 L 6.609375 -51.921875 L 4.953125 -53.578125 C 3.242188 -55.285156 2.390625 -56.382812 2.390625 -56.875 C 2.390625 -57 2.421875 -57.09375 2.484375 -57.15625 C 2.597656 -57.332031 3.175781 -57.421875 4.21875 -57.421875 C 5.195312 -57.421875 8.070312 -58.09375 12.84375 -59.4375 C 17.3125 -60.789062 20.21875 -61.554688 21.5625 -61.734375 Z M 21.5625 -61.734375 "/></g></g></g><g fill="#c00808" fill-opacity="1"><g transform="translate(117.813173, 116.669878)"><g><path d="M 22.9375 -61.640625 C 23.238281 -61.765625 23.785156 -61.828125 24.578125 -61.828125 C 25.128906 -61.828125 25.804688 -61.796875 26.609375 -61.734375 C 28.316406 -61.609375 29.8125 -61.546875 31.09375 -61.546875 C 32.195312 -61.546875 32.929688 -61.332031 33.296875 -60.90625 C 33.722656 -60.414062 34.304688 -60.082031 35.046875 -59.90625 C 35.773438 -59.78125 36.628906 -59.503906 37.609375 -59.078125 C 38.347656 -58.710938 38.71875 -58.46875 38.71875 -58.34375 C 38.71875 -58.28125 38.5625 -58.15625 38.25 -57.96875 C 37.945312 -57.851562 37.765625 -57.71875 37.703125 -57.5625 C 37.640625 -57.40625 37.609375 -57.269531 37.609375 -57.15625 C 37.609375 -56.96875 37.640625 -56.722656 37.703125 -56.421875 C 37.765625 -56.171875 37.796875 -55.957031 37.796875 -55.78125 C 37.796875 -55.53125 37.734375 -55.328125 37.609375 -55.171875 C 37.484375 -55.023438 37.117188 -54.769531 36.515625 -54.40625 C 35.898438 -54.03125 35.132812 -53.796875 34.21875 -53.703125 C 33.300781 -53.617188 31.035156 -53.546875 27.421875 -53.484375 C 21.984375 -53.359375 18.710938 -53.234375 17.609375 -53.109375 L 15.40625 -52.9375 L 15.140625 -49.625 C 15.015625 -46.8125 14.953125 -44.273438 14.953125 -42.015625 L 14.953125 -38.25 L 17.890625 -38.4375 C 19.910156 -38.625 21.679688 -38.898438 23.203125 -39.265625 C 24.734375 -39.628906 25.625 -39.929688 25.875 -40.171875 C 25.875 -40.234375 26.207031 -40.816406 26.875 -41.921875 C 27.1875 -42.535156 27.554688 -42.84375 27.984375 -42.84375 C 28.410156 -42.84375 28.898438 -42.535156 29.453125 -41.921875 C 29.878906 -41.429688 30.242188 -41.1875 30.546875 -41.1875 C 30.847656 -41.1875 31.03125 -40.910156 31.09375 -40.359375 C 31.15625 -39.867188 31.492188 -39.59375 32.109375 -39.53125 C 32.835938 -39.414062 33.828125 -39.21875 35.078125 -38.9375 C 36.335938 -38.664062 37.0625 -38.46875 37.25 -38.34375 C 37.363281 -38.21875 37.484375 -37.640625 37.609375 -36.609375 C 37.671875 -36.296875 37.703125 -36.019531 37.703125 -35.78125 C 37.703125 -35.46875 37.640625 -35.21875 37.515625 -35.03125 C 37.390625 -34.851562 36.867188 -34.488281 35.953125 -33.9375 C 34.609375 -33.019531 33.140625 -32.453125 31.546875 -32.234375 C 29.960938 -32.023438 27.03125 -31.921875 22.75 -31.921875 C 17.738281 -31.921875 15.203125 -31.769531 15.140625 -31.46875 C 15.078125 -31.21875 14.890625 -28.375 14.578125 -22.9375 C 14.460938 -20 14.34375 -17.992188 14.21875 -16.921875 C 14.09375 -15.847656 13.910156 -15.222656 13.671875 -15.046875 C 13.359375 -14.796875 13.203125 -14.367188 13.203125 -13.765625 C 13.203125 -13.640625 13.203125 -13.515625 13.203125 -13.390625 C 13.265625 -13.210938 13.296875 -13.03125 13.296875 -12.84375 C 13.296875 -12.65625 13.265625 -12.5 13.203125 -12.375 C 13.148438 -12.257812 13.0625 -12.203125 12.9375 -12.203125 L 12.75 -12.203125 C 12.382812 -12.203125 12.003906 -11.988281 11.609375 -11.5625 C 11.210938 -11.132812 11.015625 -10.675781 11.015625 -10.1875 C 11.015625 -9.8125 10.953125 -9.59375 10.828125 -9.53125 C 10.703125 -9.476562 10.609375 -9.453125 10.546875 -9.453125 C 10.367188 -9.453125 10.21875 -9.570312 10.09375 -9.8125 C 9.96875 -10 9.691406 -10.09375 9.265625 -10.09375 C 9.015625 -10.09375 8.738281 -10.0625 8.4375 -10 C 8.007812 -9.9375 7.703125 -9.90625 7.515625 -9.90625 C 7.398438 -9.90625 7.28125 -9.921875 7.15625 -9.953125 C 7.03125 -9.984375 6.9375 -10.179688 6.875 -10.546875 C 6.445312 -12.378906 6.234375 -13.328125 6.234375 -13.390625 C 5.992188 -14.492188 5.875 -18.59375 5.875 -25.6875 C 5.875 -27.15625 5.875 -28.742188 5.875 -30.453125 C 5.9375 -41.648438 6.023438 -48.253906 6.140625 -50.265625 C 6.203125 -51.429688 6.234375 -52.289062 6.234375 -52.84375 C 6.234375 -53.144531 6.21875 -53.445312 6.1875 -53.75 C 6.15625 -54.0625 5.925781 -54.550781 5.5 -55.21875 C 4.894531 -56.132812 4.59375 -56.867188 4.59375 -57.421875 C 4.59375 -57.785156 4.710938 -58.0625 4.953125 -58.25 C 5.441406 -58.613281 9.476562 -59.347656 17.0625 -60.453125 C 20.488281 -61.003906 22.445312 -61.398438 22.9375 -61.640625 Z M 22.9375 -61.640625 "/></g></g></g><g fill="#c00808" fill-opacity="1"><g transform="translate(157.805873, 116.669878)"><g><path d="M 6.609375 -59.4375 L 6.78125 -60.546875 L 11.28125 -60.546875 C 14.21875 -60.546875 15.960938 -60.453125 16.515625 -60.265625 C 17.066406 -60.085938 17.429688 -59.539062 17.609375 -58.625 C 17.671875 -58.4375 17.703125 -57.945312 17.703125 -57.15625 C 17.703125 -54.832031 17.550781 -49.96875 17.25 -42.5625 C 16.882812 -35.40625 16.609375 -28.097656 16.421875 -20.640625 L 16.234375 -12.015625 L 15.3125 -11.734375 C 14.945312 -11.679688 14.765625 -11.625 14.765625 -11.5625 C 14.765625 -11.5 14.796875 -11.46875 14.859375 -11.46875 C 15.160156 -11.46875 15.3125 -11.34375 15.3125 -11.09375 C 15.3125 -11.09375 15.3125 -11.066406 15.3125 -11.015625 C 15.195312 -10.828125 14.953125 -10.734375 14.578125 -10.734375 C 14.210938 -10.734375 14.03125 -10.640625 14.03125 -10.453125 C 14.03125 -10.390625 14.0625 -10.300781 14.125 -10.1875 C 14.1875 -10.125 14.21875 -10.03125 14.21875 -9.90625 L 14.125 -9.71875 L 14.03125 -9.71875 C 13.851562 -9.78125 13.671875 -9.8125 13.484375 -9.8125 C 12.804688 -9.8125 12.46875 -9.476562 12.46875 -8.8125 C 12.46875 -8.320312 12.316406 -8.0625 12.015625 -8.03125 C 11.710938 -8 11.53125 -7.984375 11.46875 -7.984375 C 11.039062 -7.984375 10.671875 -8.164062 10.359375 -8.53125 C 10.054688 -9.019531 9.722656 -9.265625 9.359375 -9.265625 C 8.992188 -9.265625 8.8125 -9.414062 8.8125 -9.71875 C 8.8125 -10.03125 8.597656 -10.398438 8.171875 -10.828125 C 7.367188 -11.804688 6.96875 -18.6875 6.96875 -31.46875 C 6.96875 -33.851562 6.96875 -36.453125 6.96875 -39.265625 C 7.03125 -43.234375 7.0625 -46.441406 7.0625 -48.890625 C 7.0625 -52.617188 7 -54.640625 6.875 -54.953125 C 6.875 -55.253906 6.796875 -55.476562 6.640625 -55.625 C 6.492188 -55.78125 6.328125 -55.859375 6.140625 -55.859375 C 5.835938 -55.859375 5.6875 -56.226562 5.6875 -56.96875 C 5.6875 -57.09375 5.6875 -57.210938 5.6875 -57.328125 C 5.75 -58.128906 5.867188 -58.53125 6.046875 -58.53125 C 6.109375 -58.53125 6.171875 -58.554688 6.234375 -58.609375 C 6.296875 -58.671875 6.359375 -58.78125 6.421875 -58.9375 C 6.484375 -59.09375 6.546875 -59.257812 6.609375 -59.4375 Z M 6.609375 -59.4375 "/></g></g></g><g fill="#c00808" fill-opacity="1"><g transform="translate(181.012649, 116.669878)"><g><path d="M 39.359375 -60 C 40.148438 -60.300781 40.789062 -60.453125 41.28125 -60.453125 C 41.34375 -60.453125 41.492188 -60.4375 41.734375 -60.40625 C 41.984375 -60.375 42.414062 -60.050781 43.03125 -59.4375 C 44.125 -58.34375 44.71875 -57.394531 44.8125 -56.59375 C 44.90625 -55.800781 44.984375 -54.914062 45.046875 -53.9375 C 45.160156 -52.59375 45.21875 -50.820312 45.21875 -48.625 C 45.21875 -47.519531 45.21875 -46.445312 45.21875 -45.40625 C 45.21875 -42.289062 45.160156 -39.570312 45.046875 -37.25 C 44.859375 -33.632812 44.671875 -29.992188 44.484375 -26.328125 C 44.429688 -25.710938 44.34375 -24.859375 44.21875 -23.765625 C 43.601562 -18.679688 43.296875 -15.53125 43.296875 -14.3125 C 43.296875 -14.25 43.3125 -14.1875 43.34375 -14.125 C 43.375 -14.0625 43.390625 -13.972656 43.390625 -13.859375 C 43.390625 -12.878906 43.269531 -11.867188 43.03125 -10.828125 C 42.90625 -10.640625 42.84375 -10.484375 42.84375 -10.359375 C 42.59375 -9.867188 42.316406 -9.515625 42.015625 -9.296875 C 41.710938 -9.085938 41.316406 -8.925781 40.828125 -8.8125 C 40.390625 -8.75 40.050781 -8.71875 39.8125 -8.71875 C 39.625 -8.71875 39.421875 -8.734375 39.203125 -8.765625 C 38.992188 -8.796875 38.523438 -8.992188 37.796875 -9.359375 C 37.242188 -9.660156 36.753906 -9.960938 36.328125 -10.265625 C 35.898438 -10.578125 35.347656 -11.097656 34.671875 -11.828125 C 34.003906 -12.566406 33.441406 -13.347656 32.984375 -14.171875 C 32.523438 -14.992188 31.832031 -16.257812 30.90625 -17.96875 C 29.988281 -19.6875 29.054688 -21.507812 28.109375 -23.4375 C 27.160156 -25.363281 25.894531 -27.945312 24.3125 -31.1875 C 23.082031 -33.332031 21.898438 -35.503906 20.765625 -37.703125 C 19.640625 -39.898438 18.648438 -41.671875 17.796875 -43.015625 C 16.941406 -44.367188 16.421875 -45.046875 16.234375 -45.046875 C 16.054688 -44.796875 15.96875 -37.972656 15.96875 -24.578125 C 16.019531 -22.316406 16.046875 -20.421875 16.046875 -18.890625 C 16.046875 -17.367188 16.019531 -16.207031 15.96875 -15.40625 C 15.78125 -14.1875 15.6875 -13.484375 15.6875 -13.296875 C 15.5625 -12.441406 14.921875 -11.4375 13.765625 -10.28125 C 13.273438 -9.84375 12.828125 -9.578125 12.421875 -9.484375 C 12.023438 -9.398438 11.492188 -9.359375 10.828125 -9.359375 C 9.910156 -9.359375 9.3125 -9.460938 9.03125 -9.671875 C 8.757812 -9.890625 8.441406 -10.425781 8.078125 -11.28125 C 7.703125 -12.019531 7.269531 -12.660156 6.78125 -13.203125 C 6.351562 -13.691406 6.078125 -14.472656 5.953125 -15.546875 C 5.835938 -16.617188 5.78125 -17.304688 5.78125 -17.609375 C 5.71875 -18.410156 5.6875 -19.144531 5.6875 -19.8125 C 5.6875 -20.550781 5.71875 -21.253906 5.78125 -21.921875 C 6.269531 -25.472656 6.578125 -28.804688 6.703125 -31.921875 C 6.753906 -34.179688 6.78125 -37.148438 6.78125 -40.828125 C 6.78125 -42.660156 6.765625 -45.773438 6.734375 -50.171875 C 6.710938 -54.578125 6.703125 -57.085938 6.703125 -57.703125 C 6.703125 -58.679688 6.914062 -59.257812 7.34375 -59.4375 C 7.832031 -59.6875 8.378906 -59.8125 8.984375 -59.8125 C 9.109375 -59.8125 9.234375 -59.8125 9.359375 -59.8125 C 9.535156 -59.8125 9.882812 -59.796875 10.40625 -59.765625 C 10.925781 -59.734375 11.613281 -59.503906 12.46875 -59.078125 C 14.363281 -58.160156 16.867188 -55.421875 19.984375 -50.859375 C 23.109375 -46.304688 26.753906 -41.003906 30.921875 -34.953125 C 33.179688 -31.710938 34.675781 -29.722656 35.40625 -28.984375 C 35.59375 -30.273438 35.75 -35.140625 35.875 -43.578125 C 35.988281 -50.972656 36.234375 -55.128906 36.609375 -56.046875 C 36.972656 -56.898438 37.335938 -57.722656 37.703125 -58.515625 C 38.066406 -59.316406 38.460938 -59.71875 38.890625 -59.71875 C 38.890625 -59.71875 38.921875 -59.71875 38.984375 -59.71875 C 38.984375 -59.78125 39.109375 -59.875 39.359375 -60 Z M 39.171875 -59.625 C 39.234375 -59.625 39.328125 -59.625 39.453125 -59.625 C 39.328125 -59.625 39.203125 -59.625 39.078125 -59.625 Z M 39.171875 -59.625 "/></g></g></g><g fill="#c00808" fill-opacity="1"><g transform="translate(231.829051, 116.669878)"><g><path d="M 6.609375 -59.4375 L 6.78125 -60.546875 L 11.28125 -60.546875 C 14.21875 -60.546875 15.960938 -60.453125 16.515625 -60.265625 C 17.066406 -60.085938 17.429688 -59.539062 17.609375 -58.625 C 17.671875 -58.4375 17.703125 -57.945312 17.703125 -57.15625 C 17.703125 -54.832031 17.550781 -49.96875 17.25 -42.5625 C 16.882812 -35.40625 16.609375 -28.097656 16.421875 -20.640625 L 16.234375 -12.015625 L 15.3125 -11.734375 C 14.945312 -11.679688 14.765625 -11.625 14.765625 -11.5625 C 14.765625 -11.5 14.796875 -11.46875 14.859375 -11.46875 C 15.160156 -11.46875 15.3125 -11.34375 15.3125 -11.09375 C 15.3125 -11.09375 15.3125 -11.066406 15.3125 -11.015625 C 15.195312 -10.828125 14.953125 -10.734375 14.578125 -10.734375 C 14.210938 -10.734375 14.03125 -10.640625 14.03125 -10.453125 C 14.03125 -10.390625 14.0625 -10.300781 14.125 -10.1875 C 14.1875 -10.125 14.21875 -10.03125 14.21875 -9.90625 L 14.125 -9.71875 L 14.03125 -9.71875 C 13.851562 -9.78125 13.671875 -9.8125 13.484375 -9.8125 C 12.804688 -9.8125 12.46875 -9.476562 12.46875 -8.8125 C 12.46875 -8.320312 12.316406 -8.0625 12.015625 -8.03125 C 11.710938 -8 11.53125 -7.984375 11.46875 -7.984375 C 11.039062 -7.984375 10.671875 -8.164062 10.359375 -8.53125 C 10.054688 -9.019531 9.722656 -9.265625 9.359375 -9.265625 C 8.992188 -9.265625 8.8125 -9.414062 8.8125 -9.71875 C 8.8125 -10.03125 8.597656 -10.398438 8.171875 -10.828125 C 7.367188 -11.804688 6.96875 -18.6875 6.96875 -31.46875 C 6.96875 -33.851562 6.96875 -36.453125 6.96875 -39.265625 C 7.03125 -43.234375 7.0625 -46.441406 7.0625 -48.890625 C 7.0625 -52.617188 7 -54.640625 6.875 -54.953125 C 6.875 -55.253906 6.796875 -55.476562 6.640625 -55.625 C 6.492188 -55.78125 6.328125 -55.859375 6.140625 -55.859375 C 5.835938 -55.859375 5.6875 -56.226562 5.6875 -56.96875 C 5.6875 -57.09375 5.6875 -57.210938 5.6875 -57.328125 C 5.75 -58.128906 5.867188 -58.53125 6.046875 -58.53125 C 6.109375 -58.53125 6.171875 -58.554688 6.234375 -58.609375 C 6.296875 -58.671875 6.359375 -58.78125 6.421875 -58.9375 C 6.484375 -59.09375 6.546875 -59.257812 6.609375 -59.4375 Z M 6.609375 -59.4375 "/></g></g></g><g fill="#c00808" fill-opacity="1"><g transform="translate(255.035816, 116.669878)"><g><path d="M 15.78125 -61.28125 C 17 -61.644531 18.128906 -61.84375 19.171875 -61.875 C 20.210938 -61.90625 20.851562 -61.921875 21.09375 -61.921875 C 22.625 -61.921875 24.003906 -61.769531 25.234375 -61.46875 C 26.453125 -61.21875 27.703125 -60.632812 28.984375 -59.71875 C 29.785156 -59.164062 30.257812 -58.765625 30.40625 -58.515625 C 30.5625 -58.273438 30.640625 -57.972656 30.640625 -57.609375 C 30.640625 -57.484375 30.640625 -57.363281 30.640625 -57.25 C 30.515625 -56.507812 30.363281 -56.046875 30.1875 -55.859375 C 30.125 -55.804688 30.03125 -55.78125 29.90625 -55.78125 C 29.476562 -55.78125 28.648438 -55.992188 27.421875 -56.421875 C 25.835938 -57.023438 24.707031 -57.328125 24.03125 -57.328125 C 22.988281 -57.328125 21.289062 -56.609375 18.9375 -55.171875 C 16.582031 -53.734375 15.007812 -52.46875 14.21875 -51.375 C 13.539062 -50.394531 13.078125 -49.503906 12.828125 -48.703125 C 12.585938 -47.910156 12.441406 -46.8125 12.390625 -45.40625 C 12.390625 -45.039062 12.390625 -44.734375 12.390625 -44.484375 C 12.390625 -42.835938 12.660156 -42.015625 13.203125 -42.015625 C 13.203125 -42.015625 13.234375 -42.015625 13.296875 -42.015625 C 13.484375 -42.015625 13.640625 -42.078125 13.765625 -42.203125 C 14.003906 -42.441406 14.15625 -42.5625 14.21875 -42.5625 C 14.21875 -42.5625 14.234375 -42.546875 14.265625 -42.515625 C 14.296875 -42.484375 14.3125 -42.316406 14.3125 -42.015625 C 14.3125 -41.765625 14.460938 -41.53125 14.765625 -41.3125 C 15.078125 -41.101562 15.691406 -40.910156 16.609375 -40.734375 C 23.816406 -38.710938 28.890625 -35.867188 31.828125 -32.203125 C 32.566406 -31.285156 33.070312 -30.550781 33.34375 -30 C 33.625 -29.445312 33.820312 -28.804688 33.9375 -28.078125 C 34.0625 -27.335938 34.125 -26.570312 34.125 -25.78125 C 34.125 -23.570312 33.421875 -21.226562 32.015625 -18.75 C 30.609375 -16.28125 28.160156 -13.851562 24.671875 -11.46875 C 22.535156 -10.0625 20.804688 -9.160156 19.484375 -8.765625 C 18.171875 -8.367188 16.445312 -8.171875 14.3125 -8.171875 C 14.007812 -8.171875 13.703125 -8.171875 13.390625 -8.171875 C 11.679688 -8.222656 10.488281 -8.3125 9.8125 -8.4375 C 9.144531 -8.5625 8.566406 -8.773438 8.078125 -9.078125 C 7.703125 -9.265625 7.4375 -9.429688 7.28125 -9.578125 C 7.132812 -9.734375 7.0625 -9.875 7.0625 -10 L 7.0625 -10.09375 C 7.125 -10.15625 7.15625 -10.1875 7.15625 -10.1875 C 7.15625 -10.300781 7.03125 -10.359375 6.78125 -10.359375 C 6.601562 -10.359375 6.082031 -10.679688 5.21875 -11.328125 C 4.363281 -11.972656 3.9375 -12.382812 3.9375 -12.5625 C 3.9375 -12.6875 4.0625 -12.75 4.3125 -12.75 C 4.5 -12.75 4.710938 -12.71875 4.953125 -12.65625 L 5.96875 -12.46875 L 4.765625 -13.671875 C 4.035156 -14.460938 3.671875 -15.007812 3.671875 -15.3125 L 3.671875 -15.40625 C 3.734375 -15.46875 3.796875 -15.5 3.859375 -15.5 C 4.097656 -15.5 4.585938 -15.164062 5.328125 -14.5 C 5.804688 -14.125 6.257812 -13.875 6.6875 -13.75 C 7.125 -13.632812 7.859375 -13.546875 8.890625 -13.484375 C 9.328125 -13.484375 9.695312 -13.484375 10 -13.484375 C 10.488281 -13.484375 10.914062 -13.515625 11.28125 -13.578125 C 11.644531 -13.640625 12.195312 -13.945312 12.9375 -14.5 C 13.914062 -15.164062 14.585938 -15.710938 14.953125 -16.140625 C 15.140625 -16.390625 15.257812 -16.515625 15.3125 -16.515625 C 15.375 -16.515625 15.40625 -16.484375 15.40625 -16.421875 C 15.40625 -16.359375 15.421875 -16.3125 15.453125 -16.28125 C 15.484375 -16.25 15.53125 -16.234375 15.59375 -16.234375 C 15.65625 -16.234375 15.734375 -16.265625 15.828125 -16.328125 C 15.921875 -16.390625 16.023438 -16.453125 16.140625 -16.515625 C 16.566406 -16.753906 16.78125 -16.9375 16.78125 -17.0625 L 16.78125 -17.15625 C 16.78125 -17.394531 17.179688 -17.882812 17.984375 -18.625 C 18.648438 -19.175781 19.457031 -20.304688 20.40625 -22.015625 C 21.351562 -23.722656 21.828125 -24.882812 21.828125 -25.5 C 21.828125 -26.90625 21.1875 -28.21875 19.90625 -29.4375 C 18.625 -30.664062 16.941406 -31.585938 14.859375 -32.203125 C 13.328125 -32.628906 11.613281 -33.285156 9.71875 -34.171875 C 7.820312 -35.054688 6.644531 -35.757812 6.1875 -36.28125 C 5.726562 -36.800781 5.101562 -37.976562 4.3125 -39.8125 C 3.394531 -41.832031 2.9375 -43.878906 2.9375 -45.953125 C 2.9375 -47.179688 3.085938 -48.375 3.390625 -49.53125 C 4.859375 -55.21875 8.988281 -59.132812 15.78125 -61.28125 Z M 15.78125 -61.28125 "/></g></g></g><g fill="#c00808" fill-opacity="1"><g transform="translate(291.634639, 116.669878)"><g><path d="M 6.609375 -59.4375 L 6.78125 -60.546875 L 11.28125 -60.546875 C 14.21875 -60.546875 15.960938 -60.453125 16.515625 -60.265625 C 17.066406 -60.085938 17.429688 -59.539062 17.609375 -58.625 C 17.671875 -58.4375 17.703125 -57.945312 17.703125 -57.15625 C 17.703125 -54.832031 17.550781 -49.96875 17.25 -42.5625 C 16.882812 -35.40625 16.609375 -28.097656 16.421875 -20.640625 L 16.234375 -12.015625 L 15.3125 -11.734375 C 14.945312 -11.679688 14.765625 -11.625 14.765625 -11.5625 C 14.765625 -11.5 14.796875 -11.46875 14.859375 -11.46875 C 15.160156 -11.46875 15.3125 -11.34375 15.3125 -11.09375 C 15.3125 -11.09375 15.3125 -11.066406 15.3125 -11.015625 C 15.195312 -10.828125 14.953125 -10.734375 14.578125 -10.734375 C 14.210938 -10.734375 14.03125 -10.640625 14.03125 -10.453125 C 14.03125 -10.390625 14.0625 -10.300781 14.125 -10.1875 C 14.1875 -10.125 14.21875 -10.03125 14.21875 -9.90625 L 14.125 -9.71875 L 14.03125 -9.71875 C 13.851562 -9.78125 13.671875 -9.8125 13.484375 -9.8125 C 12.804688 -9.8125 12.46875 -9.476562 12.46875 -8.8125 C 12.46875 -8.320312 12.316406 -8.0625 12.015625 -8.03125 C 11.710938 -8 11.53125 -7.984375 11.46875 -7.984375 C 11.039062 -7.984375 10.671875 -8.164062 10.359375 -8.53125 C 10.054688 -9.019531 9.722656 -9.265625 9.359375 -9.265625 C 8.992188 -9.265625 8.8125 -9.414062 8.8125 -9.71875 C 8.8125 -10.03125 8.597656 -10.398438 8.171875 -10.828125 C 7.367188 -11.804688 6.96875 -18.6875 6.96875 -31.46875 C 6.96875 -33.851562 6.96875 -36.453125 6.96875 -39.265625 C 7.03125 -43.234375 7.0625 -46.441406 7.0625 -48.890625 C 7.0625 -52.617188 7 -54.640625 6.875 -54.953125 C 6.875 -55.253906 6.796875 -55.476562 6.640625 -55.625 C 6.492188 -55.78125 6.328125 -55.859375 6.140625 -55.859375 C 5.835938 -55.859375 5.6875 -56.226562 5.6875 -56.96875 C 5.6875 -57.09375 5.6875 -57.210938 5.6875 -57.328125 C 5.75 -58.128906 5.867188 -58.53125 6.046875 -58.53125 C 6.109375 -58.53125 6.171875 -58.554688 6.234375 -58.609375 C 6.296875 -58.671875 6.359375 -58.78125 6.421875 -58.9375 C 6.484375 -59.09375 6.546875 -59.257812 6.609375 -59.4375 Z M 6.609375 -59.4375 "/></g></g></g></svg>