<svg xmlns="http://www.w3.org/2000/svg" xmlns:xlink="http://www.w3.org/1999/xlink" width="745" zoomAndPan="magnify" viewBox="0 0 558.75 172.499995" height="230" preserveAspectRatio="xMidYMid meet" version="1.0"><defs><g/><clipPath id="df8b1c62e9"><path d="M 225.148438 62.433594 L 231.386719 62.433594 L 231.386719 68.671875 L 225.148438 68.671875 Z M 225.148438 62.433594 " clip-rule="nonzero"/></clipPath><clipPath id="6e5542d054"><path d="M 228.265625 62.433594 C 226.542969 62.433594 225.148438 63.832031 225.148438 65.554688 C 225.148438 67.273438 226.542969 68.671875 228.265625 68.671875 C 229.988281 68.671875 231.386719 67.273438 231.386719 65.554688 C 231.386719 63.832031 229.988281 62.433594 228.265625 62.433594 Z M 228.265625 62.433594 " clip-rule="nonzero"/></clipPath></defs><g clip-path="url(#df8b1c62e9)"><g clip-path="url(#6e5542d054)"><path fill="#3a110c" d="M 225.148438 62.433594 L 231.386719 62.433594 L 231.386719 68.671875 L 225.148438 68.671875 Z M 225.148438 62.433594 " fill-opacity="1" fill-rule="nonzero"/></g></g><path fill="#c00808" d="M 31.574219 121.90625 L 526.347656 121.90625 L 526.347656 130.878906 L 31.574219 130.878906 Z M 31.574219 121.90625 " fill-opacity="1" fill-rule="nonzero"/><g fill="#c00808" fill-opacity="1"><g transform="translate(31.57479, 116.669878)"><g><path d="M 25.234375 -61 C 25.898438 -61.1875 26.90625 -61.28125 28.25 -61.28125 C 28.800781 -61.28125 29.796875 -61.25 31.234375 -61.1875 C 32.671875 -61.125 33.847656 -60.972656 34.765625 -60.734375 C 35.929688 -60.359375 37.171875 -59.742188 38.484375 -58.890625 C 39.796875 -58.035156 40.757812 -57.210938 41.375 -56.421875 C 42.351562 -55.128906 42.898438 -53.8125 43.015625 -52.46875 C 43.140625 -51.125 43.203125 -50.175781 43.203125 -49.625 C 43.203125 -48.039062 42.988281 -46.515625 42.5625 -45.046875 C 41.707031 -42.234375 39.476562 -39.660156 35.875 -37.328125 L 33.390625 -35.59375 L 35.21875 -34.953125 C 36.507812 -34.585938 37.644531 -33.945312 38.625 -33.03125 C 39.90625 -31.863281 40.835938 -30.175781 41.421875 -27.96875 C 42.003906 -25.769531 42.476562 -21.953125 42.84375 -16.515625 L 43.109375 -12.75 L 42.015625 -10.921875 C 41.398438 -10.003906 40.925781 -9.4375 40.59375 -9.21875 C 40.257812 -9 39.476562 -8.832031 38.25 -8.71875 C 37.882812 -8.71875 37.519531 -8.71875 37.15625 -8.71875 C 35.320312 -8.71875 34.160156 -9.144531 33.671875 -10 C 33.546875 -10.363281 33.175781 -11.1875 32.5625 -12.46875 C 32.070312 -13.394531 31.703125 -14.726562 31.453125 -16.46875 C 31.210938 -18.207031 30.972656 -21.003906 30.734375 -24.859375 C 30.484375 -28.710938 30.300781 -30.851562 30.1875 -31.28125 C 30.0625 -31.519531 29.613281 -31.6875 28.84375 -31.78125 C 28.082031 -31.875 26.144531 -31.921875 23.03125 -31.921875 L 16.140625 -31.921875 L 15.96875 -29.625 C 15.78125 -28.21875 15.5625 -25.316406 15.3125 -20.921875 C 15.132812 -16.640625 14.921875 -14.253906 14.671875 -13.765625 C 14.554688 -13.390625 14.253906 -12.972656 13.765625 -12.515625 C 13.273438 -12.054688 12.875 -11.828125 12.5625 -11.828125 C 12.445312 -11.828125 12.34375 -11.75 12.25 -11.59375 C 12.15625 -11.445312 12.109375 -11.253906 12.109375 -11.015625 C 12.109375 -10.578125 12.015625 -10.3125 11.828125 -10.21875 C 11.648438 -10.132812 11.101562 -10.09375 10.1875 -10.09375 C 9.269531 -10.09375 8.65625 -10.148438 8.34375 -10.265625 C 8.039062 -10.390625 7.675781 -10.726562 7.25 -11.28125 C 6.632812 -12.070312 6.234375 -13.234375 6.046875 -14.765625 C 5.804688 -16.359375 5.6875 -19.492188 5.6875 -24.171875 C 5.6875 -28.847656 5.804688 -32.503906 6.046875 -35.140625 C 6.296875 -38.015625 6.484375 -42.445312 6.609375 -48.4375 C 6.671875 -54.675781 6.757812 -57.882812 6.875 -58.0625 C 7.0625 -58.3125 7.503906 -58.4375 8.203125 -58.4375 C 8.910156 -58.4375 9.265625 -58.523438 9.265625 -58.703125 C 9.265625 -59.015625 9.382812 -59.1875 9.625 -59.21875 C 9.875 -59.25 10.0625 -59.265625 10.1875 -59.265625 C 10.488281 -59.265625 10.789062 -59.171875 11.09375 -58.984375 C 11.582031 -58.679688 11.953125 -58.53125 12.203125 -58.53125 C 12.378906 -58.53125 12.46875 -58.648438 12.46875 -58.890625 C 12.46875 -59.203125 12.773438 -59.359375 13.390625 -59.359375 C 13.453125 -59.359375 13.546875 -59.359375 13.671875 -59.359375 C 14.160156 -59.359375 14.460938 -59.3125 14.578125 -59.21875 C 14.703125 -59.125 14.765625 -58.863281 14.765625 -58.4375 C 14.765625 -58.070312 14.8125 -57.84375 14.90625 -57.75 C 15 -57.65625 15.132812 -57.609375 15.3125 -57.609375 C 15.375 -57.609375 15.46875 -57.609375 15.59375 -57.609375 C 16.144531 -57.671875 16.816406 -57.945312 17.609375 -58.4375 C 18.097656 -58.738281 19.257812 -59.195312 21.09375 -59.8125 C 22.925781 -60.425781 24.304688 -60.820312 25.234375 -61 Z M 29.453125 -55.3125 C 28.585938 -55.4375 27.664062 -55.5 26.6875 -55.5 C 24.1875 -55.5 21.253906 -55.070312 17.890625 -54.21875 L 16.609375 -53.84375 L 16.328125 -50.09375 C 16.203125 -48.132812 16.140625 -45.316406 16.140625 -41.640625 L 16.046875 -36.78125 L 17.421875 -37.0625 C 19.929688 -37.550781 22.300781 -38.515625 24.53125 -39.953125 C 26.769531 -41.390625 28.5625 -43.097656 29.90625 -45.078125 C 31.25 -47.066406 31.921875 -49.039062 31.921875 -51 C 31.921875 -51.1875 31.921875 -51.375 31.921875 -51.5625 C 31.921875 -52.71875 31.738281 -53.597656 31.375 -54.203125 C 31.007812 -54.816406 30.367188 -55.1875 29.453125 -55.3125 Z M 29.453125 -55.3125 "/></g></g></g><g fill="#c00808" fill-opacity="1"><g transform="translate(77.529711, 116.669878)"><g><path d="M 22.46875 -60.09375 C 22.78125 -60.394531 23.210938 -60.546875 23.765625 -60.546875 C 23.816406 -60.546875 24.023438 -60.53125 24.390625 -60.5 C 24.765625 -60.46875 25.316406 -60.269531 26.046875 -59.90625 C 26.960938 -59.476562 28.046875 -58.039062 29.296875 -55.59375 C 30.554688 -53.144531 32.5625 -48.617188 35.3125 -42.015625 C 36.65625 -38.523438 37.546875 -36.722656 37.984375 -36.609375 C 38.410156 -36.484375 38.625 -36.238281 38.625 -35.875 C 38.625 -35.625 38.53125 -35.5 38.34375 -35.5 C 38.15625 -35.5 38.0625 -35.4375 38.0625 -35.3125 C 38.0625 -35.195312 38.15625 -34.984375 38.34375 -34.671875 C 38.707031 -34.066406 38.984375 -33.273438 39.171875 -32.296875 C 39.898438 -30.765625 40.632812 -28.925781 41.375 -26.78125 C 42.90625 -22.257812 43.820312 -18.625 44.125 -15.875 C 44.125 -15.625 44.078125 -14.75 43.984375 -13.25 C 43.890625 -11.757812 42.5625 -10.796875 40 -10.359375 C 39.75 -10.359375 39.535156 -10.359375 39.359375 -10.359375 C 39.046875 -10.359375 38.765625 -10.390625 38.515625 -10.453125 C 38.273438 -10.515625 37.910156 -10.726562 37.421875 -11.09375 C 36.753906 -11.707031 36.019531 -12.597656 35.21875 -13.765625 C 34.726562 -14.554688 34.316406 -15.070312 33.984375 -15.3125 C 33.648438 -15.5625 33.175781 -15.78125 32.5625 -15.96875 C 31.832031 -16.144531 31.253906 -16.414062 30.828125 -16.78125 C 30.398438 -17.15625 30.1875 -17.523438 30.1875 -17.890625 C 30.1875 -18.066406 30.644531 -18.21875 31.5625 -18.34375 L 33.03125 -18.625 L 32.46875 -20.734375 C 32.101562 -21.890625 31.445312 -23.738281 30.5 -26.28125 C 29.550781 -28.820312 28.894531 -30.09375 28.53125 -30.09375 C 28.40625 -30.09375 27.363281 -29.445312 25.40625 -28.15625 C 23.695312 -27.0625 22.597656 -26.46875 22.109375 -26.375 C 21.617188 -26.28125 21.25 -26.234375 21 -26.234375 C 20.269531 -26.234375 19.320312 -26.445312 18.15625 -26.875 C 17.238281 -27.238281 16.628906 -27.421875 16.328125 -27.421875 C 16.203125 -27.421875 16.109375 -27.394531 16.046875 -27.34375 C 15.867188 -27.15625 15.257812 -25.503906 14.21875 -22.390625 C 12.9375 -18.835938 11.941406 -16.3125 11.234375 -14.8125 C 10.535156 -13.3125 9.753906 -12.226562 8.890625 -11.5625 C 8.347656 -11.070312 8.015625 -10.8125 7.890625 -10.78125 C 7.765625 -10.75 7.671875 -10.734375 7.609375 -10.734375 C 7.492188 -10.734375 7.40625 -10.851562 7.34375 -11.09375 C 7.21875 -11.34375 7.109375 -11.46875 7.015625 -11.46875 C 6.921875 -11.46875 6.722656 -11.316406 6.421875 -11.015625 C 6.054688 -10.640625 5.75 -10.453125 5.5 -10.453125 C 5.4375 -10.453125 5.34375 -10.46875 5.21875 -10.5 C 5.101562 -10.53125 4.800781 -10.789062 4.3125 -11.28125 C 4.007812 -11.582031 3.796875 -11.976562 3.671875 -12.46875 C 3.546875 -12.957031 3.421875 -13.753906 3.296875 -14.859375 C 3.234375 -15.535156 3.203125 -16.117188 3.203125 -16.609375 C 3.203125 -16.910156 3.25 -17.304688 3.34375 -17.796875 C 3.4375 -18.285156 3.695312 -19.082031 4.125 -20.1875 C 4.800781 -21.894531 5.441406 -23.359375 6.046875 -24.578125 C 6.421875 -25.378906 7.128906 -26.910156 8.171875 -29.171875 C 8.960938 -30.941406 9.675781 -32.773438 10.3125 -34.671875 C 10.957031 -36.566406 12.6875 -41.488281 15.5 -49.4375 C 17.519531 -55.3125 18.773438 -58.398438 19.265625 -58.703125 C 19.753906 -59.015625 20 -59.351562 20 -59.71875 C 20 -60.019531 20.039062 -60.171875 20.125 -60.171875 C 20.21875 -60.171875 20.570312 -60.082031 21.1875 -59.90625 C 21.4375 -59.78125 21.648438 -59.71875 21.828125 -59.71875 C 22.140625 -59.71875 22.351562 -59.84375 22.46875 -60.09375 Z M 25.40625 -42.296875 C 24.25 -45.710938 23.546875 -47.515625 23.296875 -47.703125 C 23.296875 -47.765625 23.265625 -47.796875 23.203125 -47.796875 C 23.140625 -47.796875 23.078125 -47.765625 23.015625 -47.703125 C 22.960938 -47.640625 22.8125 -47.347656 22.5625 -46.828125 C 22.320312 -46.304688 22.0625 -45.632812 21.78125 -44.8125 C 21.507812 -43.988281 21.066406 -42.71875 20.453125 -41 C 18.804688 -36.050781 17.984375 -33.238281 17.984375 -32.5625 C 17.984375 -32.4375 17.984375 -32.375 17.984375 -32.375 C 18.046875 -32.320312 18.101562 -32.296875 18.15625 -32.296875 C 18.832031 -32.296875 21.097656 -33.023438 24.953125 -34.484375 C 26.359375 -34.972656 27.078125 -35.382812 27.109375 -35.71875 C 27.140625 -36.0625 27.15625 -36.265625 27.15625 -36.328125 C 27.15625 -36.992188 26.570312 -38.984375 25.40625 -42.296875 Z M 25.40625 -42.296875 "/></g></g></g><g fill="#c00808" fill-opacity="1"><g transform="translate(124.493617, 116.669878)"><g><path d="M 25.59375 -60.546875 C 27.613281 -61.035156 28.742188 -61.28125 28.984375 -61.28125 C 29.109375 -61.28125 29.203125 -61.28125 29.265625 -61.28125 C 30.304688 -61.28125 31.46875 -60.695312 32.75 -59.53125 C 34.03125 -58.375 34.671875 -57.335938 34.671875 -56.421875 C 34.671875 -56.359375 34.671875 -56.265625 34.671875 -56.140625 C 34.492188 -55.285156 34.40625 -54.765625 34.40625 -54.578125 C 34.28125 -54.210938 33.632812 -54 32.46875 -53.9375 C 30.207031 -53.757812 27.671875 -52.921875 24.859375 -51.421875 C 22.046875 -49.921875 19.84375 -48.191406 18.25 -46.234375 C 16.113281 -43.722656 14.660156 -41 13.890625 -38.0625 C 13.128906 -35.132812 12.71875 -32.78125 12.65625 -31 C 12.65625 -30.757812 12.65625 -30.488281 12.65625 -30.1875 C 12.65625 -27.25 13.3125 -24.753906 14.625 -22.703125 C 15.945312 -20.648438 17.492188 -19.472656 19.265625 -19.171875 C 20.054688 -19.046875 20.789062 -18.984375 21.46875 -18.984375 C 22.75 -18.984375 24.0625 -19.242188 25.40625 -19.765625 C 26.75 -20.285156 28.035156 -21.28125 29.265625 -22.75 C 30.421875 -24.09375 31.101562 -25.191406 31.3125 -26.046875 C 31.53125 -26.910156 31.640625 -27.953125 31.640625 -29.171875 L 31.640625 -32.296875 L 28.25 -32.296875 C 26.539062 -32.296875 25.472656 -32.335938 25.046875 -32.421875 C 24.617188 -32.515625 24.097656 -32.867188 23.484375 -33.484375 C 22.753906 -34.097656 22.390625 -34.554688 22.390625 -34.859375 C 22.390625 -34.921875 22.390625 -34.953125 22.390625 -34.953125 C 22.390625 -35.015625 22.414062 -35.078125 22.46875 -35.140625 C 22.65625 -35.503906 23.941406 -36.050781 26.328125 -36.78125 C 28.835938 -37.582031 30.347656 -38.101562 30.859375 -38.34375 C 31.378906 -38.59375 31.640625 -38.929688 31.640625 -39.359375 C 31.640625 -39.898438 31.734375 -40.203125 31.921875 -40.265625 C 32.773438 -40.328125 33.847656 -40.453125 35.140625 -40.640625 C 35.503906 -40.703125 35.867188 -40.734375 36.234375 -40.734375 C 36.359375 -40.734375 36.585938 -40.71875 36.921875 -40.6875 C 37.253906 -40.65625 37.851562 -40.425781 38.71875 -40 C 39.8125 -39.445312 40.476562 -39.0625 40.71875 -38.84375 C 40.96875 -38.632812 41.1875 -38.039062 41.375 -37.0625 C 41.550781 -36.144531 41.640625 -34.738281 41.640625 -32.84375 C 41.640625 -31.925781 41.613281 -30.851562 41.5625 -29.625 C 40.695312 -17.269531 40.175781 -11.09375 40 -11.09375 C 39.9375 -11.15625 39.875 -11.1875 39.8125 -11.1875 C 39.625 -11.1875 39.347656 -10.972656 38.984375 -10.546875 C 38.617188 -10.117188 38.4375 -9.785156 38.4375 -9.546875 L 38.4375 -9.265625 C 38.4375 -9.203125 38.390625 -9.109375 38.296875 -8.984375 C 38.203125 -8.867188 38.046875 -8.796875 37.828125 -8.765625 C 37.617188 -8.734375 37.394531 -8.71875 37.15625 -8.71875 C 36.96875 -8.71875 36.875 -8.625 36.875 -8.4375 C 36.875 -8.195312 36.8125 -8.078125 36.6875 -8.078125 C 36.632812 -8.078125 36.578125 -8.078125 36.515625 -8.078125 C 36.265625 -8.191406 36.109375 -8.460938 36.046875 -8.890625 L 35.875 -9.71875 L 35.59375 -8.890625 C 35.40625 -8.347656 35.21875 -8.078125 35.03125 -8.078125 C 34.851562 -8.078125 34.582031 -8.289062 34.21875 -8.71875 C 33.050781 -10.125 32.253906 -11.863281 31.828125 -13.9375 L 31.640625 -15.6875 L 30.453125 -14.859375 C 27.703125 -12.660156 25.238281 -11.4375 23.0625 -11.1875 C 20.894531 -10.945312 19.476562 -10.828125 18.8125 -10.828125 C 16.113281 -10.828125 13.632812 -11.5 11.375 -12.84375 C 9.050781 -14.25 7.1875 -16.296875 5.78125 -18.984375 C 4.375 -21.679688 3.578125 -24.984375 3.390625 -28.890625 C 3.390625 -29.441406 3.390625 -29.992188 3.390625 -30.546875 C 3.390625 -38.984375 6.082031 -46.140625 11.46875 -52.015625 C 15.5 -56.472656 20.207031 -59.316406 25.59375 -60.546875 Z M 38.984375 -10.1875 C 38.984375 -10.300781 39.015625 -10.390625 39.078125 -10.453125 C 39.140625 -10.515625 39.171875 -10.546875 39.171875 -10.546875 C 39.234375 -10.546875 39.296875 -10.515625 39.359375 -10.453125 C 39.597656 -10.335938 39.71875 -10.15625 39.71875 -9.90625 C 39.71875 -9.71875 39.59375 -9.625 39.34375 -9.625 C 39.101562 -9.625 38.984375 -9.8125 38.984375 -10.1875 Z M 38.984375 -10.1875 "/></g></g></g><g fill="#c00808" fill-opacity="1"><g transform="translate(168.889189, 116.669878)"><g><path d="M 22.46875 -60.09375 C 22.78125 -60.394531 23.210938 -60.546875 23.765625 -60.546875 C 23.816406 -60.546875 24.023438 -60.53125 24.390625 -60.5 C 24.765625 -60.46875 25.316406 -60.269531 26.046875 -59.90625 C 26.960938 -59.476562 28.046875 -58.039062 29.296875 -55.59375 C 30.554688 -53.144531 32.5625 -48.617188 35.3125 -42.015625 C 36.65625 -38.523438 37.546875 -36.722656 37.984375 -36.609375 C 38.410156 -36.484375 38.625 -36.238281 38.625 -35.875 C 38.625 -35.625 38.53125 -35.5 38.34375 -35.5 C 38.15625 -35.5 38.0625 -35.4375 38.0625 -35.3125 C 38.0625 -35.195312 38.15625 -34.984375 38.34375 -34.671875 C 38.707031 -34.066406 38.984375 -33.273438 39.171875 -32.296875 C 39.898438 -30.765625 40.632812 -28.925781 41.375 -26.78125 C 42.90625 -22.257812 43.820312 -18.625 44.125 -15.875 C 44.125 -15.625 44.078125 -14.75 43.984375 -13.25 C 43.890625 -11.757812 42.5625 -10.796875 40 -10.359375 C 39.75 -10.359375 39.535156 -10.359375 39.359375 -10.359375 C 39.046875 -10.359375 38.765625 -10.390625 38.515625 -10.453125 C 38.273438 -10.515625 37.910156 -10.726562 37.421875 -11.09375 C 36.753906 -11.707031 36.019531 -12.597656 35.21875 -13.765625 C 34.726562 -14.554688 34.316406 -15.070312 33.984375 -15.3125 C 33.648438 -15.5625 33.175781 -15.78125 32.5625 -15.96875 C 31.832031 -16.144531 31.253906 -16.414062 30.828125 -16.78125 C 30.398438 -17.15625 30.1875 -17.523438 30.1875 -17.890625 C 30.1875 -18.066406 30.644531 -18.21875 31.5625 -18.34375 L 33.03125 -18.625 L 32.46875 -20.734375 C 32.101562 -21.890625 31.445312 -23.738281 30.5 -26.28125 C 29.550781 -28.820312 28.894531 -30.09375 28.53125 -30.09375 C 28.40625 -30.09375 27.363281 -29.445312 25.40625 -28.15625 C 23.695312 -27.0625 22.597656 -26.46875 22.109375 -26.375 C 21.617188 -26.28125 21.25 -26.234375 21 -26.234375 C 20.269531 -26.234375 19.320312 -26.445312 18.15625 -26.875 C 17.238281 -27.238281 16.628906 -27.421875 16.328125 -27.421875 C 16.203125 -27.421875 16.109375 -27.394531 16.046875 -27.34375 C 15.867188 -27.15625 15.257812 -25.503906 14.21875 -22.390625 C 12.9375 -18.835938 11.941406 -16.3125 11.234375 -14.8125 C 10.535156 -13.3125 9.753906 -12.226562 8.890625 -11.5625 C 8.347656 -11.070312 8.015625 -10.8125 7.890625 -10.78125 C 7.765625 -10.75 7.671875 -10.734375 7.609375 -10.734375 C 7.492188 -10.734375 7.40625 -10.851562 7.34375 -11.09375 C 7.21875 -11.34375 7.109375 -11.46875 7.015625 -11.46875 C 6.921875 -11.46875 6.722656 -11.316406 6.421875 -11.015625 C 6.054688 -10.640625 5.75 -10.453125 5.5 -10.453125 C 5.4375 -10.453125 5.34375 -10.46875 5.21875 -10.5 C 5.101562 -10.53125 4.800781 -10.789062 4.3125 -11.28125 C 4.007812 -11.582031 3.796875 -11.976562 3.671875 -12.46875 C 3.546875 -12.957031 3.421875 -13.753906 3.296875 -14.859375 C 3.234375 -15.535156 3.203125 -16.117188 3.203125 -16.609375 C 3.203125 -16.910156 3.25 -17.304688 3.34375 -17.796875 C 3.4375 -18.285156 3.695312 -19.082031 4.125 -20.1875 C 4.800781 -21.894531 5.441406 -23.359375 6.046875 -24.578125 C 6.421875 -25.378906 7.128906 -26.910156 8.171875 -29.171875 C 8.960938 -30.941406 9.675781 -32.773438 10.3125 -34.671875 C 10.957031 -36.566406 12.6875 -41.488281 15.5 -49.4375 C 17.519531 -55.3125 18.773438 -58.398438 19.265625 -58.703125 C 19.753906 -59.015625 20 -59.351562 20 -59.71875 C 20 -60.019531 20.039062 -60.171875 20.125 -60.171875 C 20.21875 -60.171875 20.570312 -60.082031 21.1875 -59.90625 C 21.4375 -59.78125 21.648438 -59.71875 21.828125 -59.71875 C 22.140625 -59.71875 22.351562 -59.84375 22.46875 -60.09375 Z M 25.40625 -42.296875 C 24.25 -45.710938 23.546875 -47.515625 23.296875 -47.703125 C 23.296875 -47.765625 23.265625 -47.796875 23.203125 -47.796875 C 23.140625 -47.796875 23.078125 -47.765625 23.015625 -47.703125 C 22.960938 -47.640625 22.8125 -47.347656 22.5625 -46.828125 C 22.320312 -46.304688 22.0625 -45.632812 21.78125 -44.8125 C 21.507812 -43.988281 21.066406 -42.71875 20.453125 -41 C 18.804688 -36.050781 17.984375 -33.238281 17.984375 -32.5625 C 17.984375 -32.4375 17.984375 -32.375 17.984375 -32.375 C 18.046875 -32.320312 18.101562 -32.296875 18.15625 -32.296875 C 18.832031 -32.296875 21.097656 -33.023438 24.953125 -34.484375 C 26.359375 -34.972656 27.078125 -35.382812 27.109375 -35.71875 C 27.140625 -36.0625 27.15625 -36.265625 27.15625 -36.328125 C 27.15625 -36.992188 26.570312 -38.984375 25.40625 -42.296875 Z M 25.40625 -42.296875 "/></g></g></g><g fill="#c00808" fill-opacity="1"><g transform="translate(215.853095, 116.669878)"><g><path d="M 9.71875 -10.828125 C 9.539062 -10.703125 9.421875 -10.640625 9.359375 -10.640625 C 9.296875 -10.578125 9.203125 -10.546875 9.078125 -10.546875 C 8.285156 -10.609375 7.691406 -10.851562 7.296875 -11.28125 C 6.898438 -11.707031 6.578125 -12.226562 6.328125 -12.84375 C 6.265625 -13.03125 6.203125 -13.179688 6.140625 -13.296875 L 5.6875 -14.21875 C 5.625 -14.40625 5.5625 -14.554688 5.5 -14.671875 C 5.257812 -15.410156 5.078125 -16.207031 4.953125 -17.0625 C 4.828125 -17.914062 4.734375 -18.769531 4.671875 -19.625 C 4.671875 -20.113281 4.671875 -20.570312 4.671875 -21 C 4.671875 -21.4375 4.6875 -21.972656 4.71875 -22.609375 C 4.75 -23.253906 4.796875 -23.941406 4.859375 -24.671875 L 5.046875 -29.265625 C 5.171875 -30.847656 5.289062 -32.453125 5.40625 -34.078125 C 5.53125 -35.703125 5.742188 -37.273438 6.046875 -38.796875 C 6.234375 -39.773438 6.414062 -41.304688 6.59375 -43.390625 C 6.78125 -45.472656 7.03125 -47.644531 7.34375 -49.90625 C 7.644531 -52.164062 7.992188 -54.210938 8.390625 -56.046875 C 8.785156 -57.878906 9.289062 -59.007812 9.90625 -59.4375 C 10.582031 -59.988281 11.191406 -60.34375 11.734375 -60.5 C 12.285156 -60.65625 12.867188 -60.734375 13.484375 -60.734375 C 13.734375 -60.734375 13.945312 -60.734375 14.125 -60.734375 C 16.632812 -60.609375 18.910156 -59.71875 20.953125 -58.0625 C 23.003906 -56.414062 24.851562 -54.472656 26.5 -52.234375 C 28.15625 -50.003906 29.546875 -47.617188 30.671875 -45.078125 C 31.804688 -42.546875 32.835938 -40.363281 33.765625 -38.53125 L 33.84375 -38.34375 L 33.9375 -38.53125 C 34.425781 -39.507812 34.945312 -40.457031 35.5 -41.375 C 36.050781 -42.289062 36.632812 -43.269531 37.25 -44.3125 C 38.039062 -45.53125 39.15625 -47.085938 40.59375 -48.984375 C 42.03125 -50.878906 43.632812 -52.695312 45.40625 -54.4375 C 47.175781 -56.1875 48.960938 -57.640625 50.765625 -58.796875 C 52.578125 -59.960938 54.273438 -60.546875 55.859375 -60.546875 C 55.984375 -60.546875 56.140625 -60.546875 56.328125 -60.546875 C 56.816406 -60.546875 57.289062 -60.332031 57.75 -59.90625 C 58.207031 -59.476562 58.632812 -58.957031 59.03125 -58.34375 C 59.425781 -57.726562 59.789062 -57.113281 60.125 -56.5 C 60.46875 -55.894531 60.671875 -55.410156 60.734375 -55.046875 C 60.847656 -54.492188 60.921875 -53.925781 60.953125 -53.34375 C 60.984375 -52.757812 61.0625 -52.222656 61.1875 -51.734375 C 61.613281 -48.128906 61.960938 -44.519531 62.234375 -40.90625 C 62.515625 -37.300781 62.75 -33.695312 62.9375 -30.09375 C 63.050781 -27.769531 63.171875 -25.929688 63.296875 -24.578125 C 63.421875 -23.234375 63.484375 -22.070312 63.484375 -21.09375 C 63.484375 -19.9375 63.421875 -18.710938 63.296875 -17.421875 C 63.296875 -17.054688 63.25 -16.535156 63.15625 -15.859375 C 63.0625 -15.191406 62.96875 -14.488281 62.875 -13.75 C 62.789062 -13.019531 62.671875 -12.347656 62.515625 -11.734375 C 62.359375 -11.128906 62.191406 -10.703125 62.015625 -10.453125 L 61.640625 -10.453125 L 61.09375 -10.640625 C 60.726562 -10.640625 60.40625 -10.625 60.125 -10.59375 C 59.851562 -10.5625 59.535156 -10.394531 59.171875 -10.09375 L 58.34375 -10.09375 C 58.039062 -10.394531 57.6875 -10.789062 57.28125 -11.28125 C 56.882812 -11.769531 56.503906 -12.332031 56.140625 -12.96875 C 55.773438 -13.613281 55.46875 -14.226562 55.21875 -14.8125 C 54.976562 -15.394531 54.828125 -15.867188 54.765625 -16.234375 C 54.578125 -17.023438 54.484375 -17.800781 54.484375 -18.5625 C 54.484375 -19.332031 54.425781 -20.117188 54.3125 -20.921875 C 53.820312 -24.523438 53.515625 -27.867188 53.390625 -30.953125 C 53.265625 -34.046875 53.082031 -37.394531 52.84375 -41 L 52.65625 -44.03125 C 52.65625 -44.332031 52.625 -44.601562 52.5625 -44.84375 C 52.5 -45.09375 52.4375 -45.375 52.375 -45.6875 C 52.257812 -46.113281 52.203125 -46.539062 52.203125 -46.96875 C 52.203125 -47.09375 52.203125 -47.210938 52.203125 -47.328125 L 51.09375 -48.625 L 51 -48.625 C 50.9375 -48.6875 50.847656 -48.71875 50.734375 -48.71875 L 49.4375 -48.796875 L 49.4375 -48.15625 C 49.257812 -47.976562 49.109375 -47.8125 48.984375 -47.65625 C 48.859375 -47.5 48.738281 -47.332031 48.625 -47.15625 C 48.195312 -46.78125 47.859375 -46.472656 47.609375 -46.234375 C 46.691406 -45.503906 45.832031 -44.664062 45.03125 -43.71875 C 44.238281 -42.769531 43.570312 -41.773438 43.03125 -40.734375 C 41.863281 -38.523438 40.757812 -36.273438 39.71875 -33.984375 C 38.675781 -31.691406 37.515625 -29.476562 36.234375 -27.34375 L 34.859375 -27.984375 C 34.304688 -28.160156 33.785156 -28.28125 33.296875 -28.34375 C 33.117188 -28.34375 32.96875 -28.3125 32.84375 -28.25 L 32.75 -28.15625 C 32.382812 -28.039062 32.171875 -27.984375 32.109375 -27.984375 C 31.859375 -28.046875 31.488281 -28.378906 31 -28.984375 C 30.507812 -29.597656 29.957031 -30.378906 29.34375 -31.328125 C 28.738281 -32.273438 28.113281 -33.359375 27.46875 -34.578125 C 26.832031 -35.804688 26.144531 -37.0625 25.40625 -38.34375 C 25.226562 -38.707031 24.847656 -39.457031 24.265625 -40.59375 C 23.679688 -41.726562 23.035156 -42.90625 22.328125 -44.125 C 21.628906 -45.34375 20.941406 -46.441406 20.265625 -47.421875 C 19.597656 -48.398438 19.113281 -48.890625 18.8125 -48.890625 C 18.75 -48.890625 18.6875 -48.890625 18.625 -48.890625 C 18.132812 -48.890625 17.734375 -48.707031 17.421875 -48.34375 C 17.117188 -47.976562 16.859375 -47.535156 16.640625 -47.015625 C 16.429688 -46.492188 16.28125 -45.941406 16.1875 -45.359375 C 16.09375 -44.773438 16.046875 -44.300781 16.046875 -43.9375 C 15.992188 -43.570312 15.9375 -43.269531 15.875 -43.03125 L 15.78125 -41.28125 C 15.71875 -41.09375 15.6875 -40.785156 15.6875 -40.359375 C 15.4375 -38.648438 15.160156 -36.984375 14.859375 -35.359375 C 14.554688 -33.742188 14.34375 -32.078125 14.21875 -30.359375 C 14.03125 -28.222656 13.875 -26.160156 13.75 -24.171875 C 13.632812 -22.179688 13.394531 -20.085938 13.03125 -17.890625 C 12.90625 -17.148438 12.78125 -16.398438 12.65625 -15.640625 C 12.53125 -14.878906 12.441406 -14.128906 12.390625 -13.390625 C 12.265625 -13.328125 12.09375 -13.203125 11.875 -13.015625 C 11.664062 -12.835938 11.46875 -12.65625 11.28125 -12.46875 C 10.976562 -12.226562 10.734375 -12.015625 10.546875 -11.828125 C 10.367188 -11.648438 10.21875 -11.5 10.09375 -11.375 L 9.8125 -11.375 Z M 9.71875 -10.828125 "/></g></g></g><g fill="#c00808" fill-opacity="1"><g transform="translate(283.730619, 116.669878)"><g/></g></g><g fill="#c00808" fill-opacity="1"><g transform="translate(306.295309, 116.669878)"><g><path d="M 25.59375 -60.546875 C 27.613281 -61.035156 28.742188 -61.28125 28.984375 -61.28125 C 29.109375 -61.28125 29.203125 -61.28125 29.265625 -61.28125 C 30.304688 -61.28125 31.46875 -60.695312 32.75 -59.53125 C 34.03125 -58.375 34.671875 -57.335938 34.671875 -56.421875 C 34.671875 -56.359375 34.671875 -56.265625 34.671875 -56.140625 C 34.492188 -55.285156 34.40625 -54.765625 34.40625 -54.578125 C 34.28125 -54.210938 33.632812 -54 32.46875 -53.9375 C 30.207031 -53.757812 27.671875 -52.921875 24.859375 -51.421875 C 22.046875 -49.921875 19.84375 -48.191406 18.25 -46.234375 C 16.113281 -43.722656 14.660156 -41 13.890625 -38.0625 C 13.128906 -35.132812 12.71875 -32.78125 12.65625 -31 C 12.65625 -30.757812 12.65625 -30.488281 12.65625 -30.1875 C 12.65625 -27.25 13.3125 -24.753906 14.625 -22.703125 C 15.945312 -20.648438 17.492188 -19.472656 19.265625 -19.171875 C 20.054688 -19.046875 20.789062 -18.984375 21.46875 -18.984375 C 22.75 -18.984375 24.0625 -19.242188 25.40625 -19.765625 C 26.75 -20.285156 28.035156 -21.28125 29.265625 -22.75 C 30.421875 -24.09375 31.101562 -25.191406 31.3125 -26.046875 C 31.53125 -26.910156 31.640625 -27.953125 31.640625 -29.171875 L 31.640625 -32.296875 L 28.25 -32.296875 C 26.539062 -32.296875 25.472656 -32.335938 25.046875 -32.421875 C 24.617188 -32.515625 24.097656 -32.867188 23.484375 -33.484375 C 22.753906 -34.097656 22.390625 -34.554688 22.390625 -34.859375 C 22.390625 -34.921875 22.390625 -34.953125 22.390625 -34.953125 C 22.390625 -35.015625 22.414062 -35.078125 22.46875 -35.140625 C 22.65625 -35.503906 23.941406 -36.050781 26.328125 -36.78125 C 28.835938 -37.582031 30.347656 -38.101562 30.859375 -38.34375 C 31.378906 -38.59375 31.640625 -38.929688 31.640625 -39.359375 C 31.640625 -39.898438 31.734375 -40.203125 31.921875 -40.265625 C 32.773438 -40.328125 33.847656 -40.453125 35.140625 -40.640625 C 35.503906 -40.703125 35.867188 -40.734375 36.234375 -40.734375 C 36.359375 -40.734375 36.585938 -40.71875 36.921875 -40.6875 C 37.253906 -40.65625 37.851562 -40.425781 38.71875 -40 C 39.8125 -39.445312 40.476562 -39.0625 40.71875 -38.84375 C 40.96875 -38.632812 41.1875 -38.039062 41.375 -37.0625 C 41.550781 -36.144531 41.640625 -34.738281 41.640625 -32.84375 C 41.640625 -31.925781 41.613281 -30.851562 41.5625 -29.625 C 40.695312 -17.269531 40.175781 -11.09375 40 -11.09375 C 39.9375 -11.15625 39.875 -11.1875 39.8125 -11.1875 C 39.625 -11.1875 39.347656 -10.972656 38.984375 -10.546875 C 38.617188 -10.117188 38.4375 -9.785156 38.4375 -9.546875 L 38.4375 -9.265625 C 38.4375 -9.203125 38.390625 -9.109375 38.296875 -8.984375 C 38.203125 -8.867188 38.046875 -8.796875 37.828125 -8.765625 C 37.617188 -8.734375 37.394531 -8.71875 37.15625 -8.71875 C 36.96875 -8.71875 36.875 -8.625 36.875 -8.4375 C 36.875 -8.195312 36.8125 -8.078125 36.6875 -8.078125 C 36.632812 -8.078125 36.578125 -8.078125 36.515625 -8.078125 C 36.265625 -8.191406 36.109375 -8.460938 36.046875 -8.890625 L 35.875 -9.71875 L 35.59375 -8.890625 C 35.40625 -8.347656 35.21875 -8.078125 35.03125 -8.078125 C 34.851562 -8.078125 34.582031 -8.289062 34.21875 -8.71875 C 33.050781 -10.125 32.253906 -11.863281 31.828125 -13.9375 L 31.640625 -15.6875 L 30.453125 -14.859375 C 27.703125 -12.660156 25.238281 -11.4375 23.0625 -11.1875 C 20.894531 -10.945312 19.476562 -10.828125 18.8125 -10.828125 C 16.113281 -10.828125 13.632812 -11.5 11.375 -12.84375 C 9.050781 -14.25 7.1875 -16.296875 5.78125 -18.984375 C 4.375 -21.679688 3.578125 -24.984375 3.390625 -28.890625 C 3.390625 -29.441406 3.390625 -29.992188 3.390625 -30.546875 C 3.390625 -38.984375 6.082031 -46.140625 11.46875 -52.015625 C 15.5 -56.472656 20.207031 -59.316406 25.59375 -60.546875 Z M 38.984375 -10.1875 C 38.984375 -10.300781 39.015625 -10.390625 39.078125 -10.453125 C 39.140625 -10.515625 39.171875 -10.546875 39.171875 -10.546875 C 39.234375 -10.546875 39.296875 -10.515625 39.359375 -10.453125 C 39.597656 -10.335938 39.71875 -10.15625 39.71875 -9.90625 C 39.71875 -9.71875 39.59375 -9.625 39.34375 -9.625 C 39.101562 -9.625 38.984375 -9.8125 38.984375 -10.1875 Z M 38.984375 -10.1875 "/></g></g></g><g fill="#c00808" fill-opacity="1"><g transform="translate(350.69087, 116.669878)"><g><path d="M 21.5625 -61.734375 C 22.71875 -61.921875 23.753906 -62.015625 24.671875 -62.015625 C 25.410156 -62.015625 26.222656 -61.921875 27.109375 -61.734375 C 27.992188 -61.554688 30.117188 -60.703125 33.484375 -59.171875 C 34.273438 -58.804688 34.734375 -58.546875 34.859375 -58.390625 C 34.984375 -58.234375 35.046875 -58.003906 35.046875 -57.703125 C 35.046875 -57.578125 35.046875 -57.453125 35.046875 -57.328125 C 34.984375 -56.472656 34.492188 -55.847656 33.578125 -55.453125 C 32.660156 -55.054688 30.734375 -54.519531 27.796875 -53.84375 C 21.316406 -52.375 17.1875 -51.425781 15.40625 -51 C 15.101562 -49.476562 14.921875 -47.707031 14.859375 -45.6875 C 14.796875 -43.664062 14.765625 -42.289062 14.765625 -41.5625 C 14.765625 -41.1875 14.78125 -40.816406 14.8125 -40.453125 C 14.84375 -40.085938 14.984375 -39.90625 15.234375 -39.90625 C 15.535156 -39.90625 17.1875 -40.238281 20.1875 -40.90625 C 23.0625 -41.644531 25.535156 -42.015625 27.609375 -42.015625 C 29.265625 -42.015625 30.640625 -41.769531 31.734375 -41.28125 C 32.472656 -40.976562 32.929688 -40.734375 33.109375 -40.546875 C 33.296875 -40.359375 33.390625 -40.050781 33.390625 -39.625 C 33.390625 -38.582031 32.289062 -37.269531 30.09375 -35.6875 C 29.78125 -35.375 27.46875 -34.742188 23.15625 -33.796875 C 18.851562 -32.847656 16.332031 -32.375 15.59375 -32.375 C 15.039062 -32.375 14.6875 -32.25 14.53125 -32 C 14.382812 -31.757812 14.28125 -30.9375 14.21875 -29.53125 C 14.09375 -27.394531 14.03125 -24.921875 14.03125 -22.109375 L 14.03125 -21 C 14.03125 -20.207031 14.179688 -19.765625 14.484375 -19.671875 C 14.796875 -19.585938 15.164062 -19.546875 15.59375 -19.546875 C 16.382812 -19.546875 17.726562 -19.632812 19.625 -19.8125 C 20.601562 -19.9375 21.367188 -20.03125 21.921875 -20.09375 C 24.796875 -20.332031 27.304688 -20.453125 29.453125 -20.453125 C 31.953125 -20.453125 34 -20.300781 35.59375 -20 C 36.019531 -19.875 36.265625 -19.78125 36.328125 -19.71875 C 36.390625 -19.65625 36.421875 -19.597656 36.421875 -19.546875 C 36.421875 -19.484375 36.390625 -19.390625 36.328125 -19.265625 C 36.203125 -19.078125 36.140625 -18.863281 36.140625 -18.625 C 36.140625 -18.4375 36.203125 -18.222656 36.328125 -17.984375 C 36.390625 -17.796875 36.421875 -17.609375 36.421875 -17.421875 C 36.421875 -16.941406 36.050781 -16.300781 35.3125 -15.5 C 34.582031 -14.707031 33.421875 -14.035156 31.828125 -13.484375 C 30.054688 -12.804688 26.507812 -12.085938 21.1875 -11.328125 C 15.863281 -10.566406 12.285156 -10.1875 10.453125 -10.1875 C 9.898438 -10.1875 9.472656 -10.21875 9.171875 -10.28125 C 8.128906 -10.519531 6.601562 -11.617188 4.59375 -13.578125 C 3.1875 -14.984375 2.484375 -15.898438 2.484375 -16.328125 C 2.484375 -16.390625 2.507812 -16.453125 2.5625 -16.515625 C 2.625 -16.578125 2.71875 -16.609375 2.84375 -16.609375 C 3.03125 -16.609375 3.273438 -16.878906 3.578125 -17.421875 C 3.878906 -18.035156 4.304688 -18.5 4.859375 -18.8125 C 5.285156 -18.988281 5.546875 -19.441406 5.640625 -20.171875 C 5.734375 -20.910156 5.84375 -23.878906 5.96875 -29.078125 L 5.96875 -29.171875 C 5.96875 -30.515625 5.992188 -32.101562 6.046875 -33.9375 C 6.109375 -35.769531 6.171875 -37.695312 6.234375 -39.71875 C 6.296875 -41.738281 6.328125 -43.175781 6.328125 -44.03125 L 6.609375 -51.921875 L 4.953125 -53.578125 C 3.242188 -55.285156 2.390625 -56.382812 2.390625 -56.875 C 2.390625 -57 2.421875 -57.09375 2.484375 -57.15625 C 2.597656 -57.332031 3.175781 -57.421875 4.21875 -57.421875 C 5.195312 -57.421875 8.070312 -58.09375 12.84375 -59.4375 C 17.3125 -60.789062 20.21875 -61.554688 21.5625 -61.734375 Z M 21.5625 -61.734375 "/></g></g></g><g fill="#c00808" fill-opacity="1"><g transform="translate(389.307664, 116.669878)"><g><path d="M 25.234375 -61 C 25.898438 -61.1875 26.90625 -61.28125 28.25 -61.28125 C 28.800781 -61.28125 29.796875 -61.25 31.234375 -61.1875 C 32.671875 -61.125 33.847656 -60.972656 34.765625 -60.734375 C 35.929688 -60.359375 37.171875 -59.742188 38.484375 -58.890625 C 39.796875 -58.035156 40.757812 -57.210938 41.375 -56.421875 C 42.351562 -55.128906 42.898438 -53.8125 43.015625 -52.46875 C 43.140625 -51.125 43.203125 -50.175781 43.203125 -49.625 C 43.203125 -48.039062 42.988281 -46.515625 42.5625 -45.046875 C 41.707031 -42.234375 39.476562 -39.660156 35.875 -37.328125 L 33.390625 -35.59375 L 35.21875 -34.953125 C 36.507812 -34.585938 37.644531 -33.945312 38.625 -33.03125 C 39.90625 -31.863281 40.835938 -30.175781 41.421875 -27.96875 C 42.003906 -25.769531 42.476562 -21.953125 42.84375 -16.515625 L 43.109375 -12.75 L 42.015625 -10.921875 C 41.398438 -10.003906 40.925781 -9.4375 40.59375 -9.21875 C 40.257812 -9 39.476562 -8.832031 38.25 -8.71875 C 37.882812 -8.71875 37.519531 -8.71875 37.15625 -8.71875 C 35.320312 -8.71875 34.160156 -9.144531 33.671875 -10 C 33.546875 -10.363281 33.175781 -11.1875 32.5625 -12.46875 C 32.070312 -13.394531 31.703125 -14.726562 31.453125 -16.46875 C 31.210938 -18.207031 30.972656 -21.003906 30.734375 -24.859375 C 30.484375 -28.710938 30.300781 -30.851562 30.1875 -31.28125 C 30.0625 -31.519531 29.613281 -31.6875 28.84375 -31.78125 C 28.082031 -31.875 26.144531 -31.921875 23.03125 -31.921875 L 16.140625 -31.921875 L 15.96875 -29.625 C 15.78125 -28.21875 15.5625 -25.316406 15.3125 -20.921875 C 15.132812 -16.640625 14.921875 -14.253906 14.671875 -13.765625 C 14.554688 -13.390625 14.253906 -12.972656 13.765625 -12.515625 C 13.273438 -12.054688 12.875 -11.828125 12.5625 -11.828125 C 12.445312 -11.828125 12.34375 -11.75 12.25 -11.59375 C 12.15625 -11.445312 12.109375 -11.253906 12.109375 -11.015625 C 12.109375 -10.578125 12.015625 -10.3125 11.828125 -10.21875 C 11.648438 -10.132812 11.101562 -10.09375 10.1875 -10.09375 C 9.269531 -10.09375 8.65625 -10.148438 8.34375 -10.265625 C 8.039062 -10.390625 7.675781 -10.726562 7.25 -11.28125 C 6.632812 -12.070312 6.234375 -13.234375 6.046875 -14.765625 C 5.804688 -16.359375 5.6875 -19.492188 5.6875 -24.171875 C 5.6875 -28.847656 5.804688 -32.503906 6.046875 -35.140625 C 6.296875 -38.015625 6.484375 -42.445312 6.609375 -48.4375 C 6.671875 -54.675781 6.757812 -57.882812 6.875 -58.0625 C 7.0625 -58.3125 7.503906 -58.4375 8.203125 -58.4375 C 8.910156 -58.4375 9.265625 -58.523438 9.265625 -58.703125 C 9.265625 -59.015625 9.382812 -59.1875 9.625 -59.21875 C 9.875 -59.25 10.0625 -59.265625 10.1875 -59.265625 C 10.488281 -59.265625 10.789062 -59.171875 11.09375 -58.984375 C 11.582031 -58.679688 11.953125 -58.53125 12.203125 -58.53125 C 12.378906 -58.53125 12.46875 -58.648438 12.46875 -58.890625 C 12.46875 -59.203125 12.773438 -59.359375 13.390625 -59.359375 C 13.453125 -59.359375 13.546875 -59.359375 13.671875 -59.359375 C 14.160156 -59.359375 14.460938 -59.3125 14.578125 -59.21875 C 14.703125 -59.125 14.765625 -58.863281 14.765625 -58.4375 C 14.765625 -58.070312 14.8125 -57.84375 14.90625 -57.75 C 15 -57.65625 15.132812 -57.609375 15.3125 -57.609375 C 15.375 -57.609375 15.46875 -57.609375 15.59375 -57.609375 C 16.144531 -57.671875 16.816406 -57.945312 17.609375 -58.4375 C 18.097656 -58.738281 19.257812 -59.195312 21.09375 -59.8125 C 22.925781 -60.425781 24.304688 -60.820312 25.234375 -61 Z M 29.453125 -55.3125 C 28.585938 -55.4375 27.664062 -55.5 26.6875 -55.5 C 24.1875 -55.5 21.253906 -55.070312 17.890625 -54.21875 L 16.609375 -53.84375 L 16.328125 -50.09375 C 16.203125 -48.132812 16.140625 -45.316406 16.140625 -41.640625 L 16.046875 -36.78125 L 17.421875 -37.0625 C 19.929688 -37.550781 22.300781 -38.515625 24.53125 -39.953125 C 26.769531 -41.390625 28.5625 -43.097656 29.90625 -45.078125 C 31.25 -47.066406 31.921875 -49.039062 31.921875 -51 C 31.921875 -51.1875 31.921875 -51.375 31.921875 -51.5625 C 31.921875 -52.71875 31.738281 -53.597656 31.375 -54.203125 C 31.007812 -54.816406 30.367188 -55.1875 29.453125 -55.3125 Z M 29.453125 -55.3125 "/></g></g></g><g fill="#c00808" fill-opacity="1"><g transform="translate(435.262562, 116.669878)"><g><path d="M 22.46875 -60.09375 C 22.78125 -60.394531 23.210938 -60.546875 23.765625 -60.546875 C 23.816406 -60.546875 24.023438 -60.53125 24.390625 -60.5 C 24.765625 -60.46875 25.316406 -60.269531 26.046875 -59.90625 C 26.960938 -59.476562 28.046875 -58.039062 29.296875 -55.59375 C 30.554688 -53.144531 32.5625 -48.617188 35.3125 -42.015625 C 36.65625 -38.523438 37.546875 -36.722656 37.984375 -36.609375 C 38.410156 -36.484375 38.625 -36.238281 38.625 -35.875 C 38.625 -35.625 38.53125 -35.5 38.34375 -35.5 C 38.15625 -35.5 38.0625 -35.4375 38.0625 -35.3125 C 38.0625 -35.195312 38.15625 -34.984375 38.34375 -34.671875 C 38.707031 -34.066406 38.984375 -33.273438 39.171875 -32.296875 C 39.898438 -30.765625 40.632812 -28.925781 41.375 -26.78125 C 42.90625 -22.257812 43.820312 -18.625 44.125 -15.875 C 44.125 -15.625 44.078125 -14.75 43.984375 -13.25 C 43.890625 -11.757812 42.5625 -10.796875 40 -10.359375 C 39.75 -10.359375 39.535156 -10.359375 39.359375 -10.359375 C 39.046875 -10.359375 38.765625 -10.390625 38.515625 -10.453125 C 38.273438 -10.515625 37.910156 -10.726562 37.421875 -11.09375 C 36.753906 -11.707031 36.019531 -12.597656 35.21875 -13.765625 C 34.726562 -14.554688 34.316406 -15.070312 33.984375 -15.3125 C 33.648438 -15.5625 33.175781 -15.78125 32.5625 -15.96875 C 31.832031 -16.144531 31.253906 -16.414062 30.828125 -16.78125 C 30.398438 -17.15625 30.1875 -17.523438 30.1875 -17.890625 C 30.1875 -18.066406 30.644531 -18.21875 31.5625 -18.34375 L 33.03125 -18.625 L 32.46875 -20.734375 C 32.101562 -21.890625 31.445312 -23.738281 30.5 -26.28125 C 29.550781 -28.820312 28.894531 -30.09375 28.53125 -30.09375 C 28.40625 -30.09375 27.363281 -29.445312 25.40625 -28.15625 C 23.695312 -27.0625 22.597656 -26.46875 22.109375 -26.375 C 21.617188 -26.28125 21.25 -26.234375 21 -26.234375 C 20.269531 -26.234375 19.320312 -26.445312 18.15625 -26.875 C 17.238281 -27.238281 16.628906 -27.421875 16.328125 -27.421875 C 16.203125 -27.421875 16.109375 -27.394531 16.046875 -27.34375 C 15.867188 -27.15625 15.257812 -25.503906 14.21875 -22.390625 C 12.9375 -18.835938 11.941406 -16.3125 11.234375 -14.8125 C 10.535156 -13.3125 9.753906 -12.226562 8.890625 -11.5625 C 8.347656 -11.070312 8.015625 -10.8125 7.890625 -10.78125 C 7.765625 -10.75 7.671875 -10.734375 7.609375 -10.734375 C 7.492188 -10.734375 7.40625 -10.851562 7.34375 -11.09375 C 7.21875 -11.34375 7.109375 -11.46875 7.015625 -11.46875 C 6.921875 -11.46875 6.722656 -11.316406 6.421875 -11.015625 C 6.054688 -10.640625 5.75 -10.453125 5.5 -10.453125 C 5.4375 -10.453125 5.34375 -10.46875 5.21875 -10.5 C 5.101562 -10.53125 4.800781 -10.789062 4.3125 -11.28125 C 4.007812 -11.582031 3.796875 -11.976562 3.671875 -12.46875 C 3.546875 -12.957031 3.421875 -13.753906 3.296875 -14.859375 C 3.234375 -15.535156 3.203125 -16.117188 3.203125 -16.609375 C 3.203125 -16.910156 3.25 -17.304688 3.34375 -17.796875 C 3.4375 -18.285156 3.695312 -19.082031 4.125 -20.1875 C 4.800781 -21.894531 5.441406 -23.359375 6.046875 -24.578125 C 6.421875 -25.378906 7.128906 -26.910156 8.171875 -29.171875 C 8.960938 -30.941406 9.675781 -32.773438 10.3125 -34.671875 C 10.957031 -36.566406 12.6875 -41.488281 15.5 -49.4375 C 17.519531 -55.3125 18.773438 -58.398438 19.265625 -58.703125 C 19.753906 -59.015625 20 -59.351562 20 -59.71875 C 20 -60.019531 20.039062 -60.171875 20.125 -60.171875 C 20.21875 -60.171875 20.570312 -60.082031 21.1875 -59.90625 C 21.4375 -59.78125 21.648438 -59.71875 21.828125 -59.71875 C 22.140625 -59.71875 22.351562 -59.84375 22.46875 -60.09375 Z M 25.40625 -42.296875 C 24.25 -45.710938 23.546875 -47.515625 23.296875 -47.703125 C 23.296875 -47.765625 23.265625 -47.796875 23.203125 -47.796875 C 23.140625 -47.796875 23.078125 -47.765625 23.015625 -47.703125 C 22.960938 -47.640625 22.8125 -47.347656 22.5625 -46.828125 C 22.320312 -46.304688 22.0625 -45.632812 21.78125 -44.8125 C 21.507812 -43.988281 21.066406 -42.71875 20.453125 -41 C 18.804688 -36.050781 17.984375 -33.238281 17.984375 -32.5625 C 17.984375 -32.4375 17.984375 -32.375 17.984375 -32.375 C 18.046875 -32.320312 18.101562 -32.296875 18.15625 -32.296875 C 18.832031 -32.296875 21.097656 -33.023438 24.953125 -34.484375 C 26.359375 -34.972656 27.078125 -35.382812 27.109375 -35.71875 C 27.140625 -36.0625 27.15625 -36.265625 27.15625 -36.328125 C 27.15625 -36.992188 26.570312 -38.984375 25.40625 -42.296875 Z M 25.40625 -42.296875 "/></g></g></g><g fill="#c00808" fill-opacity="1"><g transform="translate(482.226469, 116.669878)"><g><path d="M 10.359375 -60.09375 C 10.609375 -60.394531 11.097656 -60.546875 11.828125 -60.546875 C 11.953125 -60.546875 12.257812 -60.53125 12.75 -60.5 C 13.238281 -60.46875 13.757812 -60.269531 14.3125 -59.90625 C 14.738281 -59.65625 15.039062 -59.238281 15.21875 -58.65625 C 15.40625 -58.082031 15.53125 -57.117188 15.59375 -55.765625 C 15.65625 -54.421875 15.6875 -52.128906 15.6875 -48.890625 C 15.6875 -44.003906 15.804688 -41.5625 16.046875 -41.5625 C 16.535156 -41.5625 18.769531 -43.640625 22.75 -47.796875 C 26.726562 -51.953125 29.175781 -54.796875 30.09375 -56.328125 C 30.882812 -57.609375 31.660156 -58.460938 32.421875 -58.890625 C 33.191406 -59.316406 34.34375 -59.59375 35.875 -59.71875 L 38.4375 -59.90625 L 40 -58.4375 C 40.976562 -57.394531 41.46875 -56.753906 41.46875 -56.515625 C 41.46875 -55.285156 38.5 -52.007812 32.5625 -46.6875 C 28.039062 -42.65625 25.117188 -40.007812 23.796875 -38.75 C 22.484375 -37.5 21.828125 -36.785156 21.828125 -36.609375 C 21.828125 -36.359375 22.867188 -35.316406 24.953125 -33.484375 C 26.296875 -32.253906 28.988281 -29.773438 33.03125 -26.046875 C 34.375 -24.765625 35.640625 -23.601562 36.828125 -22.5625 C 38.023438 -21.519531 38.804688 -20.910156 39.171875 -20.734375 C 40.023438 -20.179688 40.453125 -19.753906 40.453125 -19.453125 C 40.453125 -19.140625 40.726562 -18.40625 41.28125 -17.25 C 41.832031 -16.144531 42.140625 -14.890625 42.203125 -13.484375 C 42.203125 -12.566406 42.140625 -11.953125 42.015625 -11.640625 C 41.890625 -11.335938 41.550781 -10.941406 41 -10.453125 C 39.90625 -9.535156 38.773438 -9.078125 37.609375 -9.078125 C 37.421875 -9.078125 36.960938 -9.109375 36.234375 -9.171875 C 35.503906 -9.234375 34.554688 -9.875 33.390625 -11.09375 C 32.347656 -12.070312 30.054688 -14.613281 26.515625 -18.71875 C 19.722656 -26.539062 16.144531 -30.453125 15.78125 -30.453125 C 15.65625 -30.453125 15.472656 -27.789062 15.234375 -22.46875 C 15.046875 -18.070312 14.859375 -15.414062 14.671875 -14.5 C 14.492188 -13.820312 14.097656 -13.097656 13.484375 -12.328125 C 12.867188 -11.566406 12.257812 -11.003906 11.65625 -10.640625 C 11.46875 -10.515625 11.160156 -10.453125 10.734375 -10.453125 C 10.429688 -10.453125 9.925781 -10.515625 9.21875 -10.640625 C 8.519531 -10.765625 8.171875 -10.914062 8.171875 -11.09375 C 8.171875 -11.40625 7.863281 -11.878906 7.25 -12.515625 C 6.632812 -13.160156 6.207031 -13.941406 5.96875 -14.859375 C 5.78125 -15.773438 5.6875 -18.460938 5.6875 -22.921875 C 5.6875 -27.390625 5.804688 -32.410156 6.046875 -37.984375 C 6.296875 -44.648438 6.421875 -49.632812 6.421875 -52.9375 C 6.484375 -56.78125 6.578125 -58.828125 6.703125 -59.078125 C 6.878906 -59.378906 7.488281 -59.5625 8.53125 -59.625 C 9.507812 -59.6875 10.117188 -59.84375 10.359375 -60.09375 Z M 10.359375 -60.09375 "/></g></g></g></svg>