<svg xmlns="http://www.w3.org/2000/svg" xmlns:xlink="http://www.w3.org/1999/xlink" width="557" zoomAndPan="magnify" viewBox="0 0 417.75 111.749996" height="149" preserveAspectRatio="xMidYMid meet" version="1.0"><defs><clipPath id="2fa2a0d686"><path d="M 12 15 L 416.410156 15 L 416.410156 111.5 L 12 111.5 Z M 12 15 " clip-rule="nonzero"/></clipPath><clipPath id="05313b847a"><path d="M 0.339844 0 L 401 0 L 401 95 L 0.339844 95 Z M 0.339844 0 " clip-rule="nonzero"/></clipPath><clipPath id="a1f3a2cd3a"><path d="M 148.824219 17.039062 L 208.441406 17.039062 L 208.441406 76.65625 L 148.824219 76.65625 Z M 148.824219 17.039062 " clip-rule="nonzero"/></clipPath><clipPath id="7251e19ade"><path d="M 178.632812 17.039062 C 162.167969 17.039062 148.824219 30.382812 148.824219 46.847656 C 148.824219 63.308594 162.167969 76.65625 178.632812 76.65625 C 195.09375 76.65625 208.441406 63.308594 208.441406 46.847656 C 208.441406 30.382812 195.09375 17.039062 178.632812 17.039062 Z M 178.632812 17.039062 " clip-rule="nonzero"/></clipPath></defs><path fill="#edd136" d="M 369.039062 109.648438 L 63.316406 109.648438 C 38.40625 109.648438 17.996094 89.199219 17.996094 64.246094 C 17.996094 39.25 38.40625 18.84375 63.316406 18.84375 L 368.996094 18.84375 C 393.949219 18.84375 414.359375 39.25 414.359375 64.246094 C 414.359375 89.222656 393.949219 109.648438 369.039062 109.648438 Z M 369.039062 109.648438 " fill-opacity="1" fill-rule="nonzero"/><g clip-path="url(#2fa2a0d686)"><path fill="#040000" d="M 404.609375 33.292969 L 404.632812 33.273438 L 387.914062 15.007812 L 385.175781 17.527344 L 388.582031 21.253906 C 382.617188 18.507812 375.984375 16.96875 368.996094 16.96875 L 63.316406 16.96875 C 37.316406 16.96875 16.171875 38.199219 16.171875 64.246094 C 16.171875 69.710938 17.105469 74.972656 18.820312 79.855469 L 14.746094 75.417969 L 12.007812 77.9375 L 26.699219 93.972656 C 35.335938 104.65625 48.535156 111.5 63.316406 111.5 L 369.039062 111.5 C 395.039062 111.5 416.140625 90.269531 416.140625 64.222656 C 416.140625 52.40625 411.800781 41.589844 404.609375 33.292969 Z M 358.378906 107.820312 L 343.308594 91.386719 L 340.570312 93.90625 L 353.324219 107.820312 L 332.136719 107.820312 L 317.089844 91.40625 L 314.351562 93.929688 L 327.082031 107.820312 L 306.136719 107.820312 L 291.066406 91.363281 L 288.328125 93.882812 L 301.105469 107.796875 L 280.09375 107.796875 L 265.023438 91.363281 L 262.285156 93.882812 L 275.042969 107.796875 L 253.605469 107.796875 L 238.535156 91.363281 L 235.800781 93.882812 L 248.554688 107.796875 L 227.117188 107.796875 L 212.070312 91.386719 L 209.332031 93.90625 L 222.066406 107.796875 L 200.675781 107.796875 L 185.605469 91.363281 L 182.867188 93.882812 L 195.621094 107.796875 L 174.1875 107.796875 L 159.117188 91.363281 L 156.378906 93.882812 L 169.132812 107.796875 L 147.699219 107.796875 L 132.652344 91.386719 L 129.914062 93.90625 L 142.644531 107.796875 L 121.253906 107.796875 L 106.1875 91.363281 L 103.449219 93.90625 L 116.203125 107.820312 L 94.765625 107.820312 L 79.71875 91.386719 L 76.984375 93.90625 L 89.738281 107.796875 L 68.367188 107.796875 L 53.300781 91.363281 L 50.515625 93.882812 L 63.269531 107.796875 C 51.363281 107.777344 40.566406 102.960938 32.730469 95.15625 L 32.777344 95.109375 L 29.28125 91.320312 C 23.382812 83.894531 19.84375 74.480469 19.84375 64.246094 C 19.84375 40.207031 39.320312 20.695312 63.269531 20.695312 L 368.996094 20.695312 C 381.105469 20.695312 392.054688 25.667969 399.957031 33.671875 L 401.871094 35.769531 C 406.457031 41.097656 409.796875 47.542969 411.398438 54.636719 L 399.957031 42.148438 L 397.21875 44.667969 L 412.355469 61.191406 C 412.421875 62.195312 412.46875 63.222656 412.46875 64.246094 C 412.46875 68.28125 411.910156 72.183594 410.886719 75.886719 L 397.441406 61.234375 L 394.703125 63.757812 L 409.527344 79.945312 C 407.570312 85.007812 404.699219 89.625 401.09375 93.570312 L 386.871094 78.050781 L 384.132812 80.570312 L 398.464844 96.226562 C 394.371094 100.015625 389.539062 103.046875 384.21875 105.054688 L 369.441406 88.933594 L 366.703125 91.453125 L 380.324219 106.304688 C 376.695312 107.285156 372.890625 107.820312 368.949219 107.820312 Z M 358.378906 107.820312 " fill-opacity="1" fill-rule="nonzero"/></g><path fill="#f4f4f4" d="M 353.503906 92.679688 L 47.757812 92.679688 C 22.847656 92.679688 2.460938 72.253906 2.460938 47.277344 C 2.460938 22.277344 22.847656 1.851562 47.757812 1.851562 L 353.480469 1.851562 C 378.390625 1.851562 398.800781 22.300781 398.800781 47.253906 C 398.800781 72.253906 378.410156 92.679688 353.503906 92.679688 Z M 353.503906 92.679688 " fill-opacity="1" fill-rule="nonzero"/><g clip-path="url(#05313b847a)"><path fill="#3a3a3a" d="M 353.503906 0 L 47.757812 0 C 21.757812 0 0.613281 21.140625 0.613281 47.230469 C 0.613281 73.324219 21.757812 94.507812 47.757812 94.507812 L 353.480469 94.507812 C 379.480469 94.507812 400.625 73.277344 400.625 47.230469 C 400.625 21.183594 379.5 0 353.503906 0 Z M 114.398438 90.804688 L 47.800781 90.804688 C 23.804688 90.804688 4.328125 71.25 4.328125 47.253906 C 4.328125 23.257812 23.804688 3.722656 47.757812 3.722656 L 114.398438 3.722656 L 118.027344 3.679688 L 353.480469 3.679688 C 377.476562 3.679688 396.953125 23.238281 396.953125 47.230469 C 396.953125 71.269531 377.429688 90.785156 353.480469 90.785156 L 114.398438 90.785156 Z M 114.398438 90.804688 " fill-opacity="1" fill-rule="nonzero"/></g><g clip-path="url(#a1f3a2cd3a)"><g clip-path="url(#7251e19ade)"><path fill="#f4f4f4" d="M 148.824219 17.039062 L 208.441406 17.039062 L 208.441406 76.65625 L 148.824219 76.65625 Z M 148.824219 17.039062 " fill-opacity="1" fill-rule="nonzero"/></g></g></svg>