<?xml version="1.0" encoding="UTF-8"?>
<!DOCTYPE svg PUBLIC "-//W3C//DTD SVG 1.1//EN" "http://www.w3.org/Graphics/SVG/1.1/DTD/svg11.dtd">
<!-- Creator: CorelDRAW -->
<svg xmlns="http://www.w3.org/2000/svg" xml:space="preserve" width="192px" height="192px" version="1.1" style="shape-rendering:geometricPrecision; text-rendering:geometricPrecision; image-rendering:optimizeQuality; fill-rule:evenodd; clip-rule:evenodd"
viewBox="0 0 37.14 37.15"
 xmlns:xlink="http://www.w3.org/1999/xlink"
 xmlns:xodm="http://www.corel.com/coreldraw/odm/2003"
 zoomAndPan="magnify">
 <defs>
  <style type="text/css">
   <![CDATA[
    .fil1 {fill:none}
    .fil0 {fill:white;fill-rule:nonzero}
   ]]>
  </style>
    <clipPath id="id0">
     <path d="M0 0l37.14 0 0 37.15 -37.14 0 0 -37.15z"/>
    </clipPath>
 </defs>
 <g id="Layer_x0020_1">
  <metadata id="CorelCorpID_0Corel-Layer"/>
  <g id="_1894831881168">
   <g>
   </g>
   <g style="clip-path:url(#id0)">
    <g>
     <path class="fil0" d="M18.57 0c0.61,0 1.22,0.03 1.82,0.09 0.61,0.06 1.21,0.15 1.81,0.27 0.59,0.12 1.18,0.26 1.76,0.44 0.59,0.18 1.16,0.38 1.72,0.61 0.56,0.24 1.11,0.5 1.65,0.78 0.53,0.29 1.06,0.6 1.56,0.94 0.51,0.34 1,0.7 1.47,1.09 0.47,0.38 0.92,0.79 1.35,1.22 0.43,0.43 0.83,0.88 1.22,1.35 0.39,0.47 0.75,0.96 1.09,1.47 0.34,0.5 0.65,1.02 0.93,1.56 0.29,0.54 0.55,1.09 0.78,1.65 0.24,0.56 0.44,1.13 0.62,1.71 0.17,0.59 0.32,1.18 0.44,1.77 0.12,0.6 0.21,1.2 0.27,1.81 0.06,0.6 0.09,1.21 0.09,1.82 0,0.61 -0.03,1.21 -0.09,1.82 -0.06,0.6 -0.15,1.2 -0.27,1.8 -0.12,0.6 -0.27,1.19 -0.44,1.77 -0.18,0.58 -0.38,1.15 -0.62,1.72 -0.23,0.56 -0.49,1.11 -0.78,1.64 -0.28,0.54 -0.59,1.06 -0.93,1.57 -0.34,0.5 -0.7,0.99 -1.09,1.46 -0.39,0.47 -0.79,0.92 -1.22,1.35 -0.43,0.43 -0.88,0.84 -1.35,1.23 -0.47,0.38 -0.96,0.74 -1.47,1.08 -0.5,0.34 -1.03,0.65 -1.56,0.94 -0.54,0.29 -1.09,0.55 -1.65,0.78 -0.56,0.23 -1.13,0.44 -1.72,0.61 -0.58,0.18 -1.17,0.33 -1.76,0.45 -0.6,0.12 -1.2,0.2 -1.81,0.26 -0.6,0.06 -1.21,0.09 -1.82,0.09 -0.61,0 -1.21,-0.03 -1.82,-0.09 -0.6,-0.06 -1.21,-0.14 -1.8,-0.26 -0.6,-0.12 -1.19,-0.27 -1.77,-0.45 -0.58,-0.17 -1.16,-0.38 -1.72,-0.61 -0.56,-0.23 -1.11,-0.49 -1.65,-0.78 -0.53,-0.29 -1.05,-0.6 -1.56,-0.94 -0.5,-0.34 -0.99,-0.7 -1.46,-1.08 -0.47,-0.39 -0.92,-0.8 -1.35,-1.23 -0.43,-0.43 -0.84,-0.88 -1.23,-1.35 -0.39,-0.47 -0.75,-0.96 -1.09,-1.46 -0.33,-0.51 -0.64,-1.03 -0.93,-1.57 -0.29,-0.53 -0.55,-1.08 -0.78,-1.64 -0.23,-0.57 -0.44,-1.14 -0.62,-1.72 -0.17,-0.58 -0.32,-1.17 -0.44,-1.77 -0.12,-0.6 -0.21,-1.2 -0.27,-1.8 -0.06,-0.61 -0.09,-1.21 -0.09,-1.82 0,-0.61 0.03,-1.22 0.09,-1.82 0.06,-0.61 0.15,-1.21 0.27,-1.81 0.12,-0.59 0.27,-1.18 0.44,-1.77 0.18,-0.58 0.39,-1.15 0.62,-1.71 0.23,-0.56 0.49,-1.11 0.78,-1.65 0.29,-0.54 0.6,-1.06 0.93,-1.56 0.34,-0.51 0.7,-1 1.09,-1.47 0.39,-0.47 0.8,-0.92 1.23,-1.35 0.43,-0.43 0.88,-0.84 1.35,-1.22 0.47,-0.39 0.96,-0.75 1.46,-1.09 0.51,-0.34 1.03,-0.65 1.56,-0.94 0.54,-0.28 1.09,-0.54 1.65,-0.78 0.56,-0.23 1.14,-0.43 1.72,-0.61 0.58,-0.18 1.17,-0.32 1.77,-0.44 0.59,-0.12 1.2,-0.21 1.8,-0.27 0.61,-0.06 1.21,-0.09 1.82,-0.09zm-11.44 19.43c0.12,0.28 0.29,0.54 0.51,0.76l7.74 7.74c0.1,0.14 0.21,0.26 0.34,0.38 0.12,0.11 0.26,0.21 0.41,0.3 0.15,0.08 0.3,0.15 0.47,0.2 0.16,0.05 0.33,0.08 0.5,0.1 0.17,0.01 0.33,0.01 0.5,-0.02 0.17,-0.02 0.34,-0.06 0.5,-0.12 0.16,-0.06 0.31,-0.14 0.45,-0.23 0.14,-0.1 0.27,-0.2 0.39,-0.33 0.12,-0.12 0.23,-0.25 0.32,-0.4 0.09,-0.14 0.16,-0.3 0.22,-0.46 0.05,-0.16 0.09,-0.32 0.11,-0.49 0.02,-0.17 0.02,-0.34 0,-0.51 -0.02,-0.17 -0.05,-0.34 -0.11,-0.5 -0.05,-0.16 -0.12,-0.31 -0.21,-0.46 -0.09,-0.14 -0.19,-0.28 -0.31,-0.4 -0.12,-0.13 -0.25,-0.24 -0.39,-0.33l-3.76 -3.76 13.05 0c0.15,0 0.3,-0.02 0.45,-0.05 0.15,-0.03 0.3,-0.07 0.44,-0.13 0.14,-0.06 0.27,-0.13 0.4,-0.21 0.13,-0.09 0.24,-0.18 0.35,-0.29 0.11,-0.11 0.21,-0.23 0.29,-0.35 0.09,-0.13 0.16,-0.26 0.22,-0.4 0.05,-0.15 0.1,-0.29 0.13,-0.44 0.03,-0.15 0.04,-0.3 0.04,-0.45 0,-0.16 -0.01,-0.31 -0.04,-0.46 -0.03,-0.15 -0.08,-0.29 -0.13,-0.43 -0.06,-0.14 -0.13,-0.28 -0.22,-0.4 -0.08,-0.13 -0.18,-0.25 -0.29,-0.36 -0.11,-0.1 -0.22,-0.2 -0.35,-0.28 -0.13,-0.09 -0.26,-0.16 -0.4,-0.22 -0.14,-0.06 -0.29,-0.1 -0.44,-0.13 -0.15,-0.03 -0.3,-0.04 -0.45,-0.04l-12.97 0 3.68 -3.77c0.15,-0.09 0.28,-0.2 0.41,-0.32 0.12,-0.13 0.22,-0.26 0.32,-0.41 0.09,-0.15 0.17,-0.3 0.22,-0.47 0.06,-0.16 0.1,-0.33 0.12,-0.5 0.02,-0.18 0.02,-0.35 -0.01,-0.52 -0.01,-0.17 -0.05,-0.34 -0.11,-0.51 -0.06,-0.16 -0.13,-0.32 -0.23,-0.46 -0.09,-0.15 -0.2,-0.29 -0.32,-0.41 -0.12,-0.12 -0.26,-0.23 -0.41,-0.32 -0.14,-0.1 -0.3,-0.17 -0.46,-0.23 -0.17,-0.06 -0.33,-0.1 -0.51,-0.12 -0.17,-0.01 -0.34,-0.02 -0.52,0 -0.17,0.02 -0.34,0.06 -0.5,0.12 -0.17,0.06 -0.32,0.13 -0.47,0.22 -0.15,0.09 -0.28,0.2 -0.41,0.32 -0.12,0.13 -0.23,0.26 -0.32,0.41l-7.74 7.74c-0.22,0.22 -0.4,0.47 -0.51,0.76 -0.21,0.55 -0.21,1.09 0.01,1.64zm0 0z"/>
    </g>
   </g>
   <polygon class="fil1" points="0,0 37.14,0 37.14,37.15 0,37.15 "/>
  </g>
 </g>
</svg>
