<?xml version="1.0" encoding="UTF-8"?>
<!DOCTYPE svg PUBLIC "-//W3C//DTD SVG 1.1//EN" "http://www.w3.org/Graphics/SVG/1.1/DTD/svg11.dtd">
<!-- Creator: CorelDRAW -->
<svg xmlns="http://www.w3.org/2000/svg" xml:space="preserve" width="192px" height="192px" version="1.1" style="shape-rendering:geometricPrecision; text-rendering:geometricPrecision; image-rendering:optimizeQuality; fill-rule:evenodd; clip-rule:evenodd"
viewBox="0 0 84.73 84.72"
 xmlns:xlink="http://www.w3.org/1999/xlink"
 xmlns:xodm="http://www.corel.com/coreldraw/odm/2003"
 zoomAndPan="magnify">
 <defs>
  <style type="text/css">
   <![CDATA[
    .fil1 {fill:none}
    .fil0 {fill:white;fill-rule:nonzero}
   ]]>
  </style>
    <clipPath id="id0">
     <path d="M0 0l84.73 0 0 84.72 -84.73 0 0 -84.72z"/>
    </clipPath>
 </defs>
 <g id="Layer_x0020_1">
  <metadata id="CorelCorpID_0Corel-Layer"/>
  <g id="_1894827778752">
   <g>
   </g>
   <g style="clip-path:url(#id0)">
    <g>
     <path class="fil0" d="M42.37 0c-23.4,0 -42.37,18.97 -42.37,42.37 0,23.4 18.97,42.36 42.37,42.36 23.4,0 42.36,-18.96 42.36,-42.36 0,-23.4 -18.97,-42.37 -42.36,-42.37zm21.63 66.34c0,0.5 -0.1,0.97 -0.28,1.43 -0.19,0.46 -0.46,0.86 -0.81,1.21 -0.35,0.35 -0.75,0.62 -1.2,0.81 -0.46,0.19 -0.93,0.29 -1.43,0.29l-9.07 0.05c-0.5,0 -0.98,-0.09 -1.44,-0.28 -0.46,-0.19 -0.87,-0.46 -1.22,-0.81 -0.35,-0.35 -0.62,-0.76 -0.81,-1.22 -0.2,-0.45 -0.29,-0.93 -0.29,-1.43l0 -11.71c0,-0.49 -0.09,-0.97 -0.28,-1.43 -0.22,-0.52 -0.51,-0.99 -0.87,-1.42 -0.36,-0.44 -0.78,-0.8 -1.25,-1.1 -0.48,-0.3 -0.98,-0.53 -1.53,-0.67 -0.54,-0.15 -1.09,-0.2 -1.66,-0.18 -0.56,0.03 -1.1,0.14 -1.63,0.33 -0.53,0.2 -1.01,0.47 -1.46,0.81 -0.44,0.34 -0.82,0.74 -1.14,1.21 -0.32,0.46 -0.56,0.96 -0.73,1.5 -0.12,0.35 -0.17,0.72 -0.17,1.09l0 11.36c0,0.49 -0.09,0.97 -0.28,1.42 -0.19,0.46 -0.45,0.86 -0.8,1.21 -0.35,0.35 -0.76,0.62 -1.21,0.81 -0.46,0.2 -0.93,0.29 -1.42,0.29l-9.07 0.05c-0.5,0 -0.98,-0.09 -1.44,-0.28 -0.46,-0.19 -0.86,-0.46 -1.21,-0.81 -0.36,-0.35 -0.63,-0.76 -0.82,-1.22 -0.19,-0.46 -0.29,-0.94 -0.28,-1.44 0.02,-6.33 0.04,-12.66 0.06,-19 0.01,-1.09 0.41,-2 1.21,-2.74l18.15 -16.67c0.34,-0.32 0.73,-0.56 1.17,-0.73 0.43,-0.17 0.88,-0.26 1.35,-0.26 0.47,0 0.92,0.08 1.36,0.25 0.43,0.17 0.82,0.41 1.16,0.72 6.04,5.51 12.08,11.02 18.12,16.53 0.81,0.74 1.22,1.65 1.22,2.75l0 19.28zm5.73 -19.77l-0.02 0c-0.96,0 -1.78,-0.34 -2.46,-1.02l-22.66 -22.66c-0.33,-0.33 -0.71,-0.58 -1.13,-0.76 -0.43,-0.18 -0.88,-0.27 -1.34,-0.27 -0.46,0 -0.91,0.09 -1.33,0.27 -0.43,0.18 -0.81,0.43 -1.14,0.76l-22.7 22.66c-0.68,0.68 -1.5,1.02 -2.46,1.02 -3.1,0 -4.66,-3.75 -2.47,-5.94l27.7 -27.81c0.32,-0.33 0.7,-0.58 1.13,-0.76 0.43,-0.18 0.88,-0.26 1.34,-0.26 0.46,0 0.91,0.08 1.34,0.26 0.43,0.18 0.8,0.43 1.13,0.76l10.55 10.65 0 -5.82c0,-0.35 0.07,-0.69 0.2,-1.01 0.14,-0.32 0.33,-0.6 0.57,-0.85 0.25,-0.25 0.53,-0.44 0.86,-0.57 0.32,-0.14 0.65,-0.2 1,-0.2l1.73 0c0.36,0 0.69,0.06 1.01,0.2 0.33,0.13 0.61,0.32 0.86,0.57 0.24,0.25 0.43,0.53 0.57,0.85 0.13,0.32 0.2,0.66 0.2,1.01l0 12.89 9.99 10.09c2.18,2.21 0.62,5.94 -2.48,5.94l0.01 0zm0 0z"/>
    </g>
   </g>
   <polygon class="fil1" points="0,0 84.73,0 84.73,84.72 0,84.72 "/>
  </g>
 </g>
</svg>
